<ttFont>
    <TTGlyph name=".notdef" xMin="193" yMin="0" xMax="1034" yMax="1462">
      <contour>
        <pt x="193" y="1462" on="1"/>
        <pt x="1034" y="1462" on="1"/>
        <pt x="1034" y="0" on="1"/>
        <pt x="193" y="0" on="1"/>
      </contour>
      <contour>
        <pt x="297" y="104" on="1"/>
        <pt x="930" y="104" on="1"/>
        <pt x="930" y="1358" on="1"/>
        <pt x="297" y="1358" on="1"/>
      </contour>
    </TTGlyph>
    <TTGlyph name="afii301" xMin="-299" yMin="-338" xMax="299" yMax="1613">
      <contour>
        <pt x="74" y="1323" on="1"/>
        <pt x="299" y="1103" on="1"/>
        <pt x="224" y="1030" on="1"/>
        <pt x="54" y="1199" on="1"/>
        <pt x="54" y="-338" on="1"/>
        <pt x="-54" y="-338" on="1"/>
        <pt x="-54" y="1199" on="1"/>
        <pt x="-224" y="1030" on="1"/>
        <pt x="-299" y="1103" on="1"/>
        <pt x="-74" y="1323" on="1"/>
        <pt x="-299" y="1540" on="1"/>
        <pt x="-224" y="1613" on="1"/>
        <pt x="0" y="1393" on="1"/>
        <pt x="224" y="1613" on="1"/>
        <pt x="299" y="1539" on="1"/>
      </contour>
    </TTGlyph>
    <TTGlyph name="afii61664" xMin="-54" yMin="-339" xMax="54" yMax="1613">
      <contour>
        <pt x="-54" y="-339" on="1"/>
        <pt x="-54" y="1613" on="1"/>
        <pt x="54" y="1613" on="1"/>
        <pt x="54" y="-339" on="1"/>
      </contour>
    </TTGlyph>
    <TTGlyph name="asciicircum" xMin="63" yMin="0" xMax="1220" yMax="1470">
      <contour>
        <pt x="63" y="520" on="1"/>
        <pt x="541" y="1470" on="1"/>
        <pt x="685" y="1470" on="1"/>
        <pt x="1220" y="520" on="1"/>
        <pt x="981" y="520" on="1"/>
        <pt x="619" y="1163" on="1"/>
        <pt x="299" y="520" on="1"/>
      </contour>
      <contour>
        <pt x="597" y="0" on="1"/>
      </contour>
    </TTGlyph>
    <TTGlyph name="asciitilde" xMin="88" yMin="0" xMax="1081" yMax="1460">
      <contour>
        <pt x="88" y="551" on="1"/>
        <pt x="88" y="782" on="1"/>
        <pt x="191" y="891" on="0"/>
        <pt x="344" y="891" on="1"/>
        <pt x="413" y="891" on="0"/>
        <pt x="531" y="864" on="0"/>
        <pt x="621" y="827" on="1"/>
        <pt x="689" y="798" on="0"/>
        <pt x="795" y="772" on="0"/>
        <pt x="848" y="772" on="1"/>
        <pt x="903" y="772" on="0"/>
        <pt x="1027" y="838" on="0"/>
        <pt x="1081" y="893" on="1"/>
        <pt x="1081" y="662" on="1"/>
        <pt x="980" y="553" on="0"/>
        <pt x="825" y="553" on="1"/>
        <pt x="748" y="553" on="0"/>
        <pt x="620" y="586" on="0"/>
        <pt x="549" y="616" on="1"/>
        <pt x="472" y="648" on="0"/>
        <pt x="370" y="672" on="0"/>
        <pt x="322" y="672" on="1"/>
        <pt x="269" y="672" on="0"/>
        <pt x="146" y="608" on="0"/>
      </contour>
      <contour>
        <pt x="597" y="0" on="1"/>
      </contour>
      <contour>
        <pt x="555" y="1460" on="1"/>
      </contour>
    </TTGlyph>
    <TTGlyph name="asterisk" xMin="63" yMin="681" xMax="1053" yMax="1742">
      <contour>
        <pt x="688" y="1639" on="1"/>
        <pt x="647" y="1271" on="1"/>
        <pt x="1020" y="1375" on="1"/>
        <pt x="1053" y="1123" on="1"/>
        <pt x="713" y="1099" on="1"/>
        <pt x="936" y="802" on="1"/>
        <pt x="709" y="681" on="1"/>
        <pt x="553" y="994" on="1"/>
        <pt x="416" y="683" on="1"/>
        <pt x="180" y="802" on="1"/>
        <pt x="401" y="1099" on="1"/>
        <pt x="63" y="1125" on="1"/>
        <pt x="102" y="1375" on="1"/>
        <pt x="467" y="1271" on="1"/>
        <pt x="426" y="1639" on="1"/>
      </contour>
      <contour>
        <pt x="795" y="1460" on="1"/>
      </contour>
      <contour>
        <pt x="797" y="1742" on="1"/>
      </contour>
    </TTGlyph>
    <TTGlyph name="backslash" xMin="35" yMin="-658" xMax="837" yMax="1742">
      <contour>
        <pt x="292" y="1638" on="1"/>
        <pt x="837" y="-500" on="1"/>
        <pt x="580" y="-500" on="1"/>
        <pt x="35" y="1638" on="1"/>
      </contour>
      <contour>
        <pt x="390" y="0" on="1"/>
      </contour>
      <contour>
        <pt x="412" y="-658" on="1"/>
      </contour>
      <contour>
        <pt x="495" y="1460" on="1"/>
      </contour>
      <contour>
        <pt x="497" y="1742" on="1"/>
      </contour>
    </TTGlyph>
    <TTGlyph name="bar" xMin="455" yMin="-658" xMax="812" yMax="1742">
      <contour>
        <pt x="455" y="1638" on="1"/>
        <pt x="674" y="1638" on="1"/>
        <pt x="674" y="-500" on="1"/>
        <pt x="455" y="-500" on="1"/>
      </contour>
      <contour>
        <pt x="790" y="0" on="1"/>
      </contour>
      <contour>
        <pt x="812" y="-658" on="1"/>
      </contour>
      <contour>
        <pt x="795" y="1460" on="1"/>
      </contour>
      <contour>
        <pt x="797" y="1742" on="1"/>
      </contour>
    </TTGlyph>
    <TTGlyph name="braceleft" xMin="50" yMin="-658" xMax="714" yMax="1742">
      <contour>
        <pt x="714" y="1413" on="1"/>
        <pt x="636" y="1411" on="0"/>
        <pt x="564" y="1330" on="0"/>
        <pt x="564" y="1242" on="1"/>
        <pt x="564" y="801" on="1"/>
        <pt x="564" y="615" on="0"/>
        <pt x="330" y="579" on="1"/>
        <pt x="330" y="567" on="1"/>
        <pt x="564" y="532" on="0"/>
        <pt x="564" y="346" on="1"/>
        <pt x="564" y="-103" on="1"/>
        <pt x="564" y="-192" on="0"/>
        <pt x="637" y="-273" on="0"/>
        <pt x="714" y="-274" on="1"/>
        <pt x="714" y="-500" on="1"/>
        <pt x="574" y="-500" on="0"/>
        <pt x="389" y="-437" on="0"/>
        <pt x="296" y="-294" on="0"/>
        <pt x="296" y="-161" on="1"/>
        <pt x="296" y="274" on="1"/>
        <pt x="296" y="365" on="0"/>
        <pt x="176" y="453" on="0"/>
        <pt x="50" y="453" on="1"/>
        <pt x="50" y="692" on="1"/>
        <pt x="175" y="692" on="0"/>
        <pt x="296" y="779" on="0"/>
        <pt x="296" y="870" on="1"/>
        <pt x="296" y="1300" on="1"/>
        <pt x="296" y="1430" on="0"/>
        <pt x="386" y="1573" on="0"/>
        <pt x="571" y="1638" on="0"/>
        <pt x="714" y="1638" on="1"/>
      </contour>
      <contour>
        <pt x="190" y="0" on="1"/>
      </contour>
      <contour>
        <pt x="212" y="-658" on="1"/>
      </contour>
      <contour>
        <pt x="195" y="1460" on="1"/>
      </contour>
      <contour>
        <pt x="197" y="1742" on="1"/>
      </contour>
    </TTGlyph>
    <TTGlyph name="braceright" xMin="74" yMin="-658" xMax="738" yMax="1742">
      <contour>
        <pt x="74" y="1638" on="1"/>
        <pt x="218" y="1638" on="0"/>
        <pt x="403" y="1572" on="0"/>
        <pt x="492" y="1430" on="0"/>
        <pt x="492" y="1300" on="1"/>
        <pt x="492" y="870" on="1"/>
        <pt x="492" y="779" on="0"/>
        <pt x="613" y="692" on="0"/>
        <pt x="738" y="692" on="1"/>
        <pt x="738" y="453" on="1"/>
        <pt x="612" y="453" on="0"/>
        <pt x="492" y="365" on="0"/>
        <pt x="492" y="274" on="1"/>
        <pt x="492" y="-161" on="1"/>
        <pt x="492" y="-294" on="0"/>
        <pt x="400" y="-436" on="0"/>
        <pt x="215" y="-500" on="0"/>
        <pt x="74" y="-500" on="1"/>
        <pt x="74" y="-274" on="1"/>
        <pt x="151" y="-273" on="0"/>
        <pt x="224" y="-192" on="0"/>
        <pt x="224" y="-103" on="1"/>
        <pt x="224" y="346" on="1"/>
        <pt x="224" y="532" on="0"/>
        <pt x="458" y="567" on="1"/>
        <pt x="458" y="579" on="1"/>
        <pt x="224" y="615" on="0"/>
        <pt x="224" y="801" on="1"/>
        <pt x="224" y="1242" on="1"/>
        <pt x="224" y="1330" on="0"/>
        <pt x="152" y="1411" on="0"/>
        <pt x="74" y="1413" on="1"/>
      </contour>
      <contour>
        <pt x="590" y="0" on="1"/>
      </contour>
      <contour>
        <pt x="612" y="-658" on="1"/>
      </contour>
      <contour>
        <pt x="555" y="1460" on="1"/>
      </contour>
      <contour>
        <pt x="557" y="1742" on="1"/>
      </contour>
    </TTGlyph>
    <TTGlyph name="bracketleft" xMin="140" yMin="-658" xMax="667" yMax="1742">
      <contour>
        <pt x="624" y="-500" on="1"/>
        <pt x="140" y="-500" on="1"/>
        <pt x="140" y="1638" on="1"/>
        <pt x="624" y="1638" on="1"/>
        <pt x="624" y="1427" on="1"/>
        <pt x="400" y="1427" on="1"/>
        <pt x="400" y="-289" on="1"/>
        <pt x="624" y="-289" on="1"/>
      </contour>
      <contour>
        <pt x="490" y="0" on="1"/>
      </contour>
      <contour>
        <pt x="512" y="-658" on="1"/>
      </contour>
      <contour>
        <pt x="665" y="1460" on="1"/>
      </contour>
      <contour>
        <pt x="667" y="1742" on="1"/>
      </contour>
    </TTGlyph>
    <TTGlyph name="bracketright" xMin="74" yMin="-658" xMax="607" yMax="1742">
      <contour>
        <pt x="74" y="-289" on="1"/>
        <pt x="298" y="-289" on="1"/>
        <pt x="298" y="1427" on="1"/>
        <pt x="74" y="1427" on="1"/>
        <pt x="74" y="1638" on="1"/>
        <pt x="558" y="1638" on="1"/>
        <pt x="558" y="-500" on="1"/>
        <pt x="74" y="-500" on="1"/>
      </contour>
      <contour>
        <pt x="190" y="0" on="1"/>
      </contour>
      <contour>
        <pt x="212" y="-658" on="1"/>
      </contour>
      <contour>
        <pt x="605" y="1460" on="1"/>
      </contour>
      <contour>
        <pt x="607" y="1742" on="1"/>
      </contour>
    </TTGlyph>
    <TTGlyph name="colon" xMin="117" yMin="-27" xMax="467" yMax="1150">
      <contour>
        <pt x="293" y="1139" on="1"/>
        <pt x="375" y="1139" on="0"/>
        <pt x="467" y="1052" on="0"/>
        <pt x="467" y="969" on="1"/>
        <pt x="467" y="887" on="0"/>
        <pt x="374" y="799" on="0"/>
        <pt x="293" y="799" on="1"/>
        <pt x="210" y="799" on="0"/>
        <pt x="117" y="887" on="0"/>
        <pt x="117" y="969" on="1"/>
        <pt x="117" y="1052" on="0"/>
        <pt x="208" y="1139" on="0"/>
      </contour>
      <contour>
        <pt x="293" y="313" on="1"/>
        <pt x="375" y="313" on="0"/>
        <pt x="467" y="226" on="0"/>
        <pt x="467" y="143" on="1"/>
        <pt x="467" y="61" on="0"/>
        <pt x="372" y="-27" on="0"/>
        <pt x="293" y="-27" on="1"/>
        <pt x="211" y="-27" on="0"/>
        <pt x="117" y="61" on="0"/>
        <pt x="117" y="143" on="1"/>
        <pt x="117" y="226" on="0"/>
        <pt x="208" y="313" on="0"/>
      </contour>
      <contour>
        <pt x="296" y="1150" on="1"/>
      </contour>
    </TTGlyph>
    <TTGlyph name="comma" xMin="63" yMin="-264" xMax="459" yMax="238">
      <contour>
        <pt x="459" y="215" on="1"/>
        <pt x="407" y="14" on="0"/>
        <pt x="283" y="-264" on="1"/>
        <pt x="63" y="-264" on="1"/>
        <pt x="131" y="22" on="0"/>
        <pt x="164" y="238" on="1"/>
        <pt x="444" y="238" on="1"/>
      </contour>
      <contour>
        <pt x="90" y="0" on="1"/>
      </contour>
    </TTGlyph>
    <TTGlyph name="divide" xMin="88" yMin="0" xMax="1081" yMax="1460">
      <contour>
        <pt x="584" y="1223" on="1"/>
        <pt x="650" y="1223" on="0"/>
        <pt x="723" y="1144" on="0"/>
        <pt x="723" y="1071" on="1"/>
        <pt x="723" y="999" on="0"/>
        <pt x="646" y="920" on="0"/>
        <pt x="584" y="920" on="1"/>
        <pt x="520" y="920" on="0"/>
        <pt x="444" y="999" on="0"/>
        <pt x="444" y="1071" on="1"/>
        <pt x="444" y="1145" on="0"/>
        <pt x="516" y="1223" on="0"/>
      </contour>
      <contour>
        <pt x="88" y="612" on="1"/>
        <pt x="88" y="831" on="1"/>
        <pt x="1081" y="831" on="1"/>
        <pt x="1081" y="612" on="1"/>
      </contour>
      <contour>
        <pt x="584" y="524" on="1"/>
        <pt x="650" y="524" on="0"/>
        <pt x="723" y="446" on="0"/>
        <pt x="723" y="373" on="1"/>
        <pt x="723" y="301" on="0"/>
        <pt x="646" y="221" on="0"/>
        <pt x="584" y="221" on="1"/>
        <pt x="519" y="221" on="0"/>
        <pt x="444" y="301" on="0"/>
        <pt x="444" y="373" on="1"/>
        <pt x="444" y="446" on="0"/>
        <pt x="516" y="524" on="0"/>
      </contour>
      <contour>
        <pt x="597" y="0" on="1"/>
      </contour>
      <contour>
        <pt x="555" y="1460" on="1"/>
      </contour>
    </TTGlyph>
    <TTGlyph name="eight" xMin="72" yMin="-20" xMax="1098" yMax="1481">
      <contour>
        <pt x="791" y="772" on="1"/>
        <pt x="950" y="688" on="0"/>
        <pt x="1098" y="495" on="0"/>
        <pt x="1098" y="379" on="1"/>
        <pt x="1098" y="200" on="0"/>
        <pt x="817" y="-20" on="0"/>
        <pt x="586" y="-20" on="1"/>
        <pt x="341" y="-20" on="0"/>
        <pt x="72" y="188" on="0"/>
        <pt x="72" y="371" on="1"/>
        <pt x="72" y="499" on="0"/>
        <pt x="212" y="695" on="0"/>
        <pt x="352" y="764" on="1"/>
        <pt x="231" y="839" on="0"/>
        <pt x="117" y="1019" on="0"/>
        <pt x="117" y="1130" on="1"/>
        <pt x="117" y="1237" on="0"/>
        <pt x="239" y="1397" on="0"/>
        <pt x="457" y="1481" on="0"/>
        <pt x="586" y="1481" on="1"/>
        <pt x="793" y="1481" on="0"/>
        <pt x="1053" y="1291" on="0"/>
        <pt x="1053" y="1128" on="1"/>
        <pt x="1053" y="1014" on="0"/>
        <pt x="922" y="836" on="0"/>
      </contour>
      <contour>
        <pt x="586" y="901" on="1"/>
        <pt x="681" y="945" on="0"/>
        <pt x="762" y="1042" on="0"/>
        <pt x="762" y="1106" on="1"/>
        <pt x="762" y="1173" on="0"/>
        <pt x="664" y="1255" on="0"/>
        <pt x="584" y="1255" on="1"/>
        <pt x="505" y="1255" on="0"/>
        <pt x="408" y="1173" on="0"/>
        <pt x="408" y="1106" on="1"/>
        <pt x="408" y="1044" on="0"/>
        <pt x="493" y="946" on="0"/>
      </contour>
      <contour>
        <pt x="571" y="637" on="1"/>
        <pt x="464" y="588" on="0"/>
        <pt x="358" y="464" on="0"/>
        <pt x="358" y="389" on="1"/>
        <pt x="358" y="306" on="0"/>
        <pt x="476" y="207" on="0"/>
        <pt x="582" y="207" on="1"/>
        <pt x="692" y="207" on="0"/>
        <pt x="811" y="302" on="0"/>
        <pt x="811" y="387" on="1"/>
        <pt x="811" y="449" on="0"/>
        <pt x="717" y="561" on="0"/>
        <pt x="598" y="623" on="1"/>
      </contour>
    </TTGlyph>
    <TTGlyph name="ellipsis" xMin="117" yMin="-27" xMax="1634" yMax="313">
      <contour>
        <pt x="293" y="313" on="1"/>
        <pt x="375" y="313" on="0"/>
        <pt x="467" y="226" on="0"/>
        <pt x="467" y="143" on="1"/>
        <pt x="467" y="61" on="0"/>
        <pt x="372" y="-27" on="0"/>
        <pt x="293" y="-27" on="1"/>
        <pt x="211" y="-27" on="0"/>
        <pt x="117" y="61" on="0"/>
        <pt x="117" y="143" on="1"/>
        <pt x="117" y="226" on="0"/>
        <pt x="208" y="313" on="0"/>
      </contour>
      <contour>
        <pt x="877" y="313" on="1"/>
        <pt x="959" y="313" on="0"/>
        <pt x="1051" y="226" on="0"/>
        <pt x="1051" y="143" on="1"/>
        <pt x="1051" y="61" on="0"/>
        <pt x="956" y="-27" on="0"/>
        <pt x="877" y="-27" on="1"/>
        <pt x="795" y="-27" on="0"/>
        <pt x="700" y="61" on="0"/>
        <pt x="700" y="143" on="1"/>
        <pt x="700" y="226" on="0"/>
        <pt x="792" y="313" on="0"/>
      </contour>
      <contour>
        <pt x="1460" y="313" on="1"/>
        <pt x="1542" y="313" on="0"/>
        <pt x="1634" y="226" on="0"/>
        <pt x="1634" y="143" on="1"/>
        <pt x="1634" y="61" on="0"/>
        <pt x="1539" y="-27" on="0"/>
        <pt x="1460" y="-27" on="1"/>
        <pt x="1378" y="-27" on="0"/>
        <pt x="1284" y="61" on="0"/>
        <pt x="1284" y="143" on="1"/>
        <pt x="1284" y="226" on="0"/>
        <pt x="1375" y="313" on="0"/>
      </contour>
    </TTGlyph>
    <TTGlyph name="emdash" xMin="82" yMin="0" xMax="1966" yMax="1150">
      <contour>
        <pt x="82" y="424" on="1"/>
        <pt x="82" y="674" on="1"/>
        <pt x="1966" y="674" on="1"/>
        <pt x="1966" y="424" on="1"/>
      </contour>
      <contour>
        <pt x="290" y="0" on="1"/>
      </contour>
      <contour>
        <pt x="296" y="1150" on="1"/>
      </contour>
    </TTGlyph>
    <TTGlyph name="endash" xMin="82" yMin="0" xMax="942" yMax="1150">
      <contour>
        <pt x="82" y="424" on="1"/>
        <pt x="82" y="674" on="1"/>
        <pt x="942" y="674" on="1"/>
        <pt x="942" y="424" on="1"/>
      </contour>
      <contour>
        <pt x="290" y="0" on="1"/>
      </contour>
      <contour>
        <pt x="296" y="1150" on="1"/>
      </contour>
    </TTGlyph>
    <TTGlyph name="equal" xMin="88" yMin="0" xMax="1081" yMax="1460">
      <contour>
        <pt x="88" y="807" on="1"/>
        <pt x="88" y="1024" on="1"/>
        <pt x="1081" y="1024" on="1"/>
        <pt x="1081" y="807" on="1"/>
      </contour>
      <contour>
        <pt x="88" y="418" on="1"/>
        <pt x="88" y="637" on="1"/>
        <pt x="1081" y="637" on="1"/>
        <pt x="1081" y="418" on="1"/>
      </contour>
      <contour>
        <pt x="597" y="0" on="1"/>
      </contour>
      <contour>
        <pt x="555" y="1460" on="1"/>
      </contour>
    </TTGlyph>
    <TTGlyph name="exclam" xMin="138" yMin="-27" xMax="488" yMax="1462">
      <contour>
        <pt x="437" y="485" on="1"/>
        <pt x="193" y="485" on="1"/>
        <pt x="142" y="1462" on="1"/>
        <pt x="488" y="1462" on="1"/>
      </contour>
      <contour>
        <pt x="314" y="313" on="1"/>
        <pt x="396" y="313" on="0"/>
        <pt x="488" y="226" on="0"/>
        <pt x="488" y="143" on="1"/>
        <pt x="488" y="61" on="0"/>
        <pt x="393" y="-27" on="0"/>
        <pt x="314" y="-27" on="1"/>
        <pt x="232" y="-27" on="0"/>
        <pt x="138" y="61" on="0"/>
        <pt x="138" y="143" on="1"/>
        <pt x="138" y="226" on="0"/>
        <pt x="229" y="313" on="0"/>
      </contour>
    </TTGlyph>
    <TTGlyph name="five" xMin="100" yMin="-20" xMax="1077" yMax="1462">
      <contour>
        <pt x="100" y="59" on="1"/>
        <pt x="100" y="326" on="1"/>
        <pt x="178" y="284" on="0"/>
        <pt x="392" y="231" on="0"/>
        <pt x="483" y="231" on="1"/>
        <pt x="766" y="231" on="0"/>
        <pt x="766" y="463" on="1"/>
        <pt x="766" y="684" on="0"/>
        <pt x="473" y="684" on="1"/>
        <pt x="376" y="684" on="0"/>
        <pt x="252" y="651" on="1"/>
        <pt x="129" y="717" on="1"/>
        <pt x="184" y="1462" on="1"/>
        <pt x="977" y="1462" on="1"/>
        <pt x="977" y="1200" on="1"/>
        <pt x="455" y="1200" on="1"/>
        <pt x="428" y="913" on="1"/>
        <pt x="519" y="934" on="0"/>
        <pt x="614" y="934" on="1"/>
        <pt x="823" y="934" on="0"/>
        <pt x="1077" y="696" on="0"/>
        <pt x="1077" y="489" on="1"/>
        <pt x="1077" y="245" on="0"/>
        <pt x="775" y="-20" on="0"/>
        <pt x="494" y="-20" on="1"/>
        <pt x="250" y="-20" on="0"/>
      </contour>
    </TTGlyph>
    <TTGlyph name="four" xMin="35" yMin="0" xMax="1137" yMax="1462">
      <contour>
        <pt x="1137" y="303" on="1"/>
        <pt x="961" y="303" on="1"/>
        <pt x="961" y="0" on="1"/>
        <pt x="659" y="0" on="1"/>
        <pt x="659" y="303" on="1"/>
        <pt x="35" y="303" on="1"/>
        <pt x="35" y="518" on="1"/>
        <pt x="676" y="1462" on="1"/>
        <pt x="961" y="1462" on="1"/>
        <pt x="961" y="543" on="1"/>
        <pt x="1137" y="543" on="1"/>
      </contour>
      <contour>
        <pt x="659" y="543" on="1"/>
        <pt x="659" y="791" on="1"/>
        <pt x="659" y="852" on="0"/>
        <pt x="668" y="1060" on="0"/>
        <pt x="672" y="1108" on="1"/>
        <pt x="664" y="1108" on="1"/>
        <pt x="626" y="1024" on="0"/>
        <pt x="575" y="948" on="1"/>
        <pt x="307" y="543" on="1"/>
      </contour>
    </TTGlyph>
    <TTGlyph name="glyph00106" xMin="60" yMin="-24" xMax="2550" yMax="1701">
      <component glyphName="uni0D15" x="0" y="0" flags="0x204"/>
      <component glyphName="uni0D4D" x="2358" y="0" flags="0x4"/>
    </TTGlyph>
    <TTGlyph name="glyph00107" xMin="75" yMin="-24" xMax="2459" yMax="1701">
      <component glyphName="uni0D16" x="0" y="0" flags="0x204"/>
      <component glyphName="uni0D4D" x="2267" y="0" flags="0x4"/>
    </TTGlyph>
    <TTGlyph name="glyph00108" xMin="75" yMin="-24" xMax="2188" yMax="1701">
      <component glyphName="uni0D17" x="0" y="0" flags="0x204"/>
      <component glyphName="uni0D4D" x="1996" y="0" flags="0x4"/>
    </TTGlyph>
    <TTGlyph name="glyph00109" xMin="60" yMin="0" xMax="3190" yMax="1701">
      <component glyphName="uni0D18" x="0" y="0" flags="0x204"/>
      <component glyphName="uni0D4D" x="2998" y="0" flags="0x4"/>
    </TTGlyph>
    <TTGlyph name="glyph00110" xMin="75" yMin="-24" xMax="2605" yMax="1701">
      <component glyphName="uni0D19" x="0" y="0" flags="0x204"/>
      <component glyphName="uni0D4D" x="2413" y="0" flags="0x4"/>
    </TTGlyph>
    <TTGlyph name="glyph00111" xMin="40" yMin="0" xMax="2211" yMax="1701">
      <component glyphName="uni0D1A" x="0" y="0" flags="0x204"/>
      <component glyphName="uni0D4D" x="2019" y="0" flags="0x4"/>
    </TTGlyph>
    <TTGlyph name="glyph00112" xMin="40" yMin="-24" xMax="3142" yMax="1701">
      <component glyphName="uni0D1B" x="0" y="0" flags="0x204"/>
      <component glyphName="uni0D4D" x="2950" y="0" flags="0x4"/>
    </TTGlyph>
    <TTGlyph name="glyph00113" xMin="68" yMin="-24" xMax="2254" yMax="1701">
      <component glyphName="uni0D1C" x="0" y="0" flags="0x204"/>
      <component glyphName="uni0D4D" x="2062" y="0" flags="0x4"/>
    </TTGlyph>
    <TTGlyph name="glyph00114" xMin="75" yMin="-24" xMax="3930" yMax="1701">
      <component glyphName="uni0D1D" x="0" y="0" flags="0x204"/>
      <component glyphName="uni0D4D" x="3738" y="0" flags="0x4"/>
    </TTGlyph>
    <TTGlyph name="glyph00115" xMin="75" yMin="-24" xMax="3507" yMax="1701">
      <component glyphName="uni0D1E" x="0" y="0" flags="0x204"/>
      <component glyphName="uni0D4D" x="3315" y="0" flags="0x4"/>
    </TTGlyph>
    <TTGlyph name="glyph00116" xMin="28" yMin="-24" xMax="1445" yMax="1701">
      <component glyphName="uni0D1F" x="0" y="0" flags="0x204"/>
      <component glyphName="uni0D4D" x="1253" y="0" flags="0x4"/>
    </TTGlyph>
    <TTGlyph name="glyph00117" xMin="75" yMin="-24" xMax="1655" yMax="1701">
      <component glyphName="uni0D20" x="0" y="0" flags="0x204"/>
      <component glyphName="uni0D4D" x="1463" y="0" flags="0x4"/>
    </TTGlyph>
    <TTGlyph name="glyph00118" xMin="75" yMin="-24" xMax="2924" yMax="1701">
      <component glyphName="uni0D21" x="0" y="0" flags="0x204"/>
      <component glyphName="uni0D4D" x="2732" y="0" flags="0x4"/>
    </TTGlyph>
    <TTGlyph name="glyph00119" xMin="75" yMin="-24" xMax="3206" yMax="1701">
      <component glyphName="uni0D22" x="0" y="0" flags="0x204"/>
      <component glyphName="uni0D4D" x="3014" y="0" flags="0x4"/>
    </TTGlyph>
    <TTGlyph name="glyph00120" xMin="75" yMin="-24" xMax="3233" yMax="1701">
      <component glyphName="uni0D23" x="0" y="0" flags="0x204"/>
      <component glyphName="uni0D4D" x="3041" y="0" flags="0x4"/>
    </TTGlyph>
    <TTGlyph name="glyph00121" xMin="75" yMin="-24" xMax="2513" yMax="1701">
      <component glyphName="uni0D24" x="0" y="0" flags="0x204"/>
      <component glyphName="uni0D4D" x="2321" y="0" flags="0x4"/>
    </TTGlyph>
    <TTGlyph name="glyph00122" xMin="130" yMin="0" xMax="2204" yMax="1701">
      <component glyphName="uni0D25" x="0" y="0" flags="0x204"/>
      <component glyphName="uni0D4D" x="2012" y="0" flags="0x4"/>
    </TTGlyph>
    <TTGlyph name="glyph00123" xMin="93" yMin="-24" xMax="1652" yMax="1701">
      <component glyphName="uni0D26" x="0" y="0" flags="0x204"/>
      <component glyphName="uni0D4D" x="1460" y="0" flags="0x4"/>
    </TTGlyph>
    <TTGlyph name="glyph00124" xMin="75" yMin="-24" xMax="2226" yMax="1701">
      <component glyphName="uni0D27" x="0" y="0" flags="0x204"/>
      <component glyphName="uni0D4D" x="2034" y="0" flags="0x4"/>
    </TTGlyph>
    <TTGlyph name="glyph00125" xMin="75" yMin="-24" xMax="2226" yMax="1701">
      <component glyphName="uni0D28" x="0" y="0" flags="0x204"/>
      <component glyphName="uni0D4D" x="2034" y="0" flags="0x4"/>
    </TTGlyph>
    <TTGlyph name="glyph00126" xMin="60" yMin="-24" xMax="2187" yMax="1701">
      <component glyphName="uni0D2A" x="0" y="0" flags="0x204"/>
      <component glyphName="uni0D4D" x="1995" y="0" flags="0x4"/>
    </TTGlyph>
    <TTGlyph name="glyph00127" xMin="60" yMin="-24" xMax="2753" yMax="1701">
      <component glyphName="uni0D2B" x="0" y="0" flags="0x204"/>
      <component glyphName="uni0D4D" x="2561" y="0" flags="0x4"/>
    </TTGlyph>
    <TTGlyph name="glyph00128" xMin="75" yMin="-24" xMax="3142" yMax="1701">
      <component glyphName="uni0D2C" x="0" y="0" flags="0x204"/>
      <component glyphName="uni0D4D" x="2950" y="0" flags="0x4"/>
    </TTGlyph>
    <TTGlyph name="glyph00129" xMin="93" yMin="-24" xMax="1699" yMax="1701">
      <component glyphName="uni0D2D" x="0" y="0" flags="0x204"/>
      <component glyphName="uni0D4D" x="1507" y="0" flags="0x4"/>
    </TTGlyph>
    <TTGlyph name="glyph00130" xMin="114" yMin="0" xMax="1858" yMax="1701">
      <component glyphName="uni0D2E" x="0" y="0" flags="0x204"/>
      <component glyphName="uni0D4D" x="1666" y="0" flags="0x4"/>
    </TTGlyph>
    <TTGlyph name="glyph00131" xMin="75" yMin="-24" xMax="2537" yMax="1701">
      <component glyphName="uni0D2F" x="0" y="0" flags="0x204"/>
      <component glyphName="uni0D4D" x="2345" y="0" flags="0x4"/>
    </TTGlyph>
    <TTGlyph name="glyph00132" xMin="75" yMin="-24" xMax="1870" yMax="1701">
      <component glyphName="uni0D30" x="0" y="0" flags="0x204"/>
      <component glyphName="uni0D4D" x="1678" y="0" flags="0x4"/>
    </TTGlyph>
    <TTGlyph name="glyph00133" xMin="75" yMin="-24" xMax="1713" yMax="1701">
      <component glyphName="uni0D31" x="0" y="0" flags="0x204"/>
      <component glyphName="uni0D4D" x="1521" y="0" flags="0x4"/>
    </TTGlyph>
    <TTGlyph name="glyph00134" xMin="118" yMin="0" xMax="2114" yMax="1711">
      <component glyphName="uni0D32" x="0" y="0" flags="0x204"/>
      <component glyphName="uni0D4D" x="1922" y="10" flags="0x4"/>
    </TTGlyph>
    <TTGlyph name="glyph00135" xMin="76" yMin="-412" xMax="1797" yMax="1701">
      <component glyphName="uni0D33" x="0" y="0" flags="0x204"/>
      <component glyphName="uni0D4D" x="1605" y="0" flags="0x4"/>
    </TTGlyph>
    <TTGlyph name="glyph00136" xMin="70" yMin="-24" xMax="1694" yMax="1701">
      <component glyphName="uni0D34" x="0" y="0" flags="0x204"/>
      <component glyphName="uni0D4D" x="1502" y="0" flags="0x4"/>
    </TTGlyph>
    <TTGlyph name="glyph00137" xMin="75" yMin="-24" xMax="2361" yMax="1701">
      <component glyphName="uni0D35" x="0" y="0" flags="0x204"/>
      <component glyphName="uni0D4D" x="2169" y="0" flags="0x4"/>
    </TTGlyph>
    <TTGlyph name="glyph00138" xMin="75" yMin="-24" xMax="2541" yMax="1701">
      <component glyphName="uni0D36" x="0" y="0" flags="0x204"/>
      <component glyphName="uni0D4D" x="2349" y="0" flags="0x4"/>
    </TTGlyph>
    <TTGlyph name="glyph00139" xMin="60" yMin="-24" xMax="2814" yMax="1701">
      <component glyphName="uni0D37" x="0" y="0" flags="0x204"/>
      <component glyphName="uni0D4D" x="2622" y="0" flags="0x4"/>
    </TTGlyph>
    <TTGlyph name="glyph00140" xMin="75" yMin="-24" xMax="2924" yMax="1701">
      <component glyphName="uni0D38" x="0" y="0" flags="0x204"/>
      <component glyphName="uni0D4D" x="2732" y="0" flags="0x4"/>
    </TTGlyph>
    <TTGlyph name="glyph00141" xMin="60" yMin="-24" xMax="2883" yMax="1701">
      <component glyphName="uni0D39" x="0" y="0" flags="0x204"/>
      <component glyphName="uni0D4D" x="2691" y="0" flags="0x4"/>
    </TTGlyph>
    <TTGlyph name="glyph00142" xMin="60" yMin="-24" xMax="4089" yMax="1701">
      <component glyphName="glyph00152" x="0" y="0" flags="0x204"/>
      <component glyphName="uni0D4D" x="3897" y="0" flags="0x4"/>
    </TTGlyph>
    <TTGlyph name="glyph00143" xMin="-1633" yMin="-690" xMax="-93" yMax="162">
      <component glyphName="glyph00144" x="-1663" y="0" flags="0x4"/>
    </TTGlyph>
    <TTGlyph name="glyph00144" xMin="30" yMin="-690" xMax="1570" yMax="162">
      <contour>
        <pt x="1181" y="45" on="1"/>
        <pt x="1372" y="162" on="1"/>
        <pt x="1474" y="55" on="0"/>
        <pt x="1570" y="-166" on="0"/>
        <pt x="1570" y="-289" on="1"/>
        <pt x="1570" y="-472" on="0"/>
        <pt x="1351" y="-690" on="0"/>
        <pt x="1161" y="-690" on="1"/>
        <pt x="984" y="-690" on="0"/>
        <pt x="780" y="-505" on="0"/>
        <pt x="780" y="-311" on="1"/>
        <pt x="780" y="-304" on="1"/>
        <pt x="780" y="-153" on="0"/>
        <pt x="657" y="-24" on="0"/>
        <pt x="529" y="-24" on="1"/>
        <pt x="447" y="-24" on="0"/>
        <pt x="314" y="-99" on="0"/>
        <pt x="284" y="-166" on="1"/>
        <pt x="354" y="-139" on="0"/>
        <pt x="425" y="-139" on="1"/>
        <pt x="560" y="-139" on="0"/>
        <pt x="705" y="-276" on="0"/>
        <pt x="705" y="-401" on="1"/>
        <pt x="705" y="-540" on="0"/>
        <pt x="537" y="-690" on="0"/>
        <pt x="380" y="-690" on="1"/>
        <pt x="218" y="-690" on="0"/>
        <pt x="30" y="-484" on="0"/>
        <pt x="30" y="-309" on="1"/>
        <pt x="30" y="-174" on="0"/>
        <pt x="161" y="40" on="0"/>
        <pt x="401" y="161" on="0"/>
        <pt x="546" y="161" on="1"/>
        <pt x="637" y="161" on="0"/>
        <pt x="765" y="141" on="0"/>
        <pt x="894" y="79" on="0"/>
        <pt x="982" y="-14" on="0"/>
        <pt x="1033" y="-164" on="0"/>
        <pt x="1033" y="-274" on="1"/>
        <pt x="1033" y="-296" on="1"/>
        <pt x="1033" y="-352" on="0"/>
        <pt x="1040" y="-415" on="0"/>
        <pt x="1072" y="-474" on="0"/>
        <pt x="1128" y="-503" on="0"/>
        <pt x="1169" y="-503" on="1"/>
        <pt x="1244" y="-503" on="0"/>
        <pt x="1315" y="-403" on="0"/>
        <pt x="1315" y="-296" on="1"/>
        <pt x="1315" y="-103" on="0"/>
      </contour>
      <contour>
        <pt x="260" y="-340" on="1"/>
        <pt x="260" y="-427" on="0"/>
        <pt x="324" y="-520" on="0"/>
        <pt x="378" y="-520" on="1"/>
        <pt x="428" y="-520" on="0"/>
        <pt x="484" y="-467" on="0"/>
        <pt x="484" y="-416" on="1"/>
        <pt x="484" y="-364" on="0"/>
        <pt x="426" y="-309" on="0"/>
        <pt x="370" y="-309" on="1"/>
        <pt x="315" y="-309" on="0"/>
      </contour>
    </TTGlyph>
    <TTGlyph name="glyph00145" xMin="-619" yMin="-505" xMax="432" yMax="1150">
      <contour>
        <pt x="-308" y="-110" on="1"/>
        <pt x="-311" y="-131" on="0"/>
        <pt x="-311" y="-148" on="1"/>
        <pt x="-311" y="-218" on="0"/>
        <pt x="-208" y="-290" on="0"/>
        <pt x="-118" y="-290" on="1"/>
        <pt x="-22" y="-290" on="0"/>
        <pt x="90" y="-209" on="0"/>
        <pt x="130" y="-35" on="0"/>
        <pt x="130" y="145" on="1"/>
        <pt x="130" y="1150" on="1"/>
        <pt x="432" y="1150" on="1"/>
        <pt x="432" y="148" on="1"/>
        <pt x="432" y="-115" on="0"/>
        <pt x="335" y="-357" on="0"/>
        <pt x="92" y="-505" on="0"/>
        <pt x="-119" y="-505" on="1"/>
        <pt x="-365" y="-505" on="0"/>
        <pt x="-619" y="-332" on="0"/>
        <pt x="-619" y="-163" on="1"/>
        <pt x="-619" y="-123" on="0"/>
        <pt x="-612" y="-90" on="1"/>
      </contour>
    </TTGlyph>
    <TTGlyph name="glyph00146" xMin="-330" yMin="-363" xMax="432" yMax="1150">
      <contour>
        <pt x="432" y="1150" on="1"/>
        <pt x="432" y="-363" on="1"/>
        <pt x="-330" y="-363" on="1"/>
        <pt x="-330" y="-144" on="1"/>
        <pt x="130" y="-144" on="1"/>
        <pt x="130" y="1150" on="1"/>
      </contour>
    </TTGlyph>
    <TTGlyph name="glyph00147" xMin="80" yMin="-406" xMax="763" yMax="1150">
      <contour>
        <pt x="633" y="1150" on="1"/>
        <pt x="508" y="884" on="0"/>
        <pt x="382" y="402" on="0"/>
        <pt x="382" y="151" on="1"/>
        <pt x="382" y="-19" on="0"/>
        <pt x="492" y="-183" on="0"/>
        <pt x="622" y="-183" on="1"/>
        <pt x="683" y="-183" on="0"/>
        <pt x="737" y="-175" on="1"/>
        <pt x="763" y="-390" on="1"/>
        <pt x="704" y="-406" on="0"/>
        <pt x="593" y="-406" on="1"/>
        <pt x="340" y="-406" on="0"/>
        <pt x="80" y="-129" on="0"/>
        <pt x="80" y="145" on="1"/>
        <pt x="80" y="391" on="0"/>
        <pt x="190" y="845" on="0"/>
        <pt x="319" y="1150" on="1"/>
      </contour>
    </TTGlyph>
    <TTGlyph name="glyph00148" xMin="60" yMin="-24" xMax="3337" yMax="1178">
      <contour>
        <pt x="851" y="67" on="1"/>
        <pt x="774" y="21" on="0"/>
        <pt x="606" y="-24" on="0"/>
        <pt x="474" y="-24" on="1"/>
        <pt x="276" y="-24" on="0"/>
        <pt x="60" y="161" on="0"/>
        <pt x="60" y="330" on="1"/>
        <pt x="60" y="499" on="0"/>
        <pt x="338" y="706" on="0"/>
        <pt x="636" y="710" on="1"/>
        <pt x="671" y="934" on="0"/>
        <pt x="960" y="1178" on="0"/>
        <pt x="1188" y="1178" on="1"/>
        <pt x="1420" y="1178" on="0"/>
        <pt x="1701" y="941" on="0"/>
        <pt x="1736" y="711" on="1"/>
        <pt x="1914" y="711" on="1"/>
        <pt x="1984" y="934" on="0"/>
        <pt x="2369" y="1178" on="0"/>
        <pt x="2648" y="1178" on="1"/>
        <pt x="2975" y="1178" on="0"/>
        <pt x="3337" y="849" on="0"/>
        <pt x="3337" y="573" on="1"/>
        <pt x="3337" y="396" on="0"/>
        <pt x="3189" y="113" on="0"/>
        <pt x="3017" y="-24" on="1"/>
        <pt x="2821" y="132" on="1"/>
        <pt x="2943" y="252" on="0"/>
        <pt x="3029" y="449" on="0"/>
        <pt x="3029" y="571" on="1"/>
        <pt x="3029" y="751" on="0"/>
        <pt x="2818" y="959" on="0"/>
        <pt x="2625" y="959" on="1"/>
        <pt x="2478" y="959" on="0"/>
        <pt x="2258" y="832" on="0"/>
        <pt x="2197" y="711" on="1"/>
        <pt x="2265" y="711" on="1"/>
        <pt x="2446" y="711" on="0"/>
        <pt x="2656" y="621" on="0"/>
        <pt x="2757" y="466" on="0"/>
        <pt x="2757" y="347" on="1"/>
        <pt x="2757" y="174" on="0"/>
        <pt x="2534" y="-24" on="0"/>
        <pt x="2338" y="-24" on="1"/>
        <pt x="2123" y="-24" on="0"/>
        <pt x="1878" y="220" on="0"/>
        <pt x="1878" y="441" on="1"/>
        <pt x="1878" y="469" on="1"/>
        <pt x="1878" y="483" on="0"/>
        <pt x="1879" y="496" on="1"/>
        <pt x="1742" y="496" on="1"/>
        <pt x="1720" y="243" on="0"/>
        <pt x="1434" y="-24" on="0"/>
        <pt x="1190" y="-24" on="1"/>
        <pt x="985" y="-24" on="0"/>
      </contour>
      <contour>
        <pt x="931" y="711" on="1"/>
        <pt x="1441" y="711" on="1"/>
        <pt x="1419" y="837" on="0"/>
        <pt x="1292" y="963" on="0"/>
        <pt x="1187" y="963" on="1"/>
        <pt x="1081" y="963" on="0"/>
        <pt x="953" y="837" on="0"/>
      </contour>
      <contour>
        <pt x="1448" y="496" on="1"/>
        <pt x="925" y="496" on="1"/>
        <pt x="939" y="343" on="0"/>
        <pt x="1069" y="191" on="0"/>
        <pt x="1185" y="191" on="1"/>
        <pt x="1300" y="191" on="0"/>
        <pt x="1433" y="345" on="0"/>
      </contour>
      <contour>
        <pt x="2149" y="496" on="1"/>
        <pt x="2148" y="470" on="1"/>
        <pt x="2143" y="330" on="0"/>
        <pt x="2236" y="180" on="0"/>
        <pt x="2334" y="180" on="1"/>
        <pt x="2396" y="180" on="0"/>
        <pt x="2467" y="255" on="0"/>
        <pt x="2467" y="322" on="1"/>
        <pt x="2467" y="384" on="0"/>
        <pt x="2414" y="458" on="0"/>
        <pt x="2313" y="496" on="0"/>
        <pt x="2194" y="496" on="1"/>
      </contour>
      <contour>
        <pt x="700" y="237" on="1"/>
        <pt x="671" y="292" on="0"/>
        <pt x="636" y="422" on="0"/>
        <pt x="631" y="496" on="1"/>
        <pt x="470" y="497" on="0"/>
        <pt x="349" y="408" on="0"/>
        <pt x="349" y="336" on="1"/>
        <pt x="349" y="261" on="0"/>
        <pt x="433" y="189" on="0"/>
        <pt x="525" y="189" on="1"/>
        <pt x="616" y="189" on="0"/>
      </contour>
    </TTGlyph>
    <TTGlyph name="glyph00149" xMin="60" yMin="-24" xMax="4056" yMax="1178">
      <contour>
        <pt x="851" y="67" on="1"/>
        <pt x="774" y="21" on="0"/>
        <pt x="606" y="-24" on="0"/>
        <pt x="474" y="-24" on="1"/>
        <pt x="276" y="-24" on="0"/>
        <pt x="60" y="161" on="0"/>
        <pt x="60" y="330" on="1"/>
        <pt x="60" y="499" on="0"/>
        <pt x="338" y="706" on="0"/>
        <pt x="636" y="710" on="1"/>
        <pt x="671" y="934" on="0"/>
        <pt x="960" y="1178" on="0"/>
        <pt x="1188" y="1178" on="1"/>
        <pt x="1420" y="1178" on="0"/>
        <pt x="1701" y="941" on="0"/>
        <pt x="1736" y="711" on="1"/>
        <pt x="1899" y="711" on="1"/>
        <pt x="1947" y="934" on="0"/>
        <pt x="2316" y="1178" on="0"/>
        <pt x="2615" y="1178" on="1"/>
        <pt x="2816" y="1178" on="0"/>
        <pt x="2983" y="1107" on="1"/>
        <pt x="3149" y="1178" on="0"/>
        <pt x="3364" y="1178" on="1"/>
        <pt x="3584" y="1178" on="0"/>
        <pt x="3896" y="1031" on="0"/>
        <pt x="4056" y="753" on="0"/>
        <pt x="4056" y="573" on="1"/>
        <pt x="4056" y="394" on="0"/>
        <pt x="3909" y="110" on="0"/>
        <pt x="3736" y="-24" on="1"/>
        <pt x="3540" y="132" on="1"/>
        <pt x="3660" y="251" on="0"/>
        <pt x="3748" y="449" on="0"/>
        <pt x="3748" y="572" on="1"/>
        <pt x="3748" y="758" on="0"/>
        <pt x="3531" y="970" on="0"/>
        <pt x="3341" y="970" on="1"/>
        <pt x="3282" y="970" on="0"/>
        <pt x="3227" y="965" on="1"/>
        <pt x="3337" y="869" on="0"/>
        <pt x="3455" y="615" on="0"/>
        <pt x="3455" y="469" on="1"/>
        <pt x="3455" y="225" on="0"/>
        <pt x="3206" y="-24" on="0"/>
        <pt x="2966" y="-24" on="1"/>
        <pt x="2730" y="-24" on="0"/>
        <pt x="2475" y="232" on="0"/>
        <pt x="2475" y="471" on="1"/>
        <pt x="2475" y="613" on="0"/>
        <pt x="2605" y="864" on="0"/>
        <pt x="2730" y="965" on="1"/>
        <pt x="2684" y="970" on="0"/>
        <pt x="2644" y="970" on="1"/>
        <pt x="2427" y="970" on="0"/>
        <pt x="2193" y="762" on="0"/>
        <pt x="2193" y="575" on="1"/>
        <pt x="2193" y="441" on="0"/>
        <pt x="2290" y="238" on="0"/>
        <pt x="2401" y="132" on="1"/>
        <pt x="2201" y="-24" on="1"/>
        <pt x="2045" y="100" on="0"/>
        <pt x="1902" y="350" on="0"/>
        <pt x="1889" y="496" on="1"/>
        <pt x="1742" y="496" on="1"/>
        <pt x="1720" y="243" on="0"/>
        <pt x="1434" y="-24" on="0"/>
        <pt x="1190" y="-24" on="1"/>
        <pt x="985" y="-24" on="0"/>
      </contour>
      <contour>
        <pt x="931" y="711" on="1"/>
        <pt x="1441" y="711" on="1"/>
        <pt x="1419" y="837" on="0"/>
        <pt x="1292" y="963" on="0"/>
        <pt x="1187" y="963" on="1"/>
        <pt x="1081" y="963" on="0"/>
        <pt x="953" y="837" on="0"/>
      </contour>
      <contour>
        <pt x="2967" y="867" on="1"/>
        <pt x="2877" y="796" on="0"/>
        <pt x="2779" y="590" on="0"/>
        <pt x="2779" y="479" on="1"/>
        <pt x="2779" y="191" on="0"/>
        <pt x="2966" y="191" on="1"/>
        <pt x="3056" y="191" on="0"/>
        <pt x="3151" y="329" on="0"/>
        <pt x="3151" y="466" on="1"/>
        <pt x="3151" y="587" on="0"/>
        <pt x="3057" y="794" on="0"/>
      </contour>
      <contour>
        <pt x="1448" y="496" on="1"/>
        <pt x="925" y="496" on="1"/>
        <pt x="939" y="343" on="0"/>
        <pt x="1069" y="191" on="0"/>
        <pt x="1185" y="191" on="1"/>
        <pt x="1300" y="191" on="0"/>
        <pt x="1433" y="345" on="0"/>
      </contour>
      <contour>
        <pt x="700" y="237" on="1"/>
        <pt x="671" y="292" on="0"/>
        <pt x="636" y="422" on="0"/>
        <pt x="631" y="496" on="1"/>
        <pt x="472" y="497" on="0"/>
        <pt x="349" y="409" on="0"/>
        <pt x="349" y="336" on="1"/>
        <pt x="349" y="261" on="0"/>
        <pt x="433" y="189" on="0"/>
        <pt x="525" y="189" on="1"/>
        <pt x="616" y="189" on="0"/>
      </contour>
    </TTGlyph>
    <TTGlyph name="glyph00150" xMin="60" yMin="-690" xMax="2298" yMax="1178">
      <contour>
        <pt x="851" y="67" on="1"/>
        <pt x="774" y="21" on="0"/>
        <pt x="606" y="-24" on="0"/>
        <pt x="474" y="-24" on="1"/>
        <pt x="276" y="-24" on="0"/>
        <pt x="60" y="161" on="0"/>
        <pt x="60" y="330" on="1"/>
        <pt x="60" y="499" on="0"/>
        <pt x="338" y="706" on="0"/>
        <pt x="636" y="710" on="1"/>
        <pt x="671" y="934" on="0"/>
        <pt x="960" y="1178" on="0"/>
        <pt x="1188" y="1178" on="1"/>
        <pt x="1421" y="1178" on="0"/>
        <pt x="1703" y="939" on="0"/>
        <pt x="1736" y="710" on="1"/>
        <pt x="2031" y="705" on="0"/>
        <pt x="2298" y="506" on="0"/>
        <pt x="2298" y="330" on="1"/>
        <pt x="2298" y="228" on="0"/>
        <pt x="2215" y="79" on="0"/>
        <pt x="2135" y="38" on="1"/>
        <pt x="2072" y="-75" on="1"/>
        <pt x="1979" y="-34" on="0"/>
        <pt x="1808" y="0" on="0"/>
        <pt x="1708" y="0" on="1"/>
        <pt x="1526" y="0" on="0"/>
        <pt x="1526" y="-80" on="1"/>
        <pt x="1526" y="-122" on="0"/>
        <pt x="1604" y="-156" on="0"/>
        <pt x="1701" y="-156" on="1"/>
        <pt x="1765" y="-156" on="1"/>
        <pt x="1958" y="-156" on="0"/>
        <pt x="2153" y="-286" on="0"/>
        <pt x="2153" y="-419" on="1"/>
        <pt x="2153" y="-547" on="0"/>
        <pt x="1930" y="-690" on="0"/>
        <pt x="1723" y="-690" on="1"/>
        <pt x="1585" y="-690" on="0"/>
        <pt x="1359" y="-644" on="0"/>
        <pt x="1249" y="-595" on="1"/>
        <pt x="1336" y="-427" on="1"/>
        <pt x="1500" y="-505" on="0"/>
        <pt x="1698" y="-505" on="1"/>
        <pt x="1798" y="-505" on="0"/>
        <pt x="1898" y="-465" on="0"/>
        <pt x="1898" y="-414" on="1"/>
        <pt x="1898" y="-375" on="0"/>
        <pt x="1838" y="-339" on="0"/>
        <pt x="1753" y="-339" on="1"/>
        <pt x="1694" y="-339" on="1"/>
        <pt x="1477" y="-339" on="0"/>
        <pt x="1272" y="-215" on="0"/>
        <pt x="1272" y="-82" on="1"/>
        <pt x="1272" y="-47" on="0"/>
        <pt x="1283" y="-16" on="1"/>
        <pt x="1239" y="-24" on="0"/>
        <pt x="1190" y="-24" on="1"/>
        <pt x="985" y="-24" on="0"/>
      </contour>
      <contour>
        <pt x="931" y="711" on="1"/>
        <pt x="1441" y="711" on="1"/>
        <pt x="1419" y="837" on="0"/>
        <pt x="1292" y="963" on="0"/>
        <pt x="1187" y="963" on="1"/>
        <pt x="1081" y="963" on="0"/>
        <pt x="953" y="837" on="0"/>
      </contour>
      <contour>
        <pt x="1448" y="496" on="1"/>
        <pt x="925" y="496" on="1"/>
        <pt x="939" y="343" on="0"/>
        <pt x="1069" y="191" on="0"/>
        <pt x="1185" y="191" on="1"/>
        <pt x="1300" y="191" on="0"/>
        <pt x="1433" y="345" on="0"/>
      </contour>
      <contour>
        <pt x="700" y="237" on="1"/>
        <pt x="671" y="292" on="0"/>
        <pt x="636" y="422" on="0"/>
        <pt x="631" y="496" on="1"/>
        <pt x="472" y="497" on="0"/>
        <pt x="349" y="409" on="0"/>
        <pt x="349" y="336" on="1"/>
        <pt x="349" y="261" on="0"/>
        <pt x="433" y="189" on="0"/>
        <pt x="525" y="189" on="1"/>
        <pt x="616" y="189" on="0"/>
      </contour>
      <contour>
        <pt x="1738" y="183" on="1"/>
        <pt x="1745" y="206" on="1"/>
        <pt x="1800" y="191" on="0"/>
        <pt x="1855" y="191" on="1"/>
        <pt x="1928" y="191" on="0"/>
        <pt x="2005" y="262" on="0"/>
        <pt x="2005" y="330" on="1"/>
        <pt x="2005" y="407" on="0"/>
        <pt x="1882" y="494" on="0"/>
        <pt x="1742" y="496" on="1"/>
        <pt x="1734" y="399" on="0"/>
        <pt x="1681" y="242" on="0"/>
        <pt x="1635" y="182" on="1"/>
        <pt x="1663" y="184" on="0"/>
        <pt x="1692" y="184" on="1"/>
        <pt x="1715" y="184" on="0"/>
      </contour>
    </TTGlyph>
    <TTGlyph name="glyph00151" xMin="60" yMin="-690" xMax="2298" yMax="1178">
      <contour>
        <pt x="2189" y="75" on="1"/>
        <pt x="2298" y="-77" on="0"/>
        <pt x="2298" y="-266" on="1"/>
        <pt x="2298" y="-464" on="0"/>
        <pt x="2067" y="-690" on="0"/>
        <pt x="1858" y="-690" on="1"/>
        <pt x="1684" y="-690" on="0"/>
        <pt x="1458" y="-520" on="0"/>
        <pt x="1458" y="-298" on="1"/>
        <pt x="1458" y="-283" on="1"/>
        <pt x="1458" y="-147" on="0"/>
        <pt x="1337" y="-10" on="0"/>
        <pt x="1205" y="-10" on="1"/>
        <pt x="1113" y="-10" on="0"/>
        <pt x="971" y="-93" on="0"/>
        <pt x="942" y="-169" on="1"/>
        <pt x="1013" y="-139" on="0"/>
        <pt x="1089" y="-139" on="1"/>
        <pt x="1224" y="-139" on="0"/>
        <pt x="1369" y="-276" on="0"/>
        <pt x="1369" y="-401" on="1"/>
        <pt x="1369" y="-540" on="0"/>
        <pt x="1201" y="-690" on="0"/>
        <pt x="1044" y="-690" on="1"/>
        <pt x="882" y="-690" on="0"/>
        <pt x="694" y="-484" on="0"/>
        <pt x="694" y="-309" on="1"/>
        <pt x="694" y="-190" on="0"/>
        <pt x="791" y="-3" on="0"/>
        <pt x="884" y="57" on="1"/>
        <pt x="858" y="72" on="1"/>
        <pt x="781" y="25" on="0"/>
        <pt x="611" y="-24" on="0"/>
        <pt x="474" y="-24" on="1"/>
        <pt x="276" y="-24" on="0"/>
        <pt x="60" y="161" on="0"/>
        <pt x="60" y="330" on="1"/>
        <pt x="60" y="499" on="0"/>
        <pt x="338" y="706" on="0"/>
        <pt x="636" y="710" on="1"/>
        <pt x="671" y="934" on="0"/>
        <pt x="960" y="1178" on="0"/>
        <pt x="1188" y="1178" on="1"/>
        <pt x="1421" y="1178" on="0"/>
        <pt x="1703" y="939" on="0"/>
        <pt x="1736" y="710" on="1"/>
        <pt x="2031" y="705" on="0"/>
        <pt x="2298" y="506" on="0"/>
        <pt x="2298" y="330" on="1"/>
        <pt x="2298" y="250" on="0"/>
        <pt x="2243" y="122" on="0"/>
      </contour>
      <contour>
        <pt x="931" y="711" on="1"/>
        <pt x="1441" y="711" on="1"/>
        <pt x="1419" y="837" on="0"/>
        <pt x="1292" y="963" on="0"/>
        <pt x="1187" y="963" on="1"/>
        <pt x="1081" y="963" on="0"/>
        <pt x="953" y="837" on="0"/>
      </contour>
      <contour>
        <pt x="1448" y="496" on="1"/>
        <pt x="925" y="496" on="1"/>
        <pt x="939" y="343" on="0"/>
        <pt x="1069" y="191" on="0"/>
        <pt x="1185" y="191" on="1"/>
        <pt x="1300" y="191" on="0"/>
        <pt x="1433" y="345" on="0"/>
      </contour>
      <contour>
        <pt x="700" y="237" on="1"/>
        <pt x="671" y="292" on="0"/>
        <pt x="636" y="421" on="0"/>
        <pt x="630" y="496" on="1"/>
        <pt x="472" y="497" on="0"/>
        <pt x="349" y="409" on="0"/>
        <pt x="349" y="336" on="1"/>
        <pt x="349" y="261" on="0"/>
        <pt x="433" y="189" on="0"/>
        <pt x="525" y="189" on="1"/>
        <pt x="616" y="189" on="0"/>
      </contour>
      <contour>
        <pt x="1742" y="496" on="1"/>
        <pt x="1731" y="349" on="0"/>
        <pt x="1629" y="142" on="0"/>
        <pt x="1537" y="82" on="1"/>
        <pt x="1630" y="30" on="0"/>
        <pt x="1713" y="-143" on="0"/>
        <pt x="1713" y="-270" on="1"/>
        <pt x="1713" y="-283" on="1"/>
        <pt x="1713" y="-361" on="0"/>
        <pt x="1734" y="-447" on="0"/>
        <pt x="1804" y="-503" on="0"/>
        <pt x="1864" y="-503" on="1"/>
        <pt x="1951" y="-503" on="0"/>
        <pt x="2043" y="-383" on="0"/>
        <pt x="2043" y="-266" on="1"/>
        <pt x="2043" y="-128" on="0"/>
        <pt x="1972" y="-17" on="1"/>
        <pt x="1923" y="-24" on="0"/>
        <pt x="1879" y="-24" on="1"/>
        <pt x="1777" y="-24" on="0"/>
        <pt x="1694" y="0" on="1"/>
        <pt x="1745" y="206" on="1"/>
        <pt x="1800" y="191" on="0"/>
        <pt x="1855" y="191" on="1"/>
        <pt x="1928" y="191" on="0"/>
        <pt x="2005" y="262" on="0"/>
        <pt x="2005" y="330" on="1"/>
        <pt x="2005" y="407" on="0"/>
        <pt x="1882" y="494" on="0"/>
      </contour>
      <contour>
        <pt x="924" y="-340" on="1"/>
        <pt x="925" y="-428" on="0"/>
        <pt x="990" y="-520" on="0"/>
        <pt x="1042" y="-520" on="1"/>
        <pt x="1092" y="-520" on="0"/>
        <pt x="1148" y="-467" on="0"/>
        <pt x="1148" y="-416" on="1"/>
        <pt x="1148" y="-364" on="0"/>
        <pt x="1090" y="-309" on="0"/>
        <pt x="1034" y="-309" on="1"/>
        <pt x="979" y="-309" on="0"/>
      </contour>
    </TTGlyph>
    <TTGlyph name="glyph00152" xMin="60" yMin="-24" xMax="3767" yMax="1178">
      <contour>
        <pt x="1839" y="215" on="1"/>
        <pt x="1925" y="223" on="0"/>
        <pt x="2005" y="285" on="0"/>
        <pt x="2005" y="343" on="1"/>
        <pt x="2005" y="421" on="0"/>
        <pt x="1873" y="497" on="0"/>
        <pt x="1741" y="496" on="1"/>
        <pt x="1719" y="242" on="0"/>
        <pt x="1432" y="-24" on="0"/>
        <pt x="1189" y="-24" on="1"/>
        <pt x="985" y="-24" on="0"/>
        <pt x="850" y="67" on="1"/>
        <pt x="772" y="20" on="0"/>
        <pt x="606" y="-24" on="0"/>
        <pt x="474" y="-24" on="1"/>
        <pt x="276" y="-24" on="0"/>
        <pt x="60" y="161" on="0"/>
        <pt x="60" y="330" on="1"/>
        <pt x="60" y="424" on="0"/>
        <pt x="145" y="571" on="0"/>
        <pt x="298" y="664" on="0"/>
        <pt x="481" y="705" on="0"/>
        <pt x="635" y="710" on="1"/>
        <pt x="670" y="934" on="0"/>
        <pt x="959" y="1178" on="0"/>
        <pt x="1187" y="1178" on="1"/>
        <pt x="1419" y="1178" on="0"/>
        <pt x="1702" y="939" on="0"/>
        <pt x="1735" y="711" on="1"/>
        <pt x="1970" y="709" on="0"/>
        <pt x="2194" y="621" on="0"/>
        <pt x="2298" y="470" on="0"/>
        <pt x="2298" y="368" on="1"/>
        <pt x="2298" y="283" on="0"/>
        <pt x="2258" y="215" on="1"/>
        <pt x="2740" y="215" on="1"/>
        <pt x="2740" y="470" on="1"/>
        <pt x="2496" y="475" on="0"/>
        <pt x="2243" y="669" on="0"/>
        <pt x="2243" y="844" on="1"/>
        <pt x="2243" y="985" on="0"/>
        <pt x="2461" y="1178" on="0"/>
        <pt x="2642" y="1178" on="1"/>
        <pt x="2771" y="1178" on="0"/>
        <pt x="2949" y="1089" on="0"/>
        <pt x="3038" y="917" on="0"/>
        <pt x="3038" y="760" on="1"/>
        <pt x="3038" y="707" on="1"/>
        <pt x="3146" y="743" on="0"/>
        <pt x="3347" y="938" on="0"/>
        <pt x="3468" y="1150" on="1"/>
        <pt x="3767" y="1150" on="1"/>
        <pt x="3767" y="0" on="1"/>
        <pt x="1894" y="0" on="1"/>
      </contour>
      <contour>
        <pt x="2740" y="676" on="1"/>
        <pt x="2740" y="802" on="1"/>
        <pt x="2740" y="907" on="0"/>
        <pt x="2690" y="966" on="0"/>
        <pt x="2643" y="966" on="1"/>
        <pt x="2590" y="966" on="0"/>
        <pt x="2531" y="902" on="0"/>
        <pt x="2531" y="841" on="1"/>
        <pt x="2531" y="752" on="0"/>
        <pt x="2645" y="678" on="0"/>
      </contour>
      <contour>
        <pt x="930" y="711" on="1"/>
        <pt x="1440" y="711" on="1"/>
        <pt x="1418" y="837" on="0"/>
        <pt x="1291" y="963" on="0"/>
        <pt x="1186" y="963" on="1"/>
        <pt x="1080" y="963" on="0"/>
        <pt x="952" y="837" on="0"/>
      </contour>
      <contour>
        <pt x="3476" y="781" on="1"/>
        <pt x="3399" y="664" on="0"/>
        <pt x="3174" y="510" on="0"/>
        <pt x="3038" y="483" on="1"/>
        <pt x="3038" y="215" on="1"/>
        <pt x="3469" y="215" on="1"/>
        <pt x="3469" y="674" on="1"/>
        <pt x="3469" y="741" on="0"/>
      </contour>
      <contour>
        <pt x="1447" y="496" on="1"/>
        <pt x="924" y="496" on="1"/>
        <pt x="938" y="343" on="0"/>
        <pt x="1068" y="191" on="0"/>
        <pt x="1184" y="191" on="1"/>
        <pt x="1299" y="191" on="0"/>
        <pt x="1432" y="345" on="0"/>
      </contour>
      <contour>
        <pt x="699" y="237" on="1"/>
        <pt x="670" y="292" on="0"/>
        <pt x="635" y="421" on="0"/>
        <pt x="630" y="496" on="1"/>
        <pt x="471" y="497" on="0"/>
        <pt x="349" y="408" on="0"/>
        <pt x="349" y="336" on="1"/>
        <pt x="349" y="261" on="0"/>
        <pt x="433" y="189" on="0"/>
        <pt x="525" y="189" on="1"/>
        <pt x="615" y="189" on="0"/>
      </contour>
    </TTGlyph>
    <TTGlyph name="glyph00153" xMin="75" yMin="-690" xMax="1921" yMax="1178">
      <contour>
        <pt x="844" y="629" on="1"/>
        <pt x="844" y="918" on="0"/>
        <pt x="1101" y="1178" on="0"/>
        <pt x="1354" y="1178" on="1"/>
        <pt x="1614" y="1178" on="0"/>
        <pt x="1921" y="871" on="0"/>
        <pt x="1921" y="615" on="1"/>
        <pt x="1921" y="463" on="0"/>
        <pt x="1827" y="198" on="0"/>
        <pt x="1733" y="85" on="1"/>
        <pt x="1798" y="26" on="0"/>
        <pt x="1864" y="-141" on="0"/>
        <pt x="1864" y="-250" on="1"/>
        <pt x="1864" y="-502" on="0"/>
        <pt x="1681" y="-690" on="1"/>
        <pt x="1490" y="-573" on="1"/>
        <pt x="1609" y="-436" on="0"/>
        <pt x="1609" y="-248" on="1"/>
        <pt x="1609" y="-126" on="0"/>
        <pt x="1516" y="0" on="0"/>
        <pt x="1430" y="0" on="1"/>
        <pt x="1369" y="0" on="0"/>
        <pt x="1298" y="-62" on="0"/>
        <pt x="1279" y="-168" on="0"/>
        <pt x="1279" y="-272" on="1"/>
        <pt x="1279" y="-299" on="1"/>
        <pt x="1279" y="-511" on="0"/>
        <pt x="1061" y="-690" on="0"/>
        <pt x="879" y="-690" on="1"/>
        <pt x="670" y="-690" on="0"/>
        <pt x="439" y="-464" on="0"/>
        <pt x="439" y="-266" on="1"/>
        <pt x="439" y="-129" on="0"/>
        <pt x="498" y="-9" on="1"/>
        <pt x="299" y="31" on="0"/>
        <pt x="75" y="323" on="0"/>
        <pt x="75" y="541" on="1"/>
        <pt x="75" y="731" on="0"/>
        <pt x="216" y="1036" on="0"/>
        <pt x="366" y="1178" on="1"/>
        <pt x="575" y="1022" on="1"/>
        <pt x="475" y="911" on="0"/>
        <pt x="380" y="686" on="0"/>
        <pt x="380" y="556" on="1"/>
        <pt x="380" y="381" on="0"/>
        <pt x="510" y="196" on="0"/>
        <pt x="627" y="196" on="1"/>
        <pt x="712" y="196" on="0"/>
        <pt x="809" y="271" on="0"/>
        <pt x="844" y="416" on="0"/>
        <pt x="844" y="556" on="1"/>
      </contour>
      <contour>
        <pt x="1024" y="-201" on="1"/>
        <pt x="1024" y="6" on="0"/>
        <pt x="1241" y="186" on="0"/>
        <pt x="1424" y="186" on="1"/>
        <pt x="1444" y="186" on="0"/>
        <pt x="1463" y="185" on="1"/>
        <pt x="1540" y="282" on="0"/>
        <pt x="1616" y="482" on="0"/>
        <pt x="1616" y="599" on="1"/>
        <pt x="1616" y="774" on="0"/>
        <pt x="1482" y="959" on="0"/>
        <pt x="1361" y="959" on="1"/>
        <pt x="1277" y="959" on="0"/>
        <pt x="1181" y="874" on="0"/>
        <pt x="1152" y="726" on="0"/>
        <pt x="1152" y="588" on="1"/>
        <pt x="1152" y="533" on="1"/>
        <pt x="1152" y="280" on="0"/>
        <pt x="965" y="17" on="0"/>
        <pt x="768" y="-13" on="1"/>
        <pt x="694" y="-124" on="0"/>
        <pt x="694" y="-267" on="1"/>
        <pt x="694" y="-384" on="0"/>
        <pt x="786" y="-504" on="0"/>
        <pt x="873" y="-504" on="1"/>
        <pt x="934" y="-504" on="0"/>
        <pt x="1004" y="-443" on="0"/>
        <pt x="1024" y="-338" on="0"/>
        <pt x="1024" y="-240" on="1"/>
      </contour>
    </TTGlyph>
    <TTGlyph name="glyph00154" xMin="75" yMin="-24" xMax="2029" yMax="1178">
      <contour>
        <pt x="1825" y="575" on="1"/>
        <pt x="1927" y="537" on="0"/>
        <pt x="2029" y="397" on="0"/>
        <pt x="2029" y="295" on="1"/>
        <pt x="2029" y="142" on="0"/>
        <pt x="1808" y="-24" on="0"/>
        <pt x="1604" y="-24" on="1"/>
        <pt x="1487" y="-24" on="0"/>
        <pt x="1375" y="-1" on="1"/>
        <pt x="1413" y="211" on="1"/>
        <pt x="1485" y="191" on="0"/>
        <pt x="1549" y="191" on="1"/>
        <pt x="1643" y="191" on="0"/>
        <pt x="1727" y="249" on="0"/>
        <pt x="1727" y="319" on="1"/>
        <pt x="1727" y="364" on="0"/>
        <pt x="1675" y="428" on="0"/>
        <pt x="1583" y="462" on="0"/>
        <pt x="1486" y="462" on="1"/>
        <pt x="1411" y="462" on="1"/>
        <pt x="1411" y="676" on="1"/>
        <pt x="1480" y="676" on="1"/>
        <pt x="1601" y="676" on="0"/>
        <pt x="1705" y="751" on="0"/>
        <pt x="1705" y="819" on="1"/>
        <pt x="1705" y="888" on="0"/>
        <pt x="1594" y="963" on="0"/>
        <pt x="1479" y="963" on="1"/>
        <pt x="1370" y="963" on="0"/>
        <pt x="1221" y="873" on="0"/>
        <pt x="1152" y="702" on="0"/>
        <pt x="1152" y="533" on="1"/>
        <pt x="1152" y="517" on="1"/>
        <pt x="1152" y="243" on="0"/>
        <pt x="900" y="-23" on="0"/>
        <pt x="636" y="-23" on="1"/>
        <pt x="380" y="-23" on="0"/>
        <pt x="75" y="283" on="0"/>
        <pt x="75" y="541" on="1"/>
        <pt x="75" y="731" on="0"/>
        <pt x="216" y="1036" on="0"/>
        <pt x="366" y="1178" on="1"/>
        <pt x="575" y="1022" on="1"/>
        <pt x="475" y="911" on="0"/>
        <pt x="380" y="686" on="0"/>
        <pt x="380" y="556" on="1"/>
        <pt x="380" y="381" on="0"/>
        <pt x="510" y="196" on="0"/>
        <pt x="627" y="196" on="1"/>
        <pt x="712" y="196" on="0"/>
        <pt x="809" y="271" on="0"/>
        <pt x="844" y="416" on="0"/>
        <pt x="844" y="556" on="1"/>
        <pt x="844" y="569" on="1"/>
        <pt x="844" y="737" on="0"/>
        <pt x="912" y="944" on="0"/>
        <pt x="1088" y="1105" on="0"/>
        <pt x="1332" y="1178" on="0"/>
        <pt x="1498" y="1178" on="1"/>
        <pt x="1736" y="1178" on="0"/>
        <pt x="2007" y="998" on="0"/>
        <pt x="2007" y="852" on="1"/>
        <pt x="2007" y="752" on="0"/>
        <pt x="1920" y="623" on="0"/>
      </contour>
    </TTGlyph>
    <TTGlyph name="glyph00155" xMin="75" yMin="-23" xMax="3007" yMax="1178">
      <contour>
        <pt x="1758" y="1013" on="1"/>
        <pt x="1847" y="1095" on="0"/>
        <pt x="2101" y="1178" on="0"/>
        <pt x="2265" y="1178" on="1"/>
        <pt x="2501" y="1178" on="0"/>
        <pt x="2830" y="1043" on="0"/>
        <pt x="3007" y="778" on="0"/>
        <pt x="3007" y="523" on="1"/>
        <pt x="3007" y="0" on="1"/>
        <pt x="1574" y="0" on="1"/>
        <pt x="1574" y="639" on="1"/>
        <pt x="1574" y="763" on="0"/>
        <pt x="1535" y="891" on="0"/>
        <pt x="1439" y="959" on="0"/>
        <pt x="1361" y="959" on="1"/>
        <pt x="1277" y="959" on="0"/>
        <pt x="1181" y="874" on="0"/>
        <pt x="1152" y="726" on="0"/>
        <pt x="1152" y="588" on="1"/>
        <pt x="1152" y="533" on="1"/>
        <pt x="1152" y="241" on="0"/>
        <pt x="898" y="-23" on="0"/>
        <pt x="638" y="-23" on="1"/>
        <pt x="381" y="-23" on="0"/>
        <pt x="75" y="283" on="0"/>
        <pt x="75" y="541" on="1"/>
        <pt x="75" y="731" on="0"/>
        <pt x="216" y="1036" on="0"/>
        <pt x="366" y="1178" on="1"/>
        <pt x="575" y="1022" on="1"/>
        <pt x="475" y="911" on="0"/>
        <pt x="380" y="686" on="0"/>
        <pt x="380" y="556" on="1"/>
        <pt x="380" y="381" on="0"/>
        <pt x="510" y="196" on="0"/>
        <pt x="627" y="196" on="1"/>
        <pt x="712" y="196" on="0"/>
        <pt x="809" y="271" on="0"/>
        <pt x="844" y="416" on="0"/>
        <pt x="844" y="556" on="1"/>
        <pt x="844" y="629" on="1"/>
        <pt x="844" y="918" on="0"/>
        <pt x="1100" y="1178" on="0"/>
        <pt x="1359" y="1178" on="1"/>
        <pt x="1480" y="1178" on="0"/>
        <pt x="1663" y="1104" on="0"/>
      </contour>
      <contour>
        <pt x="2705" y="521" on="1"/>
        <pt x="2705" y="707" on="0"/>
        <pt x="2602" y="903" on="0"/>
        <pt x="2473" y="964" on="1"/>
        <pt x="2537" y="876" on="0"/>
        <pt x="2537" y="758" on="1"/>
        <pt x="2537" y="631" on="0"/>
        <pt x="2394" y="366" on="0"/>
        <pt x="2240" y="211" on="1"/>
        <pt x="2303" y="215" on="0"/>
        <pt x="2354" y="215" on="1"/>
        <pt x="2705" y="215" on="1"/>
      </contour>
      <contour>
        <pt x="1871" y="206" on="1"/>
        <pt x="2059" y="374" on="0"/>
        <pt x="2241" y="668" on="0"/>
        <pt x="2241" y="802" on="1"/>
        <pt x="2241" y="961" on="0"/>
        <pt x="2114" y="961" on="1"/>
        <pt x="2014" y="961" on="0"/>
        <pt x="1871" y="767" on="0"/>
        <pt x="1871" y="560" on="1"/>
      </contour>
    </TTGlyph>
    <TTGlyph name="glyph00156" xMin="75" yMin="-24" xMax="2657" yMax="1178">
      <contour>
        <pt x="1574" y="0" on="1"/>
        <pt x="1574" y="639" on="1"/>
        <pt x="1574" y="763" on="0"/>
        <pt x="1535" y="891" on="0"/>
        <pt x="1439" y="959" on="0"/>
        <pt x="1361" y="959" on="1"/>
        <pt x="1277" y="959" on="0"/>
        <pt x="1181" y="874" on="0"/>
        <pt x="1152" y="726" on="0"/>
        <pt x="1152" y="588" on="1"/>
        <pt x="1152" y="533" on="1"/>
        <pt x="1152" y="334" on="0"/>
        <pt x="1044" y="97" on="0"/>
        <pt x="815" y="-23" on="0"/>
        <pt x="638" y="-23" on="1"/>
        <pt x="470" y="-23" on="0"/>
        <pt x="212" y="117" on="0"/>
        <pt x="75" y="374" on="0"/>
        <pt x="75" y="541" on="1"/>
        <pt x="75" y="729" on="0"/>
        <pt x="213" y="1033" on="0"/>
        <pt x="367" y="1178" on="1"/>
        <pt x="575" y="1022" on="1"/>
        <pt x="475" y="911" on="0"/>
        <pt x="380" y="686" on="0"/>
        <pt x="380" y="556" on="1"/>
        <pt x="380" y="381" on="0"/>
        <pt x="510" y="196" on="0"/>
        <pt x="627" y="196" on="1"/>
        <pt x="712" y="196" on="0"/>
        <pt x="809" y="271" on="0"/>
        <pt x="844" y="416" on="0"/>
        <pt x="844" y="556" on="1"/>
        <pt x="844" y="629" on="1"/>
        <pt x="844" y="920" on="0"/>
        <pt x="1103" y="1178" on="0"/>
        <pt x="1338" y="1178" on="1"/>
        <pt x="1455" y="1178" on="0"/>
        <pt x="1630" y="1113" on="0"/>
        <pt x="1717" y="1030" on="1"/>
        <pt x="1796" y="1108" on="0"/>
        <pt x="1982" y="1178" on="0"/>
        <pt x="2108" y="1178" on="1"/>
        <pt x="2271" y="1178" on="0"/>
        <pt x="2520" y="1038" on="0"/>
        <pt x="2657" y="779" on="0"/>
        <pt x="2657" y="613" on="1"/>
        <pt x="2657" y="424" on="0"/>
        <pt x="2515" y="114" on="0"/>
        <pt x="2367" y="-24" on="1"/>
        <pt x="2154" y="132" on="1"/>
        <pt x="2254" y="242" on="0"/>
        <pt x="2352" y="464" on="0"/>
        <pt x="2352" y="591" on="1"/>
        <pt x="2352" y="763" on="0"/>
        <pt x="2202" y="960" on="0"/>
        <pt x="2076" y="960" on="1"/>
        <pt x="2025" y="960" on="0"/>
        <pt x="1939" y="916" on="0"/>
        <pt x="1891" y="840" on="0"/>
        <pt x="1876" y="733" on="0"/>
        <pt x="1876" y="620" on="1"/>
        <pt x="1876" y="0" on="1"/>
      </contour>
    </TTGlyph>
    <TTGlyph name="glyph00157" xMin="75" yMin="-690" xMax="1921" yMax="1178">
      <contour>
        <pt x="844" y="629" on="1"/>
        <pt x="844" y="918" on="0"/>
        <pt x="1101" y="1178" on="0"/>
        <pt x="1354" y="1178" on="1"/>
        <pt x="1614" y="1178" on="0"/>
        <pt x="1921" y="871" on="0"/>
        <pt x="1921" y="615" on="1"/>
        <pt x="1921" y="475" on="0"/>
        <pt x="1842" y="230" on="0"/>
        <pt x="1763" y="124" on="1"/>
        <pt x="1836" y="38" on="0"/>
        <pt x="1910" y="-157" on="0"/>
        <pt x="1910" y="-266" on="1"/>
        <pt x="1910" y="-464" on="0"/>
        <pt x="1679" y="-690" on="0"/>
        <pt x="1470" y="-690" on="1"/>
        <pt x="1296" y="-690" on="0"/>
        <pt x="1070" y="-520" on="0"/>
        <pt x="1070" y="-298" on="1"/>
        <pt x="1070" y="-283" on="1"/>
        <pt x="1070" y="-147" on="0"/>
        <pt x="949" y="-10" on="0"/>
        <pt x="817" y="-10" on="1"/>
        <pt x="725" y="-10" on="0"/>
        <pt x="583" y="-93" on="0"/>
        <pt x="554" y="-169" on="1"/>
        <pt x="625" y="-139" on="0"/>
        <pt x="701" y="-139" on="1"/>
        <pt x="836" y="-139" on="0"/>
        <pt x="981" y="-276" on="0"/>
        <pt x="981" y="-401" on="1"/>
        <pt x="981" y="-540" on="0"/>
        <pt x="813" y="-690" on="0"/>
        <pt x="656" y="-690" on="1"/>
        <pt x="494" y="-690" on="0"/>
        <pt x="306" y="-484" on="0"/>
        <pt x="306" y="-309" on="1"/>
        <pt x="306" y="-112" on="0"/>
        <pt x="431" y="15" on="1"/>
        <pt x="260" y="67" on="0"/>
        <pt x="75" y="340" on="0"/>
        <pt x="75" y="541" on="1"/>
        <pt x="75" y="731" on="0"/>
        <pt x="216" y="1036" on="0"/>
        <pt x="366" y="1178" on="1"/>
        <pt x="575" y="1022" on="1"/>
        <pt x="475" y="911" on="0"/>
        <pt x="380" y="686" on="0"/>
        <pt x="380" y="556" on="1"/>
        <pt x="380" y="381" on="0"/>
        <pt x="510" y="196" on="0"/>
        <pt x="627" y="196" on="1"/>
        <pt x="712" y="196" on="0"/>
        <pt x="809" y="271" on="0"/>
        <pt x="844" y="416" on="0"/>
        <pt x="844" y="556" on="1"/>
      </contour>
      <contour>
        <pt x="1536" y="45" on="1"/>
        <pt x="1537" y="45" on="1"/>
        <pt x="1418" y="133" on="1"/>
        <pt x="1520" y="245" on="0"/>
        <pt x="1616" y="468" on="0"/>
        <pt x="1616" y="599" on="1"/>
        <pt x="1616" y="774" on="0"/>
        <pt x="1482" y="959" on="0"/>
        <pt x="1361" y="959" on="1"/>
        <pt x="1277" y="959" on="0"/>
        <pt x="1181" y="874" on="0"/>
        <pt x="1152" y="726" on="0"/>
        <pt x="1152" y="588" on="1"/>
        <pt x="1152" y="533" on="1"/>
        <pt x="1152" y="400" on="0"/>
        <pt x="1095" y="205" on="0"/>
        <pt x="1039" y="142" on="1"/>
        <pt x="1182" y="102" on="0"/>
        <pt x="1325" y="-95" on="0"/>
        <pt x="1325" y="-270" on="1"/>
        <pt x="1325" y="-283" on="1"/>
        <pt x="1325" y="-361" on="0"/>
        <pt x="1346" y="-447" on="0"/>
        <pt x="1416" y="-503" on="0"/>
        <pt x="1476" y="-503" on="1"/>
        <pt x="1563" y="-503" on="0"/>
        <pt x="1655" y="-383" on="0"/>
        <pt x="1655" y="-266" on="1"/>
        <pt x="1655" y="-86" on="0"/>
      </contour>
      <contour>
        <pt x="536" y="-340" on="1"/>
        <pt x="537" y="-428" on="0"/>
        <pt x="602" y="-520" on="0"/>
        <pt x="654" y="-520" on="1"/>
        <pt x="704" y="-520" on="0"/>
        <pt x="760" y="-467" on="0"/>
        <pt x="760" y="-416" on="1"/>
        <pt x="760" y="-364" on="0"/>
        <pt x="702" y="-309" on="0"/>
        <pt x="646" y="-309" on="1"/>
        <pt x="591" y="-309" on="0"/>
      </contour>
    </TTGlyph>
    <TTGlyph name="glyph00158" xMin="74" yMin="-24" xMax="2347" yMax="1178">
      <contour>
        <pt x="883" y="79" on="1"/>
        <pt x="799" y="25" on="0"/>
        <pt x="622" y="-24" on="0"/>
        <pt x="488" y="-24" on="1"/>
        <pt x="290" y="-24" on="0"/>
        <pt x="74" y="161" on="0"/>
        <pt x="74" y="330" on="1"/>
        <pt x="74" y="503" on="0"/>
        <pt x="265" y="602" on="1"/>
        <pt x="76" y="686" on="0"/>
        <pt x="76" y="866" on="1"/>
        <pt x="76" y="1005" on="0"/>
        <pt x="290" y="1178" on="0"/>
        <pt x="476" y="1178" on="1"/>
        <pt x="701" y="1178" on="0"/>
        <pt x="886" y="1074" on="1"/>
        <pt x="1027" y="1178" on="0"/>
        <pt x="1237" y="1178" on="1"/>
        <pt x="1470" y="1178" on="0"/>
        <pt x="1752" y="939" on="0"/>
        <pt x="1785" y="710" on="1"/>
        <pt x="2080" y="705" on="0"/>
        <pt x="2347" y="506" on="0"/>
        <pt x="2347" y="330" on="1"/>
        <pt x="2347" y="165" on="0"/>
        <pt x="2119" y="-24" on="0"/>
        <pt x="1928" y="-24" on="1"/>
        <pt x="1826" y="-24" on="0"/>
        <pt x="1743" y="0" on="1"/>
        <pt x="1794" y="206" on="1"/>
        <pt x="1849" y="191" on="0"/>
        <pt x="1904" y="191" on="1"/>
        <pt x="1977" y="191" on="0"/>
        <pt x="2054" y="262" on="0"/>
        <pt x="2054" y="330" on="1"/>
        <pt x="2054" y="406" on="0"/>
        <pt x="1932" y="494" on="0"/>
        <pt x="1791" y="496" on="1"/>
        <pt x="1769" y="242" on="0"/>
        <pt x="1482" y="-24" on="0"/>
        <pt x="1239" y="-24" on="1"/>
        <pt x="1024" y="-24" on="0"/>
      </contour>
      <contour>
        <pt x="686" y="711" on="1"/>
        <pt x="699" y="805" on="0"/>
        <pt x="737" y="888" on="1"/>
        <pt x="640" y="965" on="0"/>
        <pt x="518" y="965" on="1"/>
        <pt x="447" y="965" on="0"/>
        <pt x="365" y="901" on="0"/>
        <pt x="365" y="845" on="1"/>
        <pt x="365" y="780" on="0"/>
        <pt x="465" y="711" on="0"/>
        <pt x="598" y="711" on="1"/>
      </contour>
      <contour>
        <pt x="980" y="711" on="1"/>
        <pt x="1490" y="711" on="1"/>
        <pt x="1468" y="837" on="0"/>
        <pt x="1341" y="963" on="0"/>
        <pt x="1236" y="963" on="1"/>
        <pt x="1130" y="963" on="0"/>
        <pt x="1002" y="837" on="0"/>
      </contour>
      <contour>
        <pt x="1497" y="496" on="1"/>
        <pt x="974" y="496" on="1"/>
        <pt x="988" y="343" on="0"/>
        <pt x="1118" y="191" on="0"/>
        <pt x="1234" y="191" on="1"/>
        <pt x="1349" y="191" on="0"/>
        <pt x="1482" y="345" on="0"/>
      </contour>
      <contour>
        <pt x="742" y="254" on="1"/>
        <pt x="716" y="307" on="0"/>
        <pt x="685" y="428" on="0"/>
        <pt x="680" y="496" on="1"/>
        <pt x="674" y="496" on="1"/>
        <pt x="584" y="496" on="0"/>
        <pt x="483" y="484" on="0"/>
        <pt x="405" y="444" on="0"/>
        <pt x="363" y="380" on="0"/>
        <pt x="363" y="336" on="1"/>
        <pt x="363" y="261" on="0"/>
        <pt x="447" y="191" on="0"/>
        <pt x="539" y="191" on="1"/>
        <pt x="646" y="191" on="0"/>
      </contour>
    </TTGlyph>
    <TTGlyph name="glyph00159" xMin="70" yMin="-24" xMax="3436" yMax="1178">
      <contour>
        <pt x="2564" y="0" on="1"/>
        <pt x="2262" y="0" on="1"/>
        <pt x="2262" y="513" on="1"/>
        <pt x="2262" y="700" on="0"/>
        <pt x="2194" y="867" on="0"/>
        <pt x="2036" y="966" on="0"/>
        <pt x="1915" y="970" on="1"/>
        <pt x="1971" y="925" on="0"/>
        <pt x="2027" y="822" on="0"/>
        <pt x="2027" y="764" on="1"/>
        <pt x="2027" y="682" on="0"/>
        <pt x="1946" y="572" on="0"/>
        <pt x="1863" y="532" on="1"/>
        <pt x="1954" y="495" on="0"/>
        <pt x="2049" y="365" on="0"/>
        <pt x="2049" y="283" on="1"/>
        <pt x="2049" y="138" on="0"/>
        <pt x="1819" y="-24" on="0"/>
        <pt x="1595" y="-24" on="1"/>
        <pt x="1334" y="-24" on="0"/>
        <pt x="1059" y="246" on="0"/>
        <pt x="1059" y="488" on="1"/>
        <pt x="1059" y="630" on="0"/>
        <pt x="1164" y="865" on="0"/>
        <pt x="1270" y="958" on="1"/>
        <pt x="1184" y="963" on="0"/>
        <pt x="1097" y="963" on="1"/>
        <pt x="819" y="963" on="0"/>
        <pt x="454" y="812" on="0"/>
        <pt x="385" y="668" on="1"/>
        <pt x="485" y="711" on="0"/>
        <pt x="589" y="711" on="1"/>
        <pt x="761" y="711" on="0"/>
        <pt x="955" y="522" on="0"/>
        <pt x="955" y="357" on="1"/>
        <pt x="955" y="178" on="0"/>
        <pt x="737" y="-24" on="0"/>
        <pt x="543" y="-24" on="1"/>
        <pt x="329" y="-24" on="0"/>
        <pt x="70" y="248" on="0"/>
        <pt x="70" y="491" on="1"/>
        <pt x="70" y="823" on="0"/>
        <pt x="609" y="1178" on="0"/>
        <pt x="1100" y="1178" on="1"/>
        <pt x="1240" y="1178" on="0"/>
        <pt x="1454" y="1153" on="0"/>
        <pt x="1562" y="1125" on="1"/>
        <pt x="1727" y="1178" on="0"/>
        <pt x="1899" y="1178" on="1"/>
        <pt x="2066" y="1178" on="0"/>
        <pt x="2312" y="1092" on="0"/>
        <pt x="2419" y="991" on="1"/>
        <pt x="2499" y="1084" on="0"/>
        <pt x="2746" y="1178" on="0"/>
        <pt x="2912" y="1178" on="1"/>
        <pt x="3144" y="1178" on="0"/>
        <pt x="3414" y="995" on="0"/>
        <pt x="3414" y="852" on="1"/>
        <pt x="3414" y="752" on="0"/>
        <pt x="3327" y="623" on="0"/>
        <pt x="3232" y="575" on="1"/>
        <pt x="3436" y="499" on="0"/>
        <pt x="3436" y="295" on="1"/>
        <pt x="3436" y="142" on="0"/>
        <pt x="3215" y="-24" on="0"/>
        <pt x="3011" y="-24" on="1"/>
        <pt x="2894" y="-24" on="0"/>
        <pt x="2782" y="-1" on="1"/>
        <pt x="2820" y="211" on="1"/>
        <pt x="2892" y="191" on="0"/>
        <pt x="2956" y="191" on="1"/>
        <pt x="3050" y="191" on="0"/>
        <pt x="3134" y="249" on="0"/>
        <pt x="3134" y="319" on="1"/>
        <pt x="3134" y="364" on="0"/>
        <pt x="3082" y="428" on="0"/>
        <pt x="2990" y="462" on="0"/>
        <pt x="2893" y="462" on="1"/>
        <pt x="2818" y="462" on="1"/>
        <pt x="2818" y="676" on="1"/>
        <pt x="2887" y="676" on="1"/>
        <pt x="3008" y="676" on="0"/>
        <pt x="3112" y="751" on="0"/>
        <pt x="3112" y="819" on="1"/>
        <pt x="3112" y="963" on="0"/>
        <pt x="2884" y="963" on="1"/>
        <pt x="2793" y="963" on="0"/>
        <pt x="2642" y="886" on="0"/>
        <pt x="2564" y="733" on="0"/>
        <pt x="2564" y="568" on="1"/>
      </contour>
      <contour>
        <pt x="1592" y="912" on="1"/>
        <pt x="1471" y="852" on="0"/>
        <pt x="1341" y="621" on="0"/>
        <pt x="1341" y="491" on="1"/>
        <pt x="1341" y="337" on="0"/>
        <pt x="1459" y="187" on="0"/>
        <pt x="1585" y="187" on="1"/>
        <pt x="1757" y="187" on="0"/>
        <pt x="1757" y="303" on="1"/>
        <pt x="1757" y="355" on="0"/>
        <pt x="1664" y="418" on="0"/>
        <pt x="1568" y="418" on="1"/>
        <pt x="1512" y="418" on="1"/>
        <pt x="1512" y="632" on="1"/>
        <pt x="1551" y="632" on="1"/>
        <pt x="1735" y="632" on="0"/>
        <pt x="1735" y="760" on="1"/>
        <pt x="1735" y="814" on="0"/>
        <pt x="1663" y="890" on="0"/>
      </contour>
      <contour>
        <pt x="347" y="449" on="1"/>
        <pt x="353" y="314" on="0"/>
        <pt x="445" y="180" on="0"/>
        <pt x="532" y="180" on="1"/>
        <pt x="596" y="180" on="0"/>
        <pt x="665" y="261" on="0"/>
        <pt x="665" y="339" on="1"/>
        <pt x="665" y="419" on="0"/>
        <pt x="592" y="507" on="0"/>
        <pt x="518" y="507" on="1"/>
        <pt x="432" y="507" on="0"/>
      </contour>
    </TTGlyph>
    <TTGlyph name="glyph00160" xMin="40" yMin="-582" xMax="1889" yMax="1150">
      <contour>
        <pt x="255" y="309" on="1"/>
        <pt x="244" y="367" on="0"/>
        <pt x="244" y="415" on="1"/>
        <pt x="244" y="571" on="0"/>
        <pt x="485" y="751" on="0"/>
        <pt x="697" y="751" on="1"/>
        <pt x="925" y="751" on="0"/>
        <pt x="1159" y="561" on="0"/>
        <pt x="1159" y="400" on="1"/>
        <pt x="1159" y="302" on="0"/>
        <pt x="1092" y="215" on="1"/>
        <pt x="1587" y="215" on="1"/>
        <pt x="1587" y="1150" on="1"/>
        <pt x="1889" y="1150" on="1"/>
        <pt x="1889" y="-582" on="1"/>
        <pt x="760" y="-582" on="1"/>
        <pt x="657" y="-386" on="1"/>
        <pt x="1024" y="-120" on="1"/>
        <pt x="1111" y="-57" on="0"/>
        <pt x="1216" y="4" on="1"/>
        <pt x="1102" y="0" on="0"/>
        <pt x="992" y="0" on="1"/>
        <pt x="40" y="0" on="1"/>
        <pt x="40" y="215" on="1"/>
        <pt x="796" y="215" on="1"/>
        <pt x="867" y="275" on="0"/>
        <pt x="867" y="378" on="1"/>
        <pt x="867" y="452" on="0"/>
        <pt x="781" y="537" on="0"/>
        <pt x="705" y="537" on="1"/>
        <pt x="626" y="537" on="0"/>
        <pt x="540" y="458" on="0"/>
        <pt x="540" y="384" on="1"/>
        <pt x="540" y="352" on="0"/>
        <pt x="545" y="332" on="1"/>
      </contour>
      <contour>
        <pt x="1595" y="-377" on="1"/>
        <pt x="1595" y="0" on="1"/>
        <pt x="1556" y="0" on="1"/>
        <pt x="1149" y="-290" on="1"/>
        <pt x="1061" y="-353" on="0"/>
        <pt x="1015" y="-381" on="1"/>
        <pt x="1094" y="-377" on="0"/>
        <pt x="1232" y="-377" on="1"/>
      </contour>
    </TTGlyph>
    <TTGlyph name="glyph00161" xMin="40" yMin="-690" xMax="1951" yMax="1150">
      <contour>
        <pt x="255" y="309" on="1"/>
        <pt x="244" y="367" on="0"/>
        <pt x="244" y="415" on="1"/>
        <pt x="244" y="571" on="0"/>
        <pt x="485" y="751" on="0"/>
        <pt x="697" y="751" on="1"/>
        <pt x="925" y="751" on="0"/>
        <pt x="1159" y="561" on="0"/>
        <pt x="1159" y="400" on="1"/>
        <pt x="1159" y="302" on="0"/>
        <pt x="1092" y="215" on="1"/>
        <pt x="1587" y="215" on="1"/>
        <pt x="1587" y="1150" on="1"/>
        <pt x="1889" y="1150" on="1"/>
        <pt x="1889" y="0" on="1"/>
        <pt x="1829" y="0" on="1"/>
        <pt x="1890" y="-61" on="0"/>
        <pt x="1951" y="-219" on="0"/>
        <pt x="1951" y="-315" on="1"/>
        <pt x="1951" y="-499" on="0"/>
        <pt x="1773" y="-690" on="0"/>
        <pt x="1600" y="-690" on="1"/>
        <pt x="1448" y="-690" on="0"/>
        <pt x="1285" y="-527" on="0"/>
        <pt x="1285" y="-385" on="1"/>
        <pt x="1285" y="-253" on="0"/>
        <pt x="1439" y="-98" on="0"/>
        <pt x="1576" y="-98" on="1"/>
        <pt x="1631" y="-98" on="0"/>
        <pt x="1681" y="-117" on="1"/>
        <pt x="1645" y="-62" on="0"/>
        <pt x="1516" y="0" on="0"/>
        <pt x="1432" y="0" on="1"/>
        <pt x="1296" y="0" on="0"/>
        <pt x="1149" y="-146" on="0"/>
        <pt x="1149" y="-278" on="1"/>
        <pt x="1149" y="-362" on="0"/>
        <pt x="1199" y="-499" on="0"/>
        <pt x="1266" y="-588" on="1"/>
        <pt x="1171" y="-690" on="1"/>
        <pt x="40" y="-690" on="1"/>
        <pt x="40" y="-504" on="1"/>
        <pt x="509" y="-504" on="1"/>
        <pt x="559" y="-463" on="0"/>
        <pt x="559" y="-396" on="1"/>
        <pt x="559" y="-350" on="0"/>
        <pt x="510" y="-296" on="0"/>
        <pt x="464" y="-296" on="1"/>
        <pt x="415" y="-296" on="0"/>
        <pt x="367" y="-344" on="0"/>
        <pt x="367" y="-387" on="1"/>
        <pt x="367" y="-404" on="0"/>
        <pt x="370" y="-418" on="1"/>
        <pt x="143" y="-433" on="1"/>
        <pt x="135" y="-397" on="0"/>
        <pt x="135" y="-357" on="1"/>
        <pt x="135" y="-245" on="0"/>
        <pt x="309" y="-117" on="0"/>
        <pt x="462" y="-117" on="1"/>
        <pt x="626" y="-117" on="0"/>
        <pt x="792" y="-249" on="0"/>
        <pt x="792" y="-363" on="1"/>
        <pt x="792" y="-438" on="0"/>
        <pt x="740" y="-504" on="1"/>
        <pt x="968" y="-504" on="1"/>
        <pt x="900" y="-393" on="0"/>
        <pt x="900" y="-256" on="1"/>
        <pt x="900" y="-180" on="0"/>
        <pt x="955" y="-50" on="0"/>
        <pt x="1011" y="4" on="1"/>
        <pt x="958" y="0" on="0"/>
        <pt x="843" y="0" on="1"/>
        <pt x="40" y="0" on="1"/>
        <pt x="40" y="215" on="1"/>
        <pt x="796" y="215" on="1"/>
        <pt x="867" y="275" on="0"/>
        <pt x="867" y="378" on="1"/>
        <pt x="867" y="452" on="0"/>
        <pt x="781" y="537" on="0"/>
        <pt x="705" y="537" on="1"/>
        <pt x="626" y="537" on="0"/>
        <pt x="540" y="458" on="0"/>
        <pt x="540" y="384" on="1"/>
        <pt x="540" y="352" on="0"/>
        <pt x="545" y="332" on="1"/>
      </contour>
      <contour>
        <pt x="1720" y="-299" on="1"/>
        <pt x="1678" y="-260" on="0"/>
        <pt x="1624" y="-260" on="1"/>
        <pt x="1506" y="-260" on="0"/>
        <pt x="1506" y="-390" on="1"/>
        <pt x="1506" y="-454" on="0"/>
        <pt x="1559" y="-521" on="0"/>
        <pt x="1609" y="-521" on="1"/>
        <pt x="1666" y="-521" on="0"/>
        <pt x="1721" y="-426" on="0"/>
        <pt x="1721" y="-329" on="1"/>
        <pt x="1721" y="-315" on="0"/>
      </contour>
    </TTGlyph>
    <TTGlyph name="glyph00162" xMin="68" yMin="-60" xMax="4115" yMax="1178">
      <contour>
        <pt x="3222" y="1043" on="1"/>
        <pt x="3289" y="1110" on="0"/>
        <pt x="3484" y="1178" on="0"/>
        <pt x="3612" y="1178" on="1"/>
        <pt x="3771" y="1178" on="0"/>
        <pt x="3998" y="1071" on="0"/>
        <pt x="4115" y="876" on="0"/>
        <pt x="4115" y="757" on="1"/>
        <pt x="4115" y="642" on="0"/>
        <pt x="4037" y="484" on="0"/>
        <pt x="3957" y="426" on="1"/>
        <pt x="4008" y="393" on="0"/>
        <pt x="4060" y="297" on="0"/>
        <pt x="4060" y="233" on="1"/>
        <pt x="4060" y="108" on="0"/>
        <pt x="3878" y="-24" on="0"/>
        <pt x="3706" y="-24" on="1"/>
        <pt x="3561" y="-24" on="0"/>
        <pt x="3381" y="81" on="0"/>
        <pt x="3355" y="180" on="1"/>
        <pt x="3271" y="131" on="0"/>
        <pt x="2931" y="16" on="0"/>
        <pt x="2690" y="-24" on="0"/>
        <pt x="2560" y="-24" on="1"/>
        <pt x="2389" y="-24" on="0"/>
        <pt x="2214" y="104" on="0"/>
        <pt x="2214" y="231" on="1"/>
        <pt x="2214" y="324" on="0"/>
        <pt x="2315" y="441" on="0"/>
        <pt x="2494" y="485" on="0"/>
        <pt x="2648" y="485" on="1"/>
        <pt x="3278" y="485" on="1"/>
        <pt x="3433" y="485" on="0"/>
        <pt x="3626" y="498" on="0"/>
        <pt x="3761" y="554" on="0"/>
        <pt x="3830" y="657" on="0"/>
        <pt x="3830" y="739" on="1"/>
        <pt x="3830" y="846" on="0"/>
        <pt x="3698" y="968" on="0"/>
        <pt x="3576" y="968" on="1"/>
        <pt x="3495" y="968" on="0"/>
        <pt x="3405" y="906" on="0"/>
        <pt x="3373" y="795" on="0"/>
        <pt x="3373" y="685" on="1"/>
        <pt x="3373" y="541" on="1"/>
        <pt x="3100" y="541" on="1"/>
        <pt x="3100" y="627" on="1"/>
        <pt x="3100" y="735" on="0"/>
        <pt x="3076" y="852" on="0"/>
        <pt x="3003" y="939" on="0"/>
        <pt x="2877" y="992" on="0"/>
        <pt x="2772" y="992" on="1"/>
        <pt x="2703" y="992" on="0"/>
        <pt x="2644" y="983" on="1"/>
        <pt x="2768" y="976" on="0"/>
        <pt x="2902" y="854" on="0"/>
        <pt x="2902" y="754" on="1"/>
        <pt x="2902" y="639" on="0"/>
        <pt x="2726" y="500" on="0"/>
        <pt x="2561" y="500" on="1"/>
        <pt x="2434" y="500" on="0"/>
        <pt x="2347" y="550" on="1"/>
        <pt x="2260" y="440" on="0"/>
        <pt x="1995" y="209" on="0"/>
        <pt x="1636" y="30" on="0"/>
        <pt x="1126" y="-60" on="0"/>
        <pt x="667" y="-60" on="1"/>
        <pt x="439" y="-60" on="0"/>
        <pt x="180" y="8" on="0"/>
        <pt x="68" y="147" on="0"/>
        <pt x="68" y="231" on="1"/>
        <pt x="68" y="297" on="0"/>
        <pt x="121" y="395" on="0"/>
        <pt x="228" y="458" on="0"/>
        <pt x="385" y="485" on="0"/>
        <pt x="518" y="485" on="1"/>
        <pt x="1148" y="485" on="1"/>
        <pt x="1303" y="485" on="0"/>
        <pt x="1496" y="498" on="0"/>
        <pt x="1631" y="554" on="0"/>
        <pt x="1700" y="657" on="0"/>
        <pt x="1700" y="739" on="1"/>
        <pt x="1700" y="846" on="0"/>
        <pt x="1568" y="968" on="0"/>
        <pt x="1446" y="968" on="1"/>
        <pt x="1365" y="968" on="0"/>
        <pt x="1275" y="906" on="0"/>
        <pt x="1243" y="795" on="0"/>
        <pt x="1243" y="685" on="1"/>
        <pt x="1243" y="541" on="1"/>
        <pt x="970" y="541" on="1"/>
        <pt x="970" y="627" on="1"/>
        <pt x="970" y="735" on="0"/>
        <pt x="946" y="852" on="0"/>
        <pt x="873" y="939" on="0"/>
        <pt x="747" y="992" on="0"/>
        <pt x="642" y="992" on="1"/>
        <pt x="572" y="992" on="0"/>
        <pt x="514" y="983" on="1"/>
        <pt x="637" y="976" on="0"/>
        <pt x="772" y="855" on="0"/>
        <pt x="772" y="754" on="1"/>
        <pt x="772" y="639" on="0"/>
        <pt x="596" y="500" on="0"/>
        <pt x="431" y="500" on="1"/>
        <pt x="270" y="500" on="0"/>
        <pt x="80" y="657" on="0"/>
        <pt x="80" y="792" on="1"/>
        <pt x="80" y="970" on="0"/>
        <pt x="383" y="1178" on="0"/>
        <pt x="653" y="1178" on="1"/>
        <pt x="792" y="1178" on="0"/>
        <pt x="1003" y="1114" on="0"/>
        <pt x="1092" y="1043" on="1"/>
        <pt x="1159" y="1110" on="0"/>
        <pt x="1354" y="1178" on="0"/>
        <pt x="1482" y="1178" on="1"/>
        <pt x="1641" y="1178" on="0"/>
        <pt x="1868" y="1071" on="0"/>
        <pt x="1985" y="876" on="0"/>
        <pt x="1985" y="757" on="1"/>
        <pt x="1985" y="634" on="0"/>
        <pt x="1854" y="424" on="0"/>
        <pt x="1564" y="295" on="0"/>
        <pt x="1254" y="295" on="1"/>
        <pt x="489" y="295" on="1"/>
        <pt x="337" y="295" on="0"/>
        <pt x="337" y="230" on="1"/>
        <pt x="337" y="188" on="0"/>
        <pt x="452" y="153" on="0"/>
        <pt x="646" y="153" on="1"/>
        <pt x="683" y="153" on="1"/>
        <pt x="1015" y="153" on="0"/>
        <pt x="1455" y="202" on="0"/>
        <pt x="1807" y="336" on="0"/>
        <pt x="2092" y="568" on="0"/>
        <pt x="2215" y="737" on="1"/>
        <pt x="2210" y="763" on="0"/>
        <pt x="2210" y="792" on="1"/>
        <pt x="2210" y="970" on="0"/>
        <pt x="2512" y="1178" on="0"/>
        <pt x="2783" y="1178" on="1"/>
        <pt x="2922" y="1178" on="0"/>
        <pt x="3133" y="1114" on="0"/>
      </contour>
      <contour>
        <pt x="321" y="860" on="1"/>
        <pt x="309" y="831" on="0"/>
        <pt x="309" y="791" on="1"/>
        <pt x="309" y="670" on="0"/>
        <pt x="427" y="670" on="1"/>
        <pt x="479" y="670" on="0"/>
        <pt x="535" y="723" on="0"/>
        <pt x="535" y="767" on="1"/>
        <pt x="535" y="816" on="0"/>
        <pt x="472" y="870" on="0"/>
        <pt x="411" y="870" on="1"/>
        <pt x="372" y="870" on="0"/>
      </contour>
      <contour>
        <pt x="2451" y="860" on="1"/>
        <pt x="2439" y="831" on="0"/>
        <pt x="2439" y="791" on="1"/>
        <pt x="2439" y="670" on="0"/>
        <pt x="2557" y="670" on="1"/>
        <pt x="2609" y="670" on="0"/>
        <pt x="2665" y="723" on="0"/>
        <pt x="2665" y="767" on="1"/>
        <pt x="2665" y="816" on="0"/>
        <pt x="2602" y="870" on="0"/>
        <pt x="2541" y="870" on="1"/>
        <pt x="2502" y="870" on="0"/>
      </contour>
      <contour>
        <pt x="3585" y="295" on="1"/>
        <pt x="3582" y="277" on="0"/>
        <pt x="3582" y="266" on="1"/>
        <pt x="3582" y="150" on="0"/>
        <pt x="3699" y="150" on="1"/>
        <pt x="3757" y="150" on="0"/>
        <pt x="3816" y="195" on="0"/>
        <pt x="3816" y="236" on="1"/>
        <pt x="3816" y="280" on="0"/>
        <pt x="3756" y="326" on="0"/>
        <pt x="3701" y="326" on="1"/>
        <pt x="3639" y="326" on="0"/>
      </contour>
      <contour>
        <pt x="3207" y="308" on="1"/>
        <pt x="3127" y="299" on="0"/>
        <pt x="2943" y="299" on="1"/>
        <pt x="2624" y="299" on="1"/>
        <pt x="2541" y="299" on="0"/>
        <pt x="2467" y="270" on="0"/>
        <pt x="2467" y="233" on="1"/>
        <pt x="2467" y="167" on="0"/>
        <pt x="2580" y="167" on="1"/>
        <pt x="2652" y="167" on="0"/>
        <pt x="2798" y="188" on="0"/>
        <pt x="2931" y="225" on="0"/>
        <pt x="3102" y="277" on="1"/>
        <pt x="3155" y="294" on="0"/>
      </contour>
    </TTGlyph>
    <TTGlyph name="glyph00163" xMin="68" yMin="-60" xMax="5240" yMax="1178">
      <contour>
        <pt x="489" y="295" on="1"/>
        <pt x="337" y="295" on="0"/>
        <pt x="337" y="230" on="1"/>
        <pt x="337" y="188" on="0"/>
        <pt x="452" y="153" on="0"/>
        <pt x="646" y="153" on="1"/>
        <pt x="683" y="153" on="1"/>
        <pt x="1073" y="153" on="0"/>
        <pt x="1543" y="213" on="0"/>
        <pt x="1928" y="366" on="0"/>
        <pt x="2098" y="508" on="1"/>
        <pt x="2101" y="712" on="0"/>
        <pt x="2291" y="1017" on="0"/>
        <pt x="2634" y="1178" on="0"/>
        <pt x="2848" y="1178" on="1"/>
        <pt x="2997" y="1178" on="0"/>
        <pt x="3224" y="1107" on="0"/>
        <pt x="3328" y="1027" on="1"/>
        <pt x="3405" y="1105" on="0"/>
        <pt x="3629" y="1178" on="0"/>
        <pt x="3802" y="1178" on="1"/>
        <pt x="4003" y="1178" on="0"/>
        <pt x="4168" y="1108" on="1"/>
        <pt x="4332" y="1178" on="0"/>
        <pt x="4548" y="1178" on="1"/>
        <pt x="4768" y="1178" on="0"/>
        <pt x="5080" y="1031" on="0"/>
        <pt x="5240" y="753" on="0"/>
        <pt x="5240" y="573" on="1"/>
        <pt x="5240" y="394" on="0"/>
        <pt x="5093" y="110" on="0"/>
        <pt x="4920" y="-24" on="1"/>
        <pt x="4724" y="132" on="1"/>
        <pt x="4844" y="251" on="0"/>
        <pt x="4932" y="449" on="0"/>
        <pt x="4932" y="572" on="1"/>
        <pt x="4932" y="758" on="0"/>
        <pt x="4715" y="970" on="0"/>
        <pt x="4525" y="970" on="1"/>
        <pt x="4467" y="970" on="0"/>
        <pt x="4412" y="965" on="1"/>
        <pt x="4523" y="867" on="0"/>
        <pt x="4639" y="614" on="0"/>
        <pt x="4639" y="469" on="1"/>
        <pt x="4639" y="225" on="0"/>
        <pt x="4390" y="-24" on="0"/>
        <pt x="4150" y="-24" on="1"/>
        <pt x="3914" y="-24" on="0"/>
        <pt x="3659" y="232" on="0"/>
        <pt x="3659" y="471" on="1"/>
        <pt x="3659" y="612" on="0"/>
        <pt x="3789" y="865" on="0"/>
        <pt x="3915" y="966" on="1"/>
        <pt x="3875" y="970" on="0"/>
        <pt x="3833" y="970" on="1"/>
        <pt x="3754" y="970" on="0"/>
        <pt x="3651" y="949" on="0"/>
        <pt x="3550" y="890" on="0"/>
        <pt x="3493" y="810" on="0"/>
        <pt x="3463" y="676" on="0"/>
        <pt x="3463" y="573" on="1"/>
        <pt x="3463" y="0" on="1"/>
        <pt x="3161" y="0" on="1"/>
        <pt x="3161" y="599" on="1"/>
        <pt x="3161" y="750" on="0"/>
        <pt x="3100" y="888" on="0"/>
        <pt x="2964" y="960" on="0"/>
        <pt x="2843" y="960" on="1"/>
        <pt x="2675" y="960" on="0"/>
        <pt x="2442" y="805" on="0"/>
        <pt x="2399" y="662" on="1"/>
        <pt x="2504" y="711" on="0"/>
        <pt x="2618" y="711" on="1"/>
        <pt x="2789" y="711" on="0"/>
        <pt x="2983" y="522" on="0"/>
        <pt x="2983" y="357" on="1"/>
        <pt x="2983" y="178" on="0"/>
        <pt x="2765" y="-24" on="0"/>
        <pt x="2570" y="-24" on="1"/>
        <pt x="2413" y="-24" on="0"/>
        <pt x="2185" y="125" on="0"/>
        <pt x="2135" y="265" on="1"/>
        <pt x="1988" y="160" on="0"/>
        <pt x="1594" y="4" on="0"/>
        <pt x="1080" y="-60" on="0"/>
        <pt x="667" y="-60" on="1"/>
        <pt x="439" y="-60" on="0"/>
        <pt x="180" y="8" on="0"/>
        <pt x="68" y="147" on="0"/>
        <pt x="68" y="231" on="1"/>
        <pt x="68" y="297" on="0"/>
        <pt x="121" y="395" on="0"/>
        <pt x="228" y="458" on="0"/>
        <pt x="385" y="485" on="0"/>
        <pt x="518" y="485" on="1"/>
        <pt x="1148" y="485" on="1"/>
        <pt x="1303" y="485" on="0"/>
        <pt x="1496" y="498" on="0"/>
        <pt x="1631" y="554" on="0"/>
        <pt x="1700" y="657" on="0"/>
        <pt x="1700" y="739" on="1"/>
        <pt x="1700" y="846" on="0"/>
        <pt x="1568" y="968" on="0"/>
        <pt x="1446" y="968" on="1"/>
        <pt x="1365" y="968" on="0"/>
        <pt x="1275" y="906" on="0"/>
        <pt x="1243" y="795" on="0"/>
        <pt x="1243" y="685" on="1"/>
        <pt x="1243" y="541" on="1"/>
        <pt x="970" y="541" on="1"/>
        <pt x="970" y="627" on="1"/>
        <pt x="970" y="735" on="0"/>
        <pt x="946" y="852" on="0"/>
        <pt x="873" y="939" on="0"/>
        <pt x="747" y="992" on="0"/>
        <pt x="642" y="992" on="1"/>
        <pt x="572" y="992" on="0"/>
        <pt x="514" y="983" on="1"/>
        <pt x="637" y="976" on="0"/>
        <pt x="772" y="855" on="0"/>
        <pt x="772" y="754" on="1"/>
        <pt x="772" y="639" on="0"/>
        <pt x="596" y="500" on="0"/>
        <pt x="431" y="500" on="1"/>
        <pt x="270" y="500" on="0"/>
        <pt x="80" y="657" on="0"/>
        <pt x="80" y="792" on="1"/>
        <pt x="80" y="970" on="0"/>
        <pt x="383" y="1178" on="0"/>
        <pt x="653" y="1178" on="1"/>
        <pt x="792" y="1178" on="0"/>
        <pt x="1003" y="1114" on="0"/>
        <pt x="1092" y="1043" on="1"/>
        <pt x="1159" y="1110" on="0"/>
        <pt x="1354" y="1178" on="0"/>
        <pt x="1482" y="1178" on="1"/>
        <pt x="1641" y="1178" on="0"/>
        <pt x="1868" y="1071" on="0"/>
        <pt x="1985" y="876" on="0"/>
        <pt x="1985" y="757" on="1"/>
        <pt x="1985" y="634" on="0"/>
        <pt x="1854" y="424" on="0"/>
        <pt x="1564" y="295" on="0"/>
        <pt x="1254" y="295" on="1"/>
      </contour>
      <contour>
        <pt x="321" y="860" on="1"/>
        <pt x="309" y="831" on="0"/>
        <pt x="309" y="791" on="1"/>
        <pt x="309" y="670" on="0"/>
        <pt x="427" y="670" on="1"/>
        <pt x="479" y="670" on="0"/>
        <pt x="535" y="723" on="0"/>
        <pt x="535" y="767" on="1"/>
        <pt x="535" y="816" on="0"/>
        <pt x="472" y="870" on="0"/>
        <pt x="411" y="870" on="1"/>
        <pt x="372" y="870" on="0"/>
      </contour>
      <contour>
        <pt x="4152" y="869" on="1"/>
        <pt x="4059" y="795" on="0"/>
        <pt x="3963" y="590" on="0"/>
        <pt x="3963" y="479" on="1"/>
        <pt x="3963" y="191" on="0"/>
        <pt x="4150" y="191" on="1"/>
        <pt x="4240" y="191" on="0"/>
        <pt x="4335" y="329" on="0"/>
        <pt x="4335" y="466" on="1"/>
        <pt x="4335" y="587" on="0"/>
        <pt x="4241" y="796" on="0"/>
      </contour>
      <contour>
        <pt x="2375" y="449" on="1"/>
        <pt x="2381" y="314" on="0"/>
        <pt x="2473" y="180" on="0"/>
        <pt x="2560" y="180" on="1"/>
        <pt x="2624" y="180" on="0"/>
        <pt x="2693" y="262" on="0"/>
        <pt x="2693" y="341" on="1"/>
        <pt x="2693" y="419" on="0"/>
        <pt x="2620" y="507" on="0"/>
        <pt x="2546" y="507" on="1"/>
        <pt x="2460" y="507" on="0"/>
      </contour>
    </TTGlyph>
    <TTGlyph name="glyph00164" xMin="75" yMin="-24" xMax="3618" yMax="1178">
      <contour>
        <pt x="1698" y="215" on="1"/>
        <pt x="2591" y="215" on="1"/>
        <pt x="2670" y="318" on="0"/>
        <pt x="2732" y="495" on="0"/>
        <pt x="2732" y="599" on="1"/>
        <pt x="2732" y="767" on="0"/>
        <pt x="2526" y="970" on="0"/>
        <pt x="2349" y="970" on="1"/>
        <pt x="2335" y="970" on="0"/>
        <pt x="2315" y="968" on="1"/>
        <pt x="2485" y="834" on="0"/>
        <pt x="2485" y="626" on="1"/>
        <pt x="2485" y="463" on="0"/>
        <pt x="2266" y="280" on="0"/>
        <pt x="2075" y="280" on="1"/>
        <pt x="1881" y="280" on="0"/>
        <pt x="1665" y="465" on="0"/>
        <pt x="1665" y="626" on="1"/>
        <pt x="1665" y="829" on="0"/>
        <pt x="1845" y="968" on="1"/>
        <pt x="1827" y="970" on="0"/>
        <pt x="1811" y="970" on="1"/>
        <pt x="1681" y="970" on="0"/>
        <pt x="1504" y="867" on="0"/>
        <pt x="1440" y="686" on="0"/>
        <pt x="1440" y="513" on="1"/>
        <pt x="1440" y="0" on="1"/>
        <pt x="1138" y="0" on="1"/>
        <pt x="1138" y="551" on="1"/>
        <pt x="1138" y="689" on="0"/>
        <pt x="1094" y="859" on="0"/>
        <pt x="948" y="960" on="0"/>
        <pt x="812" y="960" on="1"/>
        <pt x="648" y="960" on="0"/>
        <pt x="419" y="804" on="0"/>
        <pt x="375" y="662" on="1"/>
        <pt x="481" y="711" on="0"/>
        <pt x="595" y="711" on="1"/>
        <pt x="766" y="711" on="0"/>
        <pt x="960" y="522" on="0"/>
        <pt x="960" y="357" on="1"/>
        <pt x="960" y="178" on="0"/>
        <pt x="742" y="-24" on="0"/>
        <pt x="547" y="-24" on="1"/>
        <pt x="332" y="-24" on="0"/>
        <pt x="75" y="248" on="0"/>
        <pt x="75" y="496" on="1"/>
        <pt x="75" y="702" on="0"/>
        <pt x="260" y="1011" on="0"/>
        <pt x="602" y="1178" on="0"/>
        <pt x="817" y="1178" on="1"/>
        <pt x="974" y="1178" on="0"/>
        <pt x="1208" y="1099" on="0"/>
        <pt x="1306" y="1011" on="1"/>
        <pt x="1407" y="1100" on="0"/>
        <pt x="1639" y="1178" on="0"/>
        <pt x="1794" y="1178" on="1"/>
        <pt x="1965" y="1178" on="0"/>
        <pt x="2094" y="1127" on="1"/>
        <pt x="2238" y="1178" on="0"/>
        <pt x="2392" y="1178" on="1"/>
        <pt x="2597" y="1178" on="0"/>
        <pt x="2886" y="1037" on="0"/>
        <pt x="3038" y="774" on="0"/>
        <pt x="3038" y="614" on="1"/>
        <pt x="3038" y="501" on="0"/>
        <pt x="2978" y="312" on="0"/>
        <pt x="2909" y="215" on="1"/>
        <pt x="3316" y="215" on="1"/>
        <pt x="3316" y="1150" on="1"/>
        <pt x="3618" y="1150" on="1"/>
        <pt x="3618" y="0" on="1"/>
        <pt x="1697" y="0" on="1"/>
      </contour>
      <contour>
        <pt x="2080" y="909" on="1"/>
        <pt x="2016" y="860" on="0"/>
        <pt x="1944" y="716" on="0"/>
        <pt x="1944" y="641" on="1"/>
        <pt x="1944" y="563" on="0"/>
        <pt x="2012" y="482" on="0"/>
        <pt x="2075" y="482" on="1"/>
        <pt x="2138" y="482" on="0"/>
        <pt x="2206" y="562" on="0"/>
        <pt x="2206" y="640" on="1"/>
        <pt x="2206" y="709" on="0"/>
        <pt x="2141" y="853" on="0"/>
      </contour>
      <contour>
        <pt x="352" y="449" on="1"/>
        <pt x="358" y="314" on="0"/>
        <pt x="450" y="180" on="0"/>
        <pt x="537" y="180" on="1"/>
        <pt x="601" y="180" on="0"/>
        <pt x="670" y="262" on="0"/>
        <pt x="670" y="341" on="1"/>
        <pt x="670" y="419" on="0"/>
        <pt x="597" y="507" on="0"/>
        <pt x="523" y="507" on="1"/>
        <pt x="437" y="507" on="0"/>
      </contour>
    </TTGlyph>
    <TTGlyph name="glyph00165" xMin="75" yMin="-24" xMax="4807" yMax="1178">
      <contour>
        <pt x="4433" y="805" on="1"/>
        <pt x="4370" y="880" on="0"/>
        <pt x="4169" y="959" on="0"/>
        <pt x="4044" y="959" on="1"/>
        <pt x="3823" y="959" on="0"/>
        <pt x="3588" y="758" on="0"/>
        <pt x="3588" y="575" on="1"/>
        <pt x="3588" y="458" on="0"/>
        <pt x="3670" y="255" on="0"/>
        <pt x="3779" y="124" on="1"/>
        <pt x="3689" y="0" on="1"/>
        <pt x="1697" y="0" on="1"/>
        <pt x="1698" y="215" on="1"/>
        <pt x="2591" y="215" on="1"/>
        <pt x="2670" y="318" on="0"/>
        <pt x="2732" y="495" on="0"/>
        <pt x="2732" y="599" on="1"/>
        <pt x="2732" y="767" on="0"/>
        <pt x="2526" y="970" on="0"/>
        <pt x="2349" y="970" on="1"/>
        <pt x="2335" y="970" on="0"/>
        <pt x="2315" y="968" on="1"/>
        <pt x="2485" y="834" on="0"/>
        <pt x="2485" y="626" on="1"/>
        <pt x="2485" y="463" on="0"/>
        <pt x="2266" y="280" on="0"/>
        <pt x="2075" y="280" on="1"/>
        <pt x="1881" y="280" on="0"/>
        <pt x="1665" y="465" on="0"/>
        <pt x="1665" y="626" on="1"/>
        <pt x="1665" y="829" on="0"/>
        <pt x="1845" y="968" on="1"/>
        <pt x="1827" y="970" on="0"/>
        <pt x="1811" y="970" on="1"/>
        <pt x="1681" y="970" on="0"/>
        <pt x="1504" y="867" on="0"/>
        <pt x="1440" y="686" on="0"/>
        <pt x="1440" y="513" on="1"/>
        <pt x="1440" y="0" on="1"/>
        <pt x="1138" y="0" on="1"/>
        <pt x="1138" y="551" on="1"/>
        <pt x="1138" y="689" on="0"/>
        <pt x="1094" y="859" on="0"/>
        <pt x="948" y="960" on="0"/>
        <pt x="812" y="960" on="1"/>
        <pt x="648" y="960" on="0"/>
        <pt x="419" y="804" on="0"/>
        <pt x="375" y="662" on="1"/>
        <pt x="481" y="711" on="0"/>
        <pt x="595" y="711" on="1"/>
        <pt x="766" y="711" on="0"/>
        <pt x="960" y="522" on="0"/>
        <pt x="960" y="357" on="1"/>
        <pt x="960" y="178" on="0"/>
        <pt x="742" y="-24" on="0"/>
        <pt x="547" y="-24" on="1"/>
        <pt x="332" y="-24" on="0"/>
        <pt x="75" y="248" on="0"/>
        <pt x="75" y="496" on="1"/>
        <pt x="75" y="702" on="0"/>
        <pt x="260" y="1011" on="0"/>
        <pt x="602" y="1178" on="0"/>
        <pt x="817" y="1178" on="1"/>
        <pt x="974" y="1178" on="0"/>
        <pt x="1208" y="1099" on="0"/>
        <pt x="1306" y="1011" on="1"/>
        <pt x="1407" y="1100" on="0"/>
        <pt x="1639" y="1178" on="0"/>
        <pt x="1794" y="1178" on="1"/>
        <pt x="1965" y="1178" on="0"/>
        <pt x="2094" y="1127" on="1"/>
        <pt x="2238" y="1178" on="0"/>
        <pt x="2392" y="1178" on="1"/>
        <pt x="2597" y="1178" on="0"/>
        <pt x="2886" y="1037" on="0"/>
        <pt x="3038" y="774" on="0"/>
        <pt x="3038" y="614" on="1"/>
        <pt x="3038" y="501" on="0"/>
        <pt x="2978" y="312" on="0"/>
        <pt x="2909" y="215" on="1"/>
        <pt x="3397" y="215" on="1"/>
        <pt x="3282" y="388" on="0"/>
        <pt x="3282" y="588" on="1"/>
        <pt x="3282" y="759" on="0"/>
        <pt x="3455" y="1032" on="0"/>
        <pt x="3785" y="1178" on="0"/>
        <pt x="4012" y="1178" on="1"/>
        <pt x="4257" y="1178" on="0"/>
        <pt x="4618" y="1005" on="0"/>
        <pt x="4807" y="687" on="0"/>
        <pt x="4807" y="484" on="1"/>
        <pt x="4807" y="232" on="0"/>
        <pt x="4552" y="-24" on="0"/>
        <pt x="4310" y="-24" on="1"/>
        <pt x="4094" y="-24" on="0"/>
        <pt x="3859" y="216" on="0"/>
        <pt x="3859" y="421" on="1"/>
        <pt x="3859" y="614" on="0"/>
        <pt x="4078" y="839" on="0"/>
        <pt x="4269" y="839" on="1"/>
        <pt x="4355" y="839" on="0"/>
      </contour>
      <contour>
        <pt x="2080" y="909" on="1"/>
        <pt x="2016" y="860" on="0"/>
        <pt x="1944" y="716" on="0"/>
        <pt x="1944" y="641" on="1"/>
        <pt x="1944" y="563" on="0"/>
        <pt x="2012" y="482" on="0"/>
        <pt x="2075" y="482" on="1"/>
        <pt x="2138" y="482" on="0"/>
        <pt x="2206" y="562" on="0"/>
        <pt x="2206" y="640" on="1"/>
        <pt x="2206" y="709" on="0"/>
        <pt x="2141" y="853" on="0"/>
      </contour>
      <contour>
        <pt x="4509" y="559" on="1"/>
        <pt x="4436" y="634" on="0"/>
        <pt x="4342" y="634" on="1"/>
        <pt x="4249" y="634" on="0"/>
        <pt x="4152" y="523" on="0"/>
        <pt x="4152" y="413" on="1"/>
        <pt x="4152" y="307" on="0"/>
        <pt x="4240" y="191" on="0"/>
        <pt x="4324" y="191" on="1"/>
        <pt x="4416" y="191" on="0"/>
        <pt x="4512" y="340" on="0"/>
        <pt x="4512" y="489" on="1"/>
        <pt x="4512" y="521" on="0"/>
      </contour>
      <contour>
        <pt x="352" y="449" on="1"/>
        <pt x="358" y="314" on="0"/>
        <pt x="450" y="180" on="0"/>
        <pt x="537" y="180" on="1"/>
        <pt x="601" y="180" on="0"/>
        <pt x="670" y="262" on="0"/>
        <pt x="670" y="341" on="1"/>
        <pt x="670" y="419" on="0"/>
        <pt x="597" y="507" on="0"/>
        <pt x="523" y="507" on="1"/>
        <pt x="437" y="507" on="0"/>
      </contour>
    </TTGlyph>
    <TTGlyph name="glyph00166" xMin="75" yMin="-24" xMax="3607" yMax="1178">
      <contour>
        <pt x="3449" y="426" on="1"/>
        <pt x="3500" y="393" on="0"/>
        <pt x="3552" y="297" on="0"/>
        <pt x="3552" y="233" on="1"/>
        <pt x="3552" y="108" on="0"/>
        <pt x="3370" y="-24" on="0"/>
        <pt x="3198" y="-24" on="1"/>
        <pt x="3053" y="-24" on="0"/>
        <pt x="2873" y="81" on="0"/>
        <pt x="2847" y="180" on="1"/>
        <pt x="2763" y="131" on="0"/>
        <pt x="2423" y="16" on="0"/>
        <pt x="2182" y="-24" on="0"/>
        <pt x="2052" y="-24" on="1"/>
        <pt x="1873" y="-24" on="0"/>
        <pt x="1690" y="104" on="0"/>
        <pt x="1690" y="231" on="1"/>
        <pt x="1690" y="297" on="0"/>
        <pt x="1743" y="395" on="0"/>
        <pt x="1850" y="458" on="0"/>
        <pt x="2007" y="485" on="0"/>
        <pt x="2140" y="485" on="1"/>
        <pt x="2770" y="485" on="1"/>
        <pt x="2925" y="485" on="0"/>
        <pt x="3118" y="498" on="0"/>
        <pt x="3253" y="554" on="0"/>
        <pt x="3322" y="657" on="0"/>
        <pt x="3322" y="739" on="1"/>
        <pt x="3322" y="846" on="0"/>
        <pt x="3190" y="968" on="0"/>
        <pt x="3068" y="968" on="1"/>
        <pt x="2987" y="968" on="0"/>
        <pt x="2897" y="906" on="0"/>
        <pt x="2865" y="795" on="0"/>
        <pt x="2865" y="685" on="1"/>
        <pt x="2865" y="541" on="1"/>
        <pt x="2592" y="541" on="1"/>
        <pt x="2592" y="627" on="1"/>
        <pt x="2592" y="734" on="0"/>
        <pt x="2568" y="850" on="0"/>
        <pt x="2501" y="935" on="0"/>
        <pt x="2381" y="989" on="0"/>
        <pt x="2279" y="992" on="1"/>
        <pt x="2341" y="948" on="0"/>
        <pt x="2399" y="839" on="0"/>
        <pt x="2399" y="761" on="1"/>
        <pt x="2399" y="633" on="0"/>
        <pt x="2223" y="494" on="0"/>
        <pt x="2053" y="494" on="1"/>
        <pt x="1887" y="494" on="0"/>
        <pt x="1702" y="644" on="0"/>
        <pt x="1702" y="767" on="1"/>
        <pt x="1702" y="888" on="0"/>
        <pt x="1780" y="969" on="1"/>
        <pt x="1661" y="963" on="0"/>
        <pt x="1498" y="858" on="0"/>
        <pt x="1440" y="680" on="0"/>
        <pt x="1440" y="513" on="1"/>
        <pt x="1440" y="0" on="1"/>
        <pt x="1138" y="0" on="1"/>
        <pt x="1138" y="551" on="1"/>
        <pt x="1138" y="689" on="0"/>
        <pt x="1094" y="859" on="0"/>
        <pt x="948" y="960" on="0"/>
        <pt x="812" y="960" on="1"/>
        <pt x="648" y="960" on="0"/>
        <pt x="419" y="804" on="0"/>
        <pt x="375" y="662" on="1"/>
        <pt x="481" y="711" on="0"/>
        <pt x="595" y="711" on="1"/>
        <pt x="766" y="711" on="0"/>
        <pt x="960" y="522" on="0"/>
        <pt x="960" y="357" on="1"/>
        <pt x="960" y="178" on="0"/>
        <pt x="742" y="-24" on="0"/>
        <pt x="547" y="-24" on="1"/>
        <pt x="332" y="-24" on="0"/>
        <pt x="75" y="248" on="0"/>
        <pt x="75" y="496" on="1"/>
        <pt x="75" y="702" on="0"/>
        <pt x="260" y="1011" on="0"/>
        <pt x="602" y="1178" on="0"/>
        <pt x="817" y="1178" on="1"/>
        <pt x="975" y="1178" on="0"/>
        <pt x="1208" y="1099" on="0"/>
        <pt x="1306" y="1011" on="1"/>
        <pt x="1407" y="1099" on="0"/>
        <pt x="1642" y="1178" on="0"/>
        <pt x="1794" y="1178" on="1"/>
        <pt x="1935" y="1178" on="0"/>
        <pt x="2041" y="1146" on="1"/>
        <pt x="2155" y="1178" on="0"/>
        <pt x="2275" y="1178" on="1"/>
        <pt x="2414" y="1178" on="0"/>
        <pt x="2625" y="1114" on="0"/>
        <pt x="2714" y="1043" on="1"/>
        <pt x="2781" y="1110" on="0"/>
        <pt x="2976" y="1178" on="0"/>
        <pt x="3104" y="1178" on="1"/>
        <pt x="3263" y="1178" on="0"/>
        <pt x="3490" y="1071" on="0"/>
        <pt x="3607" y="876" on="0"/>
        <pt x="3607" y="757" on="1"/>
        <pt x="3607" y="642" on="0"/>
        <pt x="3529" y="484" on="0"/>
      </contour>
      <contour>
        <pt x="2036" y="936" on="1"/>
        <pt x="1985" y="906" on="0"/>
        <pt x="1932" y="825" on="0"/>
        <pt x="1932" y="779" on="1"/>
        <pt x="1932" y="670" on="0"/>
        <pt x="2047" y="670" on="1"/>
        <pt x="2153" y="670" on="0"/>
        <pt x="2153" y="776" on="1"/>
        <pt x="2153" y="831" on="0"/>
        <pt x="2094" y="911" on="0"/>
      </contour>
      <contour>
        <pt x="352" y="449" on="1"/>
        <pt x="358" y="314" on="0"/>
        <pt x="450" y="180" on="0"/>
        <pt x="537" y="180" on="1"/>
        <pt x="601" y="180" on="0"/>
        <pt x="670" y="262" on="0"/>
        <pt x="670" y="341" on="1"/>
        <pt x="670" y="419" on="0"/>
        <pt x="597" y="507" on="0"/>
        <pt x="523" y="507" on="1"/>
        <pt x="437" y="507" on="0"/>
      </contour>
      <contour>
        <pt x="3077" y="295" on="1"/>
        <pt x="3074" y="277" on="0"/>
        <pt x="3074" y="266" on="1"/>
        <pt x="3074" y="150" on="0"/>
        <pt x="3191" y="150" on="1"/>
        <pt x="3249" y="150" on="0"/>
        <pt x="3308" y="195" on="0"/>
        <pt x="3308" y="236" on="1"/>
        <pt x="3308" y="280" on="0"/>
        <pt x="3248" y="326" on="0"/>
        <pt x="3193" y="326" on="1"/>
        <pt x="3131" y="326" on="0"/>
      </contour>
      <contour>
        <pt x="2699" y="308" on="1"/>
        <pt x="2619" y="299" on="0"/>
        <pt x="2435" y="299" on="1"/>
        <pt x="2116" y="299" on="1"/>
        <pt x="2033" y="299" on="0"/>
        <pt x="1959" y="270" on="0"/>
        <pt x="1959" y="233" on="1"/>
        <pt x="1959" y="167" on="0"/>
        <pt x="2072" y="167" on="1"/>
        <pt x="2144" y="167" on="0"/>
        <pt x="2290" y="188" on="0"/>
        <pt x="2423" y="225" on="0"/>
        <pt x="2594" y="277" on="1"/>
        <pt x="2647" y="294" on="0"/>
      </contour>
    </TTGlyph>
    <TTGlyph name="glyph00167" xMin="75" yMin="-24" xMax="4959" yMax="1178">
      <contour>
        <pt x="2857" y="513" on="1"/>
        <pt x="2857" y="681" on="0"/>
        <pt x="2799" y="861" on="0"/>
        <pt x="2625" y="970" on="0"/>
        <pt x="2487" y="970" on="1"/>
        <pt x="2448" y="970" on="0"/>
        <pt x="2406" y="966" on="1"/>
        <pt x="2520" y="868" on="0"/>
        <pt x="2638" y="615" on="0"/>
        <pt x="2638" y="469" on="1"/>
        <pt x="2638" y="225" on="0"/>
        <pt x="2389" y="-24" on="0"/>
        <pt x="2149" y="-24" on="1"/>
        <pt x="1914" y="-24" on="0"/>
        <pt x="1658" y="233" on="0"/>
        <pt x="1658" y="471" on="1"/>
        <pt x="1658" y="611" on="0"/>
        <pt x="1786" y="862" on="0"/>
        <pt x="1909" y="962" on="1"/>
        <pt x="1857" y="970" on="0"/>
        <pt x="1811" y="970" on="1"/>
        <pt x="1676" y="970" on="0"/>
        <pt x="1501" y="864" on="0"/>
        <pt x="1440" y="683" on="0"/>
        <pt x="1440" y="513" on="1"/>
        <pt x="1440" y="0" on="1"/>
        <pt x="1138" y="0" on="1"/>
        <pt x="1138" y="551" on="1"/>
        <pt x="1138" y="689" on="0"/>
        <pt x="1094" y="859" on="0"/>
        <pt x="948" y="960" on="0"/>
        <pt x="812" y="960" on="1"/>
        <pt x="648" y="960" on="0"/>
        <pt x="419" y="804" on="0"/>
        <pt x="375" y="662" on="1"/>
        <pt x="481" y="711" on="0"/>
        <pt x="595" y="711" on="1"/>
        <pt x="766" y="711" on="0"/>
        <pt x="960" y="522" on="0"/>
        <pt x="960" y="357" on="1"/>
        <pt x="960" y="178" on="0"/>
        <pt x="742" y="-24" on="0"/>
        <pt x="547" y="-24" on="1"/>
        <pt x="332" y="-24" on="0"/>
        <pt x="75" y="248" on="0"/>
        <pt x="75" y="496" on="1"/>
        <pt x="75" y="702" on="0"/>
        <pt x="260" y="1011" on="0"/>
        <pt x="602" y="1178" on="0"/>
        <pt x="817" y="1178" on="1"/>
        <pt x="974" y="1178" on="0"/>
        <pt x="1208" y="1099" on="0"/>
        <pt x="1306" y="1011" on="1"/>
        <pt x="1407" y="1100" on="0"/>
        <pt x="1647" y="1178" on="0"/>
        <pt x="1812" y="1178" on="1"/>
        <pt x="2001" y="1178" on="0"/>
        <pt x="2156" y="1112" on="1"/>
        <pt x="2316" y="1178" on="0"/>
        <pt x="2494" y="1178" on="1"/>
        <pt x="2658" y="1178" on="0"/>
        <pt x="2901" y="1096" on="0"/>
        <pt x="3009" y="996" on="1"/>
        <pt x="3113" y="1095" on="0"/>
        <pt x="3360" y="1178" on="0"/>
        <pt x="3531" y="1178" on="1"/>
        <pt x="3717" y="1178" on="0"/>
        <pt x="3874" y="1113" on="1"/>
        <pt x="4029" y="1178" on="0"/>
        <pt x="4262" y="1178" on="1"/>
        <pt x="4483" y="1178" on="0"/>
        <pt x="4796" y="1032" on="0"/>
        <pt x="4959" y="754" on="0"/>
        <pt x="4959" y="573" on="1"/>
        <pt x="4959" y="394" on="0"/>
        <pt x="4812" y="110" on="0"/>
        <pt x="4639" y="-24" on="1"/>
        <pt x="4443" y="132" on="1"/>
        <pt x="4563" y="251" on="0"/>
        <pt x="4651" y="449" on="0"/>
        <pt x="4651" y="572" on="1"/>
        <pt x="4651" y="759" on="0"/>
        <pt x="4432" y="970" on="0"/>
        <pt x="4236" y="970" on="1"/>
        <pt x="4176" y="970" on="0"/>
        <pt x="4126" y="964" on="1"/>
        <pt x="4241" y="864" on="0"/>
        <pt x="4358" y="611" on="0"/>
        <pt x="4358" y="469" on="1"/>
        <pt x="4358" y="225" on="0"/>
        <pt x="4109" y="-24" on="0"/>
        <pt x="3869" y="-24" on="1"/>
        <pt x="3633" y="-24" on="0"/>
        <pt x="3378" y="232" on="0"/>
        <pt x="3378" y="471" on="1"/>
        <pt x="3378" y="615" on="0"/>
        <pt x="3503" y="867" on="0"/>
        <pt x="3625" y="965" on="1"/>
        <pt x="3578" y="970" on="0"/>
        <pt x="3530" y="970" on="1"/>
        <pt x="3395" y="970" on="0"/>
        <pt x="3220" y="864" on="0"/>
        <pt x="3159" y="683" on="0"/>
        <pt x="3159" y="513" on="1"/>
        <pt x="3159" y="0" on="1"/>
        <pt x="2857" y="0" on="1"/>
      </contour>
      <contour>
        <pt x="2150" y="870" on="1"/>
        <pt x="2060" y="798" on="0"/>
        <pt x="1962" y="592" on="0"/>
        <pt x="1962" y="479" on="1"/>
        <pt x="1962" y="191" on="0"/>
        <pt x="2149" y="191" on="1"/>
        <pt x="2239" y="191" on="0"/>
        <pt x="2334" y="329" on="0"/>
        <pt x="2334" y="466" on="1"/>
        <pt x="2334" y="589" on="0"/>
        <pt x="2239" y="798" on="0"/>
      </contour>
      <contour>
        <pt x="3871" y="869" on="1"/>
        <pt x="3779" y="795" on="0"/>
        <pt x="3682" y="584" on="0"/>
        <pt x="3682" y="466" on="1"/>
        <pt x="3682" y="191" on="0"/>
        <pt x="3869" y="191" on="1"/>
        <pt x="3959" y="191" on="0"/>
        <pt x="4054" y="329" on="0"/>
        <pt x="4054" y="466" on="1"/>
        <pt x="4054" y="587" on="0"/>
        <pt x="3960" y="796" on="0"/>
      </contour>
      <contour>
        <pt x="352" y="449" on="1"/>
        <pt x="358" y="314" on="0"/>
        <pt x="450" y="180" on="0"/>
        <pt x="537" y="180" on="1"/>
        <pt x="601" y="180" on="0"/>
        <pt x="670" y="262" on="0"/>
        <pt x="670" y="341" on="1"/>
        <pt x="670" y="419" on="0"/>
        <pt x="597" y="507" on="0"/>
        <pt x="523" y="507" on="1"/>
        <pt x="437" y="507" on="0"/>
      </contour>
    </TTGlyph>
    <TTGlyph name="glyph00168" xMin="28" yMin="-504" xMax="1210" yMax="1178">
      <contour>
        <pt x="1077" y="112" on="1"/>
        <pt x="1136" y="66" on="0"/>
        <pt x="1195" y="-60" on="0"/>
        <pt x="1195" y="-141" on="1"/>
        <pt x="1195" y="-312" on="0"/>
        <pt x="907" y="-504" on="0"/>
        <pt x="639" y="-504" on="1"/>
        <pt x="298" y="-504" on="0"/>
        <pt x="28" y="-359" on="1"/>
        <pt x="147" y="-162" on="1"/>
        <pt x="266" y="-227" on="0"/>
        <pt x="487" y="-283" on="0"/>
        <pt x="619" y="-283" on="1"/>
        <pt x="896" y="-283" on="0"/>
        <pt x="896" y="-137" on="1"/>
        <pt x="896" y="-45" on="0"/>
        <pt x="794" y="7" on="1"/>
        <pt x="743" y="0" on="0"/>
        <pt x="676" y="0" on="1"/>
        <pt x="59" y="0" on="1"/>
        <pt x="59" y="215" on="1"/>
        <pt x="629" y="215" on="1"/>
        <pt x="791" y="215" on="0"/>
        <pt x="889" y="283" on="0"/>
        <pt x="889" y="351" on="1"/>
        <pt x="889" y="391" on="0"/>
        <pt x="843" y="448" on="0"/>
        <pt x="758" y="473" on="0"/>
        <pt x="667" y="473" on="1"/>
        <pt x="592" y="473" on="1"/>
        <pt x="314" y="473" on="0"/>
        <pt x="58" y="643" on="0"/>
        <pt x="58" y="818" on="1"/>
        <pt x="58" y="981" on="0"/>
        <pt x="342" y="1178" on="0"/>
        <pt x="602" y="1178" on="1"/>
        <pt x="945" y="1178" on="0"/>
        <pt x="1210" y="1039" on="1"/>
        <pt x="1088" y="843" on="1"/>
        <pt x="960" y="908" on="0"/>
        <pt x="745" y="957" on="0"/>
        <pt x="622" y="957" on="1"/>
        <pt x="497" y="957" on="0"/>
        <pt x="364" y="884" on="0"/>
        <pt x="364" y="821" on="1"/>
        <pt x="364" y="776" on="0"/>
        <pt x="413" y="721" on="0"/>
        <pt x="510" y="694" on="0"/>
        <pt x="629" y="694" on="1"/>
        <pt x="694" y="694" on="1"/>
        <pt x="857" y="694" on="0"/>
        <pt x="1064" y="631" on="0"/>
        <pt x="1195" y="483" on="0"/>
        <pt x="1195" y="351" on="1"/>
        <pt x="1195" y="278" on="0"/>
        <pt x="1136" y="159" on="0"/>
      </contour>
    </TTGlyph>
    <TTGlyph name="glyph00169" xMin="75" yMin="-690" xMax="2657" yMax="1178">
      <contour>
        <pt x="1876" y="1150" on="1"/>
        <pt x="1876" y="534" on="1"/>
        <pt x="1876" y="423" on="0"/>
        <pt x="1891" y="315" on="0"/>
        <pt x="1938" y="239" on="0"/>
        <pt x="2025" y="194" on="0"/>
        <pt x="2076" y="194" on="1"/>
        <pt x="2202" y="194" on="0"/>
        <pt x="2352" y="391" on="0"/>
        <pt x="2352" y="563" on="1"/>
        <pt x="2352" y="690" on="0"/>
        <pt x="2254" y="912" on="0"/>
        <pt x="2154" y="1022" on="1"/>
        <pt x="2367" y="1178" on="1"/>
        <pt x="2522" y="1030" on="0"/>
        <pt x="2657" y="726" on="0"/>
        <pt x="2657" y="541" on="1"/>
        <pt x="2657" y="414" on="0"/>
        <pt x="2580" y="208" on="0"/>
        <pt x="2504" y="129" on="1"/>
        <pt x="2580" y="42" on="0"/>
        <pt x="2657" y="-155" on="0"/>
        <pt x="2657" y="-266" on="1"/>
        <pt x="2657" y="-459" on="0"/>
        <pt x="2420" y="-690" on="0"/>
        <pt x="2224" y="-690" on="1"/>
        <pt x="2135" y="-690" on="0"/>
        <pt x="1999" y="-638" on="0"/>
        <pt x="1943" y="-587" on="1"/>
        <pt x="1888" y="-641" on="0"/>
        <pt x="1753" y="-690" on="0"/>
        <pt x="1662" y="-690" on="1"/>
        <pt x="1481" y="-690" on="0"/>
        <pt x="1262" y="-513" on="0"/>
        <pt x="1262" y="-293" on="1"/>
        <pt x="1262" y="-272" on="1"/>
        <pt x="1262" y="-172" on="0"/>
        <pt x="1244" y="-63" on="0"/>
        <pt x="1173" y="0" on="0"/>
        <pt x="1111" y="0" on="1"/>
        <pt x="1025" y="0" on="0"/>
        <pt x="932" y="-126" on="0"/>
        <pt x="932" y="-248" on="1"/>
        <pt x="932" y="-436" on="0"/>
        <pt x="1051" y="-573" on="1"/>
        <pt x="860" y="-690" on="1"/>
        <pt x="677" y="-502" on="0"/>
        <pt x="677" y="-250" on="1"/>
        <pt x="677" y="-98" on="0"/>
        <pt x="818" y="109" on="0"/>
        <pt x="947" y="151" on="1"/>
        <pt x="897" y="209" on="0"/>
        <pt x="844" y="387" on="0"/>
        <pt x="844" y="525" on="1"/>
        <pt x="844" y="557" on="1"/>
        <pt x="844" y="751" on="0"/>
        <pt x="802" y="894" on="0"/>
        <pt x="706" y="958" on="0"/>
        <pt x="627" y="958" on="1"/>
        <pt x="510" y="958" on="0"/>
        <pt x="380" y="773" on="0"/>
        <pt x="380" y="598" on="1"/>
        <pt x="380" y="467" on="0"/>
        <pt x="476" y="244" on="0"/>
        <pt x="578" y="132" on="1"/>
        <pt x="365" y="-24" on="1"/>
        <pt x="212" y="122" on="0"/>
        <pt x="75" y="427" on="0"/>
        <pt x="75" y="613" on="1"/>
        <pt x="75" y="782" on="0"/>
        <pt x="217" y="1039" on="0"/>
        <pt x="475" y="1177" on="0"/>
        <pt x="642" y="1177" on="1"/>
        <pt x="809" y="1177" on="0"/>
        <pt x="1033" y="1065" on="0"/>
        <pt x="1152" y="836" on="0"/>
        <pt x="1152" y="629" on="1"/>
        <pt x="1152" y="566" on="1"/>
        <pt x="1152" y="434" on="0"/>
        <pt x="1179" y="282" on="0"/>
        <pt x="1276" y="195" on="0"/>
        <pt x="1361" y="195" on="1"/>
        <pt x="1420" y="195" on="0"/>
        <pt x="1517" y="243" on="0"/>
        <pt x="1574" y="368" on="0"/>
        <pt x="1574" y="515" on="1"/>
        <pt x="1574" y="1150" on="1"/>
      </contour>
      <contour>
        <pt x="1820" y="44" on="1"/>
        <pt x="1769" y="73" on="0"/>
        <pt x="1717" y="124" on="1"/>
        <pt x="1617" y="18" on="0"/>
        <pt x="1471" y="-8" on="1"/>
        <pt x="1517" y="-88" on="0"/>
        <pt x="1517" y="-201" on="1"/>
        <pt x="1517" y="-240" on="1"/>
        <pt x="1517" y="-336" on="0"/>
        <pt x="1537" y="-443" on="0"/>
        <pt x="1608" y="-504" on="0"/>
        <pt x="1672" y="-504" on="1"/>
        <pt x="1729" y="-504" on="0"/>
        <pt x="1799" y="-451" on="0"/>
        <pt x="1820" y="-359" on="0"/>
        <pt x="1820" y="-273" on="1"/>
      </contour>
      <contour>
        <pt x="2312" y="9" on="1"/>
        <pt x="2216" y="-24" on="0"/>
        <pt x="2108" y="-24" on="1"/>
        <pt x="2091" y="-24" on="1"/>
        <pt x="2083" y="-24" on="0"/>
        <pt x="2075" y="-23" on="1"/>
        <pt x="2075" y="-279" on="1"/>
        <pt x="2075" y="-377" on="0"/>
        <pt x="2092" y="-456" on="0"/>
        <pt x="2154" y="-504" on="0"/>
        <pt x="2205" y="-504" on="1"/>
        <pt x="2297" y="-504" on="0"/>
        <pt x="2401" y="-381" on="0"/>
        <pt x="2401" y="-266" on="1"/>
        <pt x="2401" y="-110" on="0"/>
      </contour>
    </TTGlyph>
    <TTGlyph name="glyph00170" xMin="75" yMin="-690" xMax="2657" yMax="1178">
      <contour>
        <pt x="1876" y="1150" on="1"/>
        <pt x="1876" y="534" on="1"/>
        <pt x="1876" y="423" on="0"/>
        <pt x="1891" y="315" on="0"/>
        <pt x="1938" y="239" on="0"/>
        <pt x="2025" y="194" on="0"/>
        <pt x="2076" y="194" on="1"/>
        <pt x="2202" y="194" on="0"/>
        <pt x="2352" y="391" on="0"/>
        <pt x="2352" y="563" on="1"/>
        <pt x="2352" y="690" on="0"/>
        <pt x="2254" y="912" on="0"/>
        <pt x="2154" y="1022" on="1"/>
        <pt x="2367" y="1178" on="1"/>
        <pt x="2522" y="1030" on="0"/>
        <pt x="2657" y="726" on="0"/>
        <pt x="2657" y="541" on="1"/>
        <pt x="2657" y="415" on="0"/>
        <pt x="2571" y="204" on="0"/>
        <pt x="2490" y="129" on="1"/>
        <pt x="2572" y="84" on="0"/>
        <pt x="2654" y="-83" on="0"/>
        <pt x="2654" y="-206" on="1"/>
        <pt x="2654" y="-348" on="0"/>
        <pt x="2512" y="-568" on="0"/>
        <pt x="2259" y="-689" on="0"/>
        <pt x="2109" y="-689" on="1"/>
        <pt x="1861" y="-689" on="0"/>
        <pt x="1741" y="-566" on="1"/>
        <pt x="1677" y="-632" on="0"/>
        <pt x="1532" y="-690" on="0"/>
        <pt x="1432" y="-690" on="1"/>
        <pt x="1251" y="-690" on="0"/>
        <pt x="1032" y="-513" on="0"/>
        <pt x="1032" y="-293" on="1"/>
        <pt x="1032" y="-272" on="1"/>
        <pt x="1032" y="-172" on="0"/>
        <pt x="1014" y="-63" on="0"/>
        <pt x="943" y="0" on="0"/>
        <pt x="881" y="0" on="1"/>
        <pt x="795" y="0" on="0"/>
        <pt x="702" y="-126" on="0"/>
        <pt x="702" y="-248" on="1"/>
        <pt x="702" y="-436" on="0"/>
        <pt x="821" y="-573" on="1"/>
        <pt x="630" y="-690" on="1"/>
        <pt x="447" y="-502" on="0"/>
        <pt x="447" y="-250" on="1"/>
        <pt x="447" y="-51" on="0"/>
        <pt x="686" y="181" on="0"/>
        <pt x="888" y="181" on="1"/>
        <pt x="906" y="181" on="0"/>
        <pt x="925" y="179" on="1"/>
        <pt x="844" y="298" on="0"/>
        <pt x="844" y="538" on="1"/>
        <pt x="844" y="557" on="1"/>
        <pt x="844" y="751" on="0"/>
        <pt x="802" y="894" on="0"/>
        <pt x="706" y="958" on="0"/>
        <pt x="627" y="958" on="1"/>
        <pt x="510" y="958" on="0"/>
        <pt x="380" y="773" on="0"/>
        <pt x="380" y="598" on="1"/>
        <pt x="380" y="467" on="0"/>
        <pt x="476" y="244" on="0"/>
        <pt x="578" y="132" on="1"/>
        <pt x="365" y="-24" on="1"/>
        <pt x="212" y="122" on="0"/>
        <pt x="75" y="427" on="0"/>
        <pt x="75" y="613" on="1"/>
        <pt x="75" y="782" on="0"/>
        <pt x="217" y="1039" on="0"/>
        <pt x="475" y="1177" on="0"/>
        <pt x="642" y="1177" on="1"/>
        <pt x="809" y="1177" on="0"/>
        <pt x="1033" y="1065" on="0"/>
        <pt x="1152" y="836" on="0"/>
        <pt x="1152" y="629" on="1"/>
        <pt x="1152" y="566" on="1"/>
        <pt x="1152" y="434" on="0"/>
        <pt x="1179" y="282" on="0"/>
        <pt x="1276" y="195" on="0"/>
        <pt x="1361" y="195" on="1"/>
        <pt x="1420" y="195" on="0"/>
        <pt x="1517" y="243" on="0"/>
        <pt x="1574" y="368" on="0"/>
        <pt x="1574" y="515" on="1"/>
        <pt x="1574" y="1150" on="1"/>
      </contour>
      <contour>
        <pt x="1590" y="-87" on="1"/>
        <pt x="1590" y="-16" on="0"/>
        <pt x="1593" y="56" on="1"/>
        <pt x="1493" y="-24" on="0"/>
        <pt x="1348" y="-24" on="1"/>
        <pt x="1290" y="-24" on="0"/>
        <pt x="1237" y="-13" on="1"/>
        <pt x="1287" y="-99" on="0"/>
        <pt x="1287" y="-229" on="1"/>
        <pt x="1287" y="-240" on="1"/>
        <pt x="1287" y="-336" on="0"/>
        <pt x="1307" y="-443" on="0"/>
        <pt x="1378" y="-504" on="0"/>
        <pt x="1442" y="-504" on="1"/>
        <pt x="1499" y="-504" on="0"/>
        <pt x="1569" y="-451" on="0"/>
        <pt x="1590" y="-359" on="0"/>
        <pt x="1590" y="-273" on="1"/>
      </contour>
      <contour>
        <pt x="1845" y="-200" on="1"/>
        <pt x="1845" y="-371" on="0"/>
        <pt x="1975" y="-503" on="0"/>
        <pt x="2121" y="-503" on="1"/>
        <pt x="2218" y="-503" on="0"/>
        <pt x="2373" y="-417" on="0"/>
        <pt x="2405" y="-337" on="1"/>
        <pt x="2334" y="-367" on="0"/>
        <pt x="2259" y="-367" on="1"/>
        <pt x="2124" y="-367" on="0"/>
        <pt x="1979" y="-231" on="0"/>
        <pt x="1979" y="-106" on="1"/>
        <pt x="1979" y="-52" on="0"/>
        <pt x="1992" y="-8" on="1"/>
        <pt x="1911" y="7" on="0"/>
        <pt x="1842" y="50" on="1"/>
        <pt x="1845" y="-29" on="0"/>
        <pt x="1845" y="-84" on="1"/>
      </contour>
      <contour>
        <pt x="2424" y="-165" on="1"/>
        <pt x="2423" y="-80" on="0"/>
        <pt x="2358" y="13" on="0"/>
        <pt x="2306" y="13" on="1"/>
        <pt x="2257" y="13" on="0"/>
        <pt x="2200" y="-40" on="0"/>
        <pt x="2200" y="-91" on="1"/>
        <pt x="2200" y="-197" on="0"/>
        <pt x="2314" y="-197" on="1"/>
        <pt x="2368" y="-197" on="0"/>
      </contour>
    </TTGlyph>
    <TTGlyph name="glyph00171" xMin="75" yMin="-24" xMax="4420" yMax="1178">
      <contour>
        <pt x="3337" y="1150" on="1"/>
        <pt x="3639" y="1150" on="1"/>
        <pt x="3639" y="534" on="1"/>
        <pt x="3639" y="423" on="0"/>
        <pt x="3654" y="315" on="0"/>
        <pt x="3701" y="239" on="0"/>
        <pt x="3788" y="194" on="0"/>
        <pt x="3839" y="194" on="1"/>
        <pt x="3965" y="194" on="0"/>
        <pt x="4115" y="391" on="0"/>
        <pt x="4115" y="563" on="1"/>
        <pt x="4115" y="690" on="0"/>
        <pt x="4017" y="912" on="0"/>
        <pt x="3917" y="1022" on="1"/>
        <pt x="4125" y="1178" on="1"/>
        <pt x="4280" y="1035" on="0"/>
        <pt x="4420" y="729" on="0"/>
        <pt x="4420" y="541" on="1"/>
        <pt x="4420" y="375" on="0"/>
        <pt x="4283" y="116" on="0"/>
        <pt x="4034" y="-24" on="0"/>
        <pt x="3871" y="-24" on="1"/>
        <pt x="3739" y="-24" on="0"/>
        <pt x="3555" y="49" on="0"/>
        <pt x="3479" y="125" on="1"/>
        <pt x="3398" y="45" on="0"/>
        <pt x="3221" y="-24" on="0"/>
        <pt x="3107" y="-24" on="1"/>
        <pt x="2865" y="-24" on="0"/>
        <pt x="2607" y="235" on="0"/>
        <pt x="2607" y="525" on="1"/>
        <pt x="2607" y="588" on="1"/>
        <pt x="2607" y="720" on="0"/>
        <pt x="2580" y="872" on="0"/>
        <pt x="2482" y="959" on="0"/>
        <pt x="2398" y="959" on="1"/>
        <pt x="2323" y="959" on="0"/>
        <pt x="2223" y="889" on="0"/>
        <pt x="2185" y="760" on="0"/>
        <pt x="2185" y="639" on="1"/>
        <pt x="2185" y="0" on="1"/>
        <pt x="1883" y="0" on="1"/>
        <pt x="1883" y="639" on="1"/>
        <pt x="1883" y="752" on="0"/>
        <pt x="1848" y="887" on="0"/>
        <pt x="1746" y="960" on="0"/>
        <pt x="1661" y="960" on="1"/>
        <pt x="1590" y="960" on="0"/>
        <pt x="1491" y="896" on="0"/>
        <pt x="1440" y="771" on="0"/>
        <pt x="1440" y="619" on="1"/>
        <pt x="1440" y="0" on="1"/>
        <pt x="1138" y="0" on="1"/>
        <pt x="1138" y="551" on="1"/>
        <pt x="1138" y="689" on="0"/>
        <pt x="1094" y="859" on="0"/>
        <pt x="948" y="960" on="0"/>
        <pt x="812" y="960" on="1"/>
        <pt x="648" y="960" on="0"/>
        <pt x="419" y="804" on="0"/>
        <pt x="375" y="662" on="1"/>
        <pt x="481" y="711" on="0"/>
        <pt x="595" y="711" on="1"/>
        <pt x="766" y="711" on="0"/>
        <pt x="960" y="522" on="0"/>
        <pt x="960" y="357" on="1"/>
        <pt x="960" y="178" on="0"/>
        <pt x="742" y="-24" on="0"/>
        <pt x="547" y="-24" on="1"/>
        <pt x="332" y="-24" on="0"/>
        <pt x="75" y="248" on="0"/>
        <pt x="75" y="496" on="1"/>
        <pt x="75" y="702" on="0"/>
        <pt x="260" y="1011" on="0"/>
        <pt x="602" y="1178" on="0"/>
        <pt x="817" y="1178" on="1"/>
        <pt x="967" y="1178" on="0"/>
        <pt x="1189" y="1107" on="0"/>
        <pt x="1284" y="1030" on="1"/>
        <pt x="1361" y="1107" on="0"/>
        <pt x="1544" y="1178" on="0"/>
        <pt x="1661" y="1178" on="1"/>
        <pt x="1778" y="1178" on="0"/>
        <pt x="1954" y="1107" on="0"/>
        <pt x="2034" y="1021" on="1"/>
        <pt x="2119" y="1107" on="0"/>
        <pt x="2297" y="1178" on="0"/>
        <pt x="2414" y="1178" on="1"/>
        <pt x="2656" y="1178" on="0"/>
        <pt x="2915" y="920" on="0"/>
        <pt x="2915" y="624" on="1"/>
        <pt x="2915" y="566" on="1"/>
        <pt x="2915" y="434" on="0"/>
        <pt x="2942" y="282" on="0"/>
        <pt x="3039" y="195" on="0"/>
        <pt x="3124" y="195" on="1"/>
        <pt x="3183" y="195" on="0"/>
        <pt x="3280" y="243" on="0"/>
        <pt x="3337" y="368" on="0"/>
        <pt x="3337" y="515" on="1"/>
      </contour>
      <contour>
        <pt x="352" y="449" on="1"/>
        <pt x="358" y="314" on="0"/>
        <pt x="450" y="180" on="0"/>
        <pt x="537" y="180" on="1"/>
        <pt x="601" y="180" on="0"/>
        <pt x="670" y="262" on="0"/>
        <pt x="670" y="341" on="1"/>
        <pt x="670" y="419" on="0"/>
        <pt x="597" y="507" on="0"/>
        <pt x="523" y="507" on="1"/>
        <pt x="437" y="507" on="0"/>
      </contour>
    </TTGlyph>
    <TTGlyph name="glyph00172" xMin="75" yMin="-24" xMax="4702" yMax="1178">
      <contour>
        <pt x="1138" y="0" on="1"/>
        <pt x="1138" y="551" on="1"/>
        <pt x="1138" y="689" on="0"/>
        <pt x="1094" y="859" on="0"/>
        <pt x="948" y="960" on="0"/>
        <pt x="812" y="960" on="1"/>
        <pt x="648" y="960" on="0"/>
        <pt x="419" y="804" on="0"/>
        <pt x="375" y="662" on="1"/>
        <pt x="481" y="711" on="0"/>
        <pt x="595" y="711" on="1"/>
        <pt x="766" y="711" on="0"/>
        <pt x="960" y="522" on="0"/>
        <pt x="960" y="357" on="1"/>
        <pt x="960" y="178" on="0"/>
        <pt x="742" y="-24" on="0"/>
        <pt x="547" y="-24" on="1"/>
        <pt x="332" y="-24" on="0"/>
        <pt x="75" y="248" on="0"/>
        <pt x="75" y="496" on="1"/>
        <pt x="75" y="702" on="0"/>
        <pt x="260" y="1011" on="0"/>
        <pt x="602" y="1178" on="0"/>
        <pt x="817" y="1178" on="1"/>
        <pt x="967" y="1178" on="0"/>
        <pt x="1189" y="1107" on="0"/>
        <pt x="1284" y="1030" on="1"/>
        <pt x="1361" y="1107" on="0"/>
        <pt x="1544" y="1178" on="0"/>
        <pt x="1661" y="1178" on="1"/>
        <pt x="1778" y="1178" on="0"/>
        <pt x="1954" y="1107" on="0"/>
        <pt x="2034" y="1021" on="1"/>
        <pt x="2119" y="1107" on="0"/>
        <pt x="2297" y="1178" on="0"/>
        <pt x="2414" y="1178" on="1"/>
        <pt x="2656" y="1178" on="0"/>
        <pt x="2915" y="920" on="0"/>
        <pt x="2915" y="624" on="1"/>
        <pt x="2915" y="566" on="1"/>
        <pt x="2915" y="434" on="0"/>
        <pt x="2942" y="282" on="0"/>
        <pt x="3039" y="195" on="0"/>
        <pt x="3124" y="195" on="1"/>
        <pt x="3183" y="195" on="0"/>
        <pt x="3280" y="243" on="0"/>
        <pt x="3337" y="368" on="0"/>
        <pt x="3337" y="515" on="1"/>
        <pt x="3337" y="1150" on="1"/>
        <pt x="3639" y="1150" on="1"/>
        <pt x="3639" y="603" on="1"/>
        <pt x="3639" y="465" on="0"/>
        <pt x="3684" y="294" on="0"/>
        <pt x="3830" y="194" on="0"/>
        <pt x="3965" y="194" on="1"/>
        <pt x="4129" y="194" on="0"/>
        <pt x="4358" y="350" on="0"/>
        <pt x="4402" y="492" on="1"/>
        <pt x="4297" y="443" on="0"/>
        <pt x="4182" y="443" on="1"/>
        <pt x="4011" y="443" on="0"/>
        <pt x="3817" y="632" on="0"/>
        <pt x="3817" y="797" on="1"/>
        <pt x="3817" y="976" on="0"/>
        <pt x="4035" y="1178" on="0"/>
        <pt x="4230" y="1178" on="1"/>
        <pt x="4445" y="1178" on="0"/>
        <pt x="4702" y="906" on="0"/>
        <pt x="4702" y="658" on="1"/>
        <pt x="4702" y="452" on="0"/>
        <pt x="4517" y="143" on="0"/>
        <pt x="4175" y="-24" on="0"/>
        <pt x="3960" y="-24" on="1"/>
        <pt x="3809" y="-24" on="0"/>
        <pt x="3581" y="48" on="0"/>
        <pt x="3485" y="131" on="1"/>
        <pt x="3400" y="46" on="0"/>
        <pt x="3222" y="-24" on="0"/>
        <pt x="3107" y="-24" on="1"/>
        <pt x="2865" y="-24" on="0"/>
        <pt x="2607" y="235" on="0"/>
        <pt x="2607" y="525" on="1"/>
        <pt x="2607" y="588" on="1"/>
        <pt x="2607" y="720" on="0"/>
        <pt x="2580" y="872" on="0"/>
        <pt x="2482" y="959" on="0"/>
        <pt x="2398" y="959" on="1"/>
        <pt x="2323" y="959" on="0"/>
        <pt x="2223" y="889" on="0"/>
        <pt x="2185" y="760" on="0"/>
        <pt x="2185" y="639" on="1"/>
        <pt x="2185" y="0" on="1"/>
        <pt x="1883" y="0" on="1"/>
        <pt x="1883" y="639" on="1"/>
        <pt x="1883" y="752" on="0"/>
        <pt x="1848" y="887" on="0"/>
        <pt x="1746" y="960" on="0"/>
        <pt x="1661" y="960" on="1"/>
        <pt x="1590" y="960" on="0"/>
        <pt x="1491" y="896" on="0"/>
        <pt x="1440" y="771" on="0"/>
        <pt x="1440" y="619" on="1"/>
        <pt x="1440" y="0" on="1"/>
      </contour>
      <contour>
        <pt x="4425" y="706" on="1"/>
        <pt x="4420" y="837" on="0"/>
        <pt x="4326" y="974" on="0"/>
        <pt x="4240" y="974" on="1"/>
        <pt x="4176" y="974" on="0"/>
        <pt x="4107" y="892" on="0"/>
        <pt x="4107" y="813" on="1"/>
        <pt x="4107" y="735" on="0"/>
        <pt x="4180" y="647" on="0"/>
        <pt x="4254" y="647" on="1"/>
        <pt x="4340" y="647" on="0"/>
      </contour>
      <contour>
        <pt x="352" y="449" on="1"/>
        <pt x="358" y="314" on="0"/>
        <pt x="450" y="180" on="0"/>
        <pt x="537" y="180" on="1"/>
        <pt x="601" y="180" on="0"/>
        <pt x="670" y="262" on="0"/>
        <pt x="670" y="341" on="1"/>
        <pt x="670" y="419" on="0"/>
        <pt x="597" y="507" on="0"/>
        <pt x="523" y="507" on="1"/>
        <pt x="437" y="507" on="0"/>
      </contour>
    </TTGlyph>
    <TTGlyph name="glyph00173" xMin="75" yMin="-24" xMax="3316" yMax="1178">
      <contour>
        <pt x="3316" y="0" on="1"/>
        <pt x="1883" y="0" on="1"/>
        <pt x="1883" y="639" on="1"/>
        <pt x="1883" y="752" on="0"/>
        <pt x="1848" y="887" on="0"/>
        <pt x="1746" y="960" on="0"/>
        <pt x="1661" y="960" on="1"/>
        <pt x="1590" y="960" on="0"/>
        <pt x="1491" y="896" on="0"/>
        <pt x="1440" y="771" on="0"/>
        <pt x="1440" y="619" on="1"/>
        <pt x="1440" y="0" on="1"/>
        <pt x="1138" y="0" on="1"/>
        <pt x="1138" y="551" on="1"/>
        <pt x="1138" y="689" on="0"/>
        <pt x="1094" y="859" on="0"/>
        <pt x="948" y="960" on="0"/>
        <pt x="812" y="960" on="1"/>
        <pt x="648" y="960" on="0"/>
        <pt x="419" y="804" on="0"/>
        <pt x="375" y="662" on="1"/>
        <pt x="481" y="711" on="0"/>
        <pt x="595" y="711" on="1"/>
        <pt x="766" y="711" on="0"/>
        <pt x="960" y="522" on="0"/>
        <pt x="960" y="357" on="1"/>
        <pt x="960" y="178" on="0"/>
        <pt x="742" y="-24" on="0"/>
        <pt x="547" y="-24" on="1"/>
        <pt x="332" y="-24" on="0"/>
        <pt x="75" y="248" on="0"/>
        <pt x="75" y="496" on="1"/>
        <pt x="75" y="702" on="0"/>
        <pt x="260" y="1011" on="0"/>
        <pt x="602" y="1178" on="0"/>
        <pt x="817" y="1178" on="1"/>
        <pt x="967" y="1178" on="0"/>
        <pt x="1189" y="1107" on="0"/>
        <pt x="1284" y="1030" on="1"/>
        <pt x="1432" y="1178" on="0"/>
        <pt x="1661" y="1178" on="1"/>
        <pt x="1785" y="1178" on="0"/>
        <pt x="1968" y="1107" on="0"/>
        <pt x="2064" y="1010" on="1"/>
        <pt x="2153" y="1094" on="0"/>
        <pt x="2408" y="1178" on="0"/>
        <pt x="2574" y="1178" on="1"/>
        <pt x="2810" y="1178" on="0"/>
        <pt x="3139" y="1043" on="0"/>
        <pt x="3316" y="778" on="0"/>
        <pt x="3316" y="523" on="1"/>
      </contour>
      <contour>
        <pt x="3014" y="521" on="1"/>
        <pt x="3014" y="707" on="0"/>
        <pt x="2911" y="903" on="0"/>
        <pt x="2782" y="964" on="1"/>
        <pt x="2846" y="876" on="0"/>
        <pt x="2846" y="758" on="1"/>
        <pt x="2846" y="631" on="0"/>
        <pt x="2703" y="366" on="0"/>
        <pt x="2549" y="211" on="1"/>
        <pt x="2612" y="215" on="0"/>
        <pt x="2663" y="215" on="1"/>
        <pt x="3014" y="215" on="1"/>
      </contour>
      <contour>
        <pt x="2180" y="206" on="1"/>
        <pt x="2368" y="374" on="0"/>
        <pt x="2550" y="668" on="0"/>
        <pt x="2550" y="802" on="1"/>
        <pt x="2550" y="961" on="0"/>
        <pt x="2423" y="961" on="1"/>
        <pt x="2323" y="961" on="0"/>
        <pt x="2180" y="767" on="0"/>
        <pt x="2180" y="560" on="1"/>
      </contour>
      <contour>
        <pt x="352" y="449" on="1"/>
        <pt x="358" y="314" on="0"/>
        <pt x="450" y="180" on="0"/>
        <pt x="537" y="180" on="1"/>
        <pt x="601" y="180" on="0"/>
        <pt x="670" y="262" on="0"/>
        <pt x="670" y="341" on="1"/>
        <pt x="670" y="419" on="0"/>
        <pt x="597" y="507" on="0"/>
        <pt x="523" y="507" on="1"/>
        <pt x="437" y="507" on="0"/>
      </contour>
    </TTGlyph>
    <TTGlyph name="glyph00174" xMin="75" yMin="-690" xMax="2966" yMax="1178">
      <contour>
        <pt x="1574" y="-327" on="1"/>
        <pt x="1574" y="-141" on="0"/>
        <pt x="1442" y="0" on="0"/>
        <pt x="1298" y="0" on="1"/>
        <pt x="1199" y="0" on="0"/>
        <pt x="1044" y="-90" on="0"/>
        <pt x="1013" y="-170" on="1"/>
        <pt x="1084" y="-140" on="0"/>
        <pt x="1160" y="-140" on="1"/>
        <pt x="1295" y="-140" on="0"/>
        <pt x="1440" y="-276" on="0"/>
        <pt x="1440" y="-401" on="1"/>
        <pt x="1440" y="-540" on="0"/>
        <pt x="1272" y="-690" on="0"/>
        <pt x="1115" y="-690" on="1"/>
        <pt x="953" y="-690" on="0"/>
        <pt x="765" y="-478" on="0"/>
        <pt x="765" y="-299" on="1"/>
        <pt x="765" y="-131" on="0"/>
        <pt x="963" y="115" on="0"/>
        <pt x="1138" y="164" on="1"/>
        <pt x="1138" y="567" on="1"/>
        <pt x="1138" y="658" on="0"/>
        <pt x="1103" y="848" on="0"/>
        <pt x="955" y="960" on="0"/>
        <pt x="812" y="960" on="1"/>
        <pt x="648" y="960" on="0"/>
        <pt x="419" y="804" on="0"/>
        <pt x="375" y="662" on="1"/>
        <pt x="481" y="711" on="0"/>
        <pt x="595" y="711" on="1"/>
        <pt x="766" y="711" on="0"/>
        <pt x="960" y="522" on="0"/>
        <pt x="960" y="357" on="1"/>
        <pt x="960" y="178" on="0"/>
        <pt x="742" y="-24" on="0"/>
        <pt x="547" y="-24" on="1"/>
        <pt x="332" y="-24" on="0"/>
        <pt x="75" y="248" on="0"/>
        <pt x="75" y="496" on="1"/>
        <pt x="75" y="702" on="0"/>
        <pt x="260" y="1011" on="0"/>
        <pt x="602" y="1178" on="0"/>
        <pt x="817" y="1178" on="1"/>
        <pt x="967" y="1178" on="0"/>
        <pt x="1189" y="1107" on="0"/>
        <pt x="1284" y="1030" on="1"/>
        <pt x="1361" y="1107" on="0"/>
        <pt x="1544" y="1178" on="0"/>
        <pt x="1661" y="1178" on="1"/>
        <pt x="1778" y="1178" on="0"/>
        <pt x="1951" y="1108" on="0"/>
        <pt x="2026" y="1030" on="1"/>
        <pt x="2105" y="1108" on="0"/>
        <pt x="2291" y="1178" on="0"/>
        <pt x="2417" y="1178" on="1"/>
        <pt x="2580" y="1178" on="0"/>
        <pt x="2829" y="1038" on="0"/>
        <pt x="2966" y="779" on="0"/>
        <pt x="2966" y="613" on="1"/>
        <pt x="2966" y="463" on="0"/>
        <pt x="2879" y="215" on="0"/>
        <pt x="2793" y="106" on="1"/>
        <pt x="2873" y="45" on="0"/>
        <pt x="2953" y="-132" on="0"/>
        <pt x="2953" y="-250" on="1"/>
        <pt x="2953" y="-500" on="0"/>
        <pt x="2769" y="-690" on="1"/>
        <pt x="2578" y="-573" on="1"/>
        <pt x="2697" y="-436" on="0"/>
        <pt x="2697" y="-248" on="1"/>
        <pt x="2697" y="-129" on="0"/>
        <pt x="2597" y="0" on="0"/>
        <pt x="2508" y="0" on="1"/>
        <pt x="2461" y="0" on="0"/>
        <pt x="2399" y="-50" on="0"/>
        <pt x="2383" y="-134" on="0"/>
        <pt x="2383" y="-233" on="1"/>
        <pt x="2383" y="-679" on="1"/>
        <pt x="2128" y="-679" on="1"/>
        <pt x="2128" y="-241" on="1"/>
        <pt x="2128" y="-125" on="0"/>
        <pt x="2093" y="-40" on="0"/>
        <pt x="2026" y="0" on="0"/>
        <pt x="1980" y="0" on="1"/>
        <pt x="1926" y="0" on="0"/>
        <pt x="1857" y="-55" on="0"/>
        <pt x="1829" y="-146" on="0"/>
        <pt x="1829" y="-239" on="1"/>
        <pt x="1829" y="-679" on="1"/>
        <pt x="1574" y="-679" on="1"/>
      </contour>
      <contour>
        <pt x="1673" y="63" on="1"/>
        <pt x="1763" y="153" on="0"/>
        <pt x="1883" y="177" on="1"/>
        <pt x="1883" y="639" on="1"/>
        <pt x="1883" y="752" on="0"/>
        <pt x="1848" y="887" on="0"/>
        <pt x="1746" y="960" on="0"/>
        <pt x="1661" y="960" on="1"/>
        <pt x="1590" y="960" on="0"/>
        <pt x="1491" y="896" on="0"/>
        <pt x="1440" y="771" on="0"/>
        <pt x="1440" y="619" on="1"/>
        <pt x="1440" y="176" on="1"/>
        <pt x="1515" y="162" on="0"/>
        <pt x="1631" y="105" on="0"/>
      </contour>
      <contour>
        <pt x="2251" y="84" on="1"/>
        <pt x="2305" y="132" on="0"/>
        <pt x="2434" y="183" on="0"/>
        <pt x="2509" y="186" on="1"/>
        <pt x="2661" y="376" on="0"/>
        <pt x="2661" y="591" on="1"/>
        <pt x="2661" y="763" on="0"/>
        <pt x="2511" y="960" on="0"/>
        <pt x="2385" y="960" on="1"/>
        <pt x="2334" y="960" on="0"/>
        <pt x="2248" y="916" on="0"/>
        <pt x="2200" y="840" on="0"/>
        <pt x="2185" y="733" on="0"/>
        <pt x="2185" y="620" on="1"/>
        <pt x="2185" y="135" on="1"/>
        <pt x="2217" y="115" on="0"/>
      </contour>
      <contour>
        <pt x="352" y="449" on="1"/>
        <pt x="358" y="314" on="0"/>
        <pt x="450" y="180" on="0"/>
        <pt x="537" y="180" on="1"/>
        <pt x="601" y="180" on="0"/>
        <pt x="670" y="262" on="0"/>
        <pt x="670" y="341" on="1"/>
        <pt x="670" y="419" on="0"/>
        <pt x="597" y="507" on="0"/>
        <pt x="523" y="507" on="1"/>
        <pt x="437" y="507" on="0"/>
      </contour>
      <contour>
        <pt x="995" y="-341" on="1"/>
        <pt x="996" y="-427" on="0"/>
        <pt x="1060" y="-520" on="0"/>
        <pt x="1113" y="-520" on="1"/>
        <pt x="1163" y="-520" on="0"/>
        <pt x="1219" y="-467" on="0"/>
        <pt x="1219" y="-416" on="1"/>
        <pt x="1219" y="-310" on="0"/>
        <pt x="1105" y="-310" on="1"/>
        <pt x="1050" y="-310" on="0"/>
      </contour>
    </TTGlyph>
    <TTGlyph name="glyph00175" xMin="75" yMin="-24" xMax="3231" yMax="1178">
      <contour>
        <pt x="2825" y="619" on="1"/>
        <pt x="2724" y="619" on="0"/>
        <pt x="2670" y="590" on="0"/>
        <pt x="2670" y="560" on="1"/>
        <pt x="2670" y="530" on="0"/>
        <pt x="2738" y="504" on="0"/>
        <pt x="2837" y="504" on="1"/>
        <pt x="2870" y="504" on="1"/>
        <pt x="3004" y="504" on="0"/>
        <pt x="3148" y="455" on="0"/>
        <pt x="3231" y="344" on="0"/>
        <pt x="3231" y="251" on="1"/>
        <pt x="3231" y="122" on="0"/>
        <pt x="3012" y="-24" on="0"/>
        <pt x="2804" y="-24" on="1"/>
        <pt x="2562" y="-24" on="0"/>
        <pt x="2378" y="47" on="1"/>
        <pt x="2468" y="241" on="1"/>
        <pt x="2629" y="189" on="0"/>
        <pt x="2786" y="189" on="1"/>
        <pt x="2878" y="189" on="0"/>
        <pt x="2958" y="215" on="0"/>
        <pt x="2958" y="247" on="1"/>
        <pt x="2958" y="275" on="0"/>
        <pt x="2916" y="301" on="0"/>
        <pt x="2856" y="301" on="1"/>
        <pt x="2827" y="301" on="1"/>
        <pt x="2572" y="301" on="0"/>
        <pt x="2398" y="436" on="0"/>
        <pt x="2398" y="555" on="1"/>
        <pt x="2398" y="641" on="0"/>
        <pt x="2479" y="755" on="0"/>
        <pt x="2642" y="821" on="0"/>
        <pt x="2792" y="821" on="1"/>
        <pt x="2859" y="821" on="1"/>
        <pt x="2914" y="821" on="0"/>
        <pt x="2954" y="845" on="0"/>
        <pt x="2954" y="872" on="1"/>
        <pt x="2954" y="915" on="0"/>
        <pt x="2826" y="962" on="0"/>
        <pt x="2703" y="962" on="1"/>
        <pt x="2522" y="962" on="0"/>
        <pt x="2291" y="837" on="0"/>
        <pt x="2186" y="612" on="0"/>
        <pt x="2185" y="398" on="1"/>
        <pt x="2185" y="0" on="1"/>
        <pt x="1883" y="0" on="1"/>
        <pt x="1883" y="639" on="1"/>
        <pt x="1883" y="752" on="0"/>
        <pt x="1848" y="887" on="0"/>
        <pt x="1746" y="960" on="0"/>
        <pt x="1661" y="960" on="1"/>
        <pt x="1590" y="960" on="0"/>
        <pt x="1491" y="896" on="0"/>
        <pt x="1440" y="771" on="0"/>
        <pt x="1440" y="619" on="1"/>
        <pt x="1440" y="0" on="1"/>
        <pt x="1138" y="0" on="1"/>
        <pt x="1138" y="551" on="1"/>
        <pt x="1138" y="689" on="0"/>
        <pt x="1094" y="859" on="0"/>
        <pt x="948" y="960" on="0"/>
        <pt x="812" y="960" on="1"/>
        <pt x="648" y="960" on="0"/>
        <pt x="419" y="804" on="0"/>
        <pt x="375" y="662" on="1"/>
        <pt x="481" y="711" on="0"/>
        <pt x="595" y="711" on="1"/>
        <pt x="766" y="711" on="0"/>
        <pt x="960" y="522" on="0"/>
        <pt x="960" y="357" on="1"/>
        <pt x="960" y="178" on="0"/>
        <pt x="742" y="-24" on="0"/>
        <pt x="547" y="-24" on="1"/>
        <pt x="332" y="-24" on="0"/>
        <pt x="75" y="248" on="0"/>
        <pt x="75" y="496" on="1"/>
        <pt x="75" y="702" on="0"/>
        <pt x="260" y="1011" on="0"/>
        <pt x="602" y="1178" on="0"/>
        <pt x="817" y="1178" on="1"/>
        <pt x="967" y="1178" on="0"/>
        <pt x="1189" y="1107" on="0"/>
        <pt x="1284" y="1030" on="1"/>
        <pt x="1361" y="1107" on="0"/>
        <pt x="1544" y="1178" on="0"/>
        <pt x="1661" y="1178" on="1"/>
        <pt x="1800" y="1178" on="0"/>
        <pt x="2007" y="1086" on="0"/>
        <pt x="2097" y="981" on="1"/>
        <pt x="2305" y="1178" on="0"/>
        <pt x="2694" y="1178" on="1"/>
        <pt x="2944" y="1178" on="0"/>
        <pt x="3231" y="1012" on="0"/>
        <pt x="3231" y="866" on="1"/>
        <pt x="3231" y="783" on="0"/>
        <pt x="3156" y="669" on="0"/>
        <pt x="3022" y="619" on="0"/>
        <pt x="2893" y="619" on="1"/>
      </contour>
      <contour>
        <pt x="352" y="449" on="1"/>
        <pt x="358" y="314" on="0"/>
        <pt x="450" y="180" on="0"/>
        <pt x="537" y="180" on="1"/>
        <pt x="601" y="180" on="0"/>
        <pt x="670" y="262" on="0"/>
        <pt x="670" y="341" on="1"/>
        <pt x="670" y="419" on="0"/>
        <pt x="597" y="507" on="0"/>
        <pt x="523" y="507" on="1"/>
        <pt x="437" y="507" on="0"/>
      </contour>
    </TTGlyph>
    <TTGlyph name="glyph00176" xMin="75" yMin="-24" xMax="2957" yMax="1178">
      <contour>
        <pt x="1864" y="513" on="1"/>
        <pt x="1864" y="681" on="0"/>
        <pt x="1806" y="861" on="0"/>
        <pt x="1632" y="970" on="0"/>
        <pt x="1494" y="970" on="1"/>
        <pt x="1447" y="970" on="0"/>
        <pt x="1415" y="966" on="1"/>
        <pt x="1531" y="864" on="0"/>
        <pt x="1645" y="611" on="0"/>
        <pt x="1645" y="469" on="1"/>
        <pt x="1645" y="225" on="0"/>
        <pt x="1396" y="-24" on="0"/>
        <pt x="1156" y="-24" on="1"/>
        <pt x="921" y="-24" on="0"/>
        <pt x="665" y="233" on="0"/>
        <pt x="665" y="471" on="1"/>
        <pt x="665" y="612" on="0"/>
        <pt x="794" y="864" on="0"/>
        <pt x="920" y="965" on="1"/>
        <pt x="878" y="970" on="0"/>
        <pt x="833" y="970" on="1"/>
        <pt x="616" y="970" on="0"/>
        <pt x="383" y="761" on="0"/>
        <pt x="383" y="575" on="1"/>
        <pt x="383" y="441" on="0"/>
        <pt x="480" y="238" on="0"/>
        <pt x="591" y="132" on="1"/>
        <pt x="391" y="-24" on="1"/>
        <pt x="222" y="110" on="0"/>
        <pt x="75" y="395" on="0"/>
        <pt x="75" y="575" on="1"/>
        <pt x="75" y="753" on="0"/>
        <pt x="245" y="1029" on="0"/>
        <pt x="571" y="1178" on="0"/>
        <pt x="805" y="1178" on="1"/>
        <pt x="998" y="1178" on="0"/>
        <pt x="1162" y="1112" on="1"/>
        <pt x="1322" y="1178" on="0"/>
        <pt x="1501" y="1178" on="1"/>
        <pt x="1654" y="1178" on="0"/>
        <pt x="1890" y="1105" on="0"/>
        <pt x="1993" y="1016" on="1"/>
        <pt x="2066" y="1097" on="0"/>
        <pt x="2263" y="1178" on="0"/>
        <pt x="2402" y="1178" on="1"/>
        <pt x="2567" y="1178" on="0"/>
        <pt x="2819" y="1038" on="0"/>
        <pt x="2957" y="777" on="0"/>
        <pt x="2957" y="613" on="1"/>
        <pt x="2957" y="424" on="0"/>
        <pt x="2815" y="114" on="0"/>
        <pt x="2667" y="-24" on="1"/>
        <pt x="2454" y="132" on="1"/>
        <pt x="2554" y="242" on="0"/>
        <pt x="2652" y="464" on="0"/>
        <pt x="2652" y="591" on="1"/>
        <pt x="2652" y="765" on="0"/>
        <pt x="2498" y="960" on="0"/>
        <pt x="2370" y="960" on="1"/>
        <pt x="2294" y="960" on="0"/>
        <pt x="2199" y="885" on="0"/>
        <pt x="2166" y="768" on="0"/>
        <pt x="2166" y="659" on="1"/>
        <pt x="2166" y="0" on="1"/>
        <pt x="1864" y="0" on="1"/>
      </contour>
      <contour>
        <pt x="1155" y="868" on="1"/>
        <pt x="1066" y="796" on="0"/>
        <pt x="969" y="591" on="0"/>
        <pt x="969" y="479" on="1"/>
        <pt x="969" y="191" on="0"/>
        <pt x="1156" y="191" on="1"/>
        <pt x="1246" y="191" on="0"/>
        <pt x="1341" y="329" on="0"/>
        <pt x="1341" y="466" on="1"/>
        <pt x="1341" y="588" on="0"/>
        <pt x="1246" y="794" on="0"/>
      </contour>
    </TTGlyph>
    <TTGlyph name="glyph00177" xMin="75" yMin="-24" xMax="3212" yMax="1178">
      <contour>
        <pt x="2806" y="619" on="1"/>
        <pt x="2705" y="619" on="0"/>
        <pt x="2651" y="590" on="0"/>
        <pt x="2651" y="560" on="1"/>
        <pt x="2651" y="530" on="0"/>
        <pt x="2719" y="504" on="0"/>
        <pt x="2818" y="504" on="1"/>
        <pt x="2851" y="504" on="1"/>
        <pt x="2985" y="504" on="0"/>
        <pt x="3129" y="455" on="0"/>
        <pt x="3212" y="344" on="0"/>
        <pt x="3212" y="251" on="1"/>
        <pt x="3212" y="122" on="0"/>
        <pt x="2993" y="-24" on="0"/>
        <pt x="2785" y="-24" on="1"/>
        <pt x="2543" y="-24" on="0"/>
        <pt x="2359" y="47" on="1"/>
        <pt x="2449" y="241" on="1"/>
        <pt x="2610" y="189" on="0"/>
        <pt x="2767" y="189" on="1"/>
        <pt x="2859" y="189" on="0"/>
        <pt x="2939" y="215" on="0"/>
        <pt x="2939" y="247" on="1"/>
        <pt x="2939" y="275" on="0"/>
        <pt x="2897" y="301" on="0"/>
        <pt x="2837" y="301" on="1"/>
        <pt x="2808" y="301" on="1"/>
        <pt x="2553" y="301" on="0"/>
        <pt x="2379" y="436" on="0"/>
        <pt x="2379" y="555" on="1"/>
        <pt x="2379" y="641" on="0"/>
        <pt x="2460" y="755" on="0"/>
        <pt x="2623" y="821" on="0"/>
        <pt x="2773" y="821" on="1"/>
        <pt x="2840" y="821" on="1"/>
        <pt x="2895" y="821" on="0"/>
        <pt x="2935" y="845" on="0"/>
        <pt x="2935" y="872" on="1"/>
        <pt x="2935" y="915" on="0"/>
        <pt x="2807" y="962" on="0"/>
        <pt x="2684" y="962" on="1"/>
        <pt x="2549" y="962" on="0"/>
        <pt x="2356" y="894" on="0"/>
        <pt x="2224" y="758" on="0"/>
        <pt x="2166" y="557" on="0"/>
        <pt x="2166" y="380" on="1"/>
        <pt x="2166" y="0" on="1"/>
        <pt x="1864" y="0" on="1"/>
        <pt x="1864" y="513" on="1"/>
        <pt x="1864" y="681" on="0"/>
        <pt x="1806" y="861" on="0"/>
        <pt x="1632" y="970" on="0"/>
        <pt x="1494" y="970" on="1"/>
        <pt x="1447" y="970" on="0"/>
        <pt x="1415" y="966" on="1"/>
        <pt x="1531" y="864" on="0"/>
        <pt x="1645" y="611" on="0"/>
        <pt x="1645" y="469" on="1"/>
        <pt x="1645" y="225" on="0"/>
        <pt x="1396" y="-24" on="0"/>
        <pt x="1156" y="-24" on="1"/>
        <pt x="921" y="-24" on="0"/>
        <pt x="665" y="233" on="0"/>
        <pt x="665" y="471" on="1"/>
        <pt x="665" y="612" on="0"/>
        <pt x="794" y="864" on="0"/>
        <pt x="920" y="965" on="1"/>
        <pt x="878" y="970" on="0"/>
        <pt x="833" y="970" on="1"/>
        <pt x="616" y="970" on="0"/>
        <pt x="383" y="761" on="0"/>
        <pt x="383" y="575" on="1"/>
        <pt x="383" y="441" on="0"/>
        <pt x="480" y="238" on="0"/>
        <pt x="591" y="132" on="1"/>
        <pt x="391" y="-24" on="1"/>
        <pt x="222" y="110" on="0"/>
        <pt x="75" y="395" on="0"/>
        <pt x="75" y="575" on="1"/>
        <pt x="75" y="753" on="0"/>
        <pt x="245" y="1029" on="0"/>
        <pt x="571" y="1178" on="0"/>
        <pt x="805" y="1178" on="1"/>
        <pt x="998" y="1178" on="0"/>
        <pt x="1162" y="1112" on="1"/>
        <pt x="1322" y="1178" on="0"/>
        <pt x="1501" y="1178" on="1"/>
        <pt x="1681" y="1178" on="0"/>
        <pt x="1944" y="1082" on="0"/>
        <pt x="2059" y="962" on="1"/>
        <pt x="2163" y="1070" on="0"/>
        <pt x="2471" y="1178" on="0"/>
        <pt x="2675" y="1178" on="1"/>
        <pt x="2925" y="1178" on="0"/>
        <pt x="3212" y="1012" on="0"/>
        <pt x="3212" y="866" on="1"/>
        <pt x="3212" y="783" on="0"/>
        <pt x="3137" y="669" on="0"/>
        <pt x="3003" y="619" on="0"/>
        <pt x="2874" y="619" on="1"/>
      </contour>
      <contour>
        <pt x="1155" y="868" on="1"/>
        <pt x="1066" y="796" on="0"/>
        <pt x="969" y="591" on="0"/>
        <pt x="969" y="479" on="1"/>
        <pt x="969" y="191" on="0"/>
        <pt x="1156" y="191" on="1"/>
        <pt x="1246" y="191" on="0"/>
        <pt x="1341" y="329" on="0"/>
        <pt x="1341" y="466" on="1"/>
        <pt x="1341" y="588" on="0"/>
        <pt x="1246" y="794" on="0"/>
      </contour>
    </TTGlyph>
    <TTGlyph name="glyph00178" xMin="75" yMin="-24" xMax="3297" yMax="1178">
      <contour>
        <pt x="3297" y="0" on="1"/>
        <pt x="1864" y="0" on="1"/>
        <pt x="1864" y="513" on="1"/>
        <pt x="1864" y="681" on="0"/>
        <pt x="1806" y="861" on="0"/>
        <pt x="1632" y="970" on="0"/>
        <pt x="1494" y="970" on="1"/>
        <pt x="1447" y="970" on="0"/>
        <pt x="1415" y="966" on="1"/>
        <pt x="1531" y="864" on="0"/>
        <pt x="1645" y="611" on="0"/>
        <pt x="1645" y="469" on="1"/>
        <pt x="1645" y="225" on="0"/>
        <pt x="1396" y="-24" on="0"/>
        <pt x="1156" y="-24" on="1"/>
        <pt x="921" y="-24" on="0"/>
        <pt x="665" y="233" on="0"/>
        <pt x="665" y="471" on="1"/>
        <pt x="665" y="612" on="0"/>
        <pt x="794" y="864" on="0"/>
        <pt x="920" y="965" on="1"/>
        <pt x="878" y="970" on="0"/>
        <pt x="833" y="970" on="1"/>
        <pt x="616" y="970" on="0"/>
        <pt x="383" y="761" on="0"/>
        <pt x="383" y="575" on="1"/>
        <pt x="383" y="441" on="0"/>
        <pt x="480" y="238" on="0"/>
        <pt x="591" y="132" on="1"/>
        <pt x="391" y="-24" on="1"/>
        <pt x="222" y="110" on="0"/>
        <pt x="75" y="395" on="0"/>
        <pt x="75" y="575" on="1"/>
        <pt x="75" y="753" on="0"/>
        <pt x="245" y="1029" on="0"/>
        <pt x="571" y="1178" on="0"/>
        <pt x="805" y="1178" on="1"/>
        <pt x="998" y="1178" on="0"/>
        <pt x="1162" y="1112" on="1"/>
        <pt x="1322" y="1178" on="0"/>
        <pt x="1501" y="1178" on="1"/>
        <pt x="1674" y="1178" on="0"/>
        <pt x="1924" y="1092" on="0"/>
        <pt x="2028" y="993" on="1"/>
        <pt x="2119" y="1085" on="0"/>
        <pt x="2382" y="1178" on="0"/>
        <pt x="2555" y="1178" on="1"/>
        <pt x="2791" y="1178" on="0"/>
        <pt x="3120" y="1043" on="0"/>
        <pt x="3297" y="778" on="0"/>
        <pt x="3297" y="523" on="1"/>
      </contour>
      <contour>
        <pt x="2995" y="521" on="1"/>
        <pt x="2995" y="707" on="0"/>
        <pt x="2892" y="903" on="0"/>
        <pt x="2763" y="964" on="1"/>
        <pt x="2827" y="876" on="0"/>
        <pt x="2827" y="758" on="1"/>
        <pt x="2827" y="631" on="0"/>
        <pt x="2684" y="366" on="0"/>
        <pt x="2530" y="211" on="1"/>
        <pt x="2593" y="215" on="0"/>
        <pt x="2644" y="215" on="1"/>
        <pt x="2995" y="215" on="1"/>
      </contour>
      <contour>
        <pt x="2161" y="206" on="1"/>
        <pt x="2349" y="374" on="0"/>
        <pt x="2531" y="668" on="0"/>
        <pt x="2531" y="802" on="1"/>
        <pt x="2531" y="961" on="0"/>
        <pt x="2404" y="961" on="1"/>
        <pt x="2304" y="961" on="0"/>
        <pt x="2161" y="767" on="0"/>
        <pt x="2161" y="560" on="1"/>
      </contour>
      <contour>
        <pt x="1155" y="868" on="1"/>
        <pt x="1066" y="796" on="0"/>
        <pt x="969" y="591" on="0"/>
        <pt x="969" y="479" on="1"/>
        <pt x="969" y="191" on="0"/>
        <pt x="1156" y="191" on="1"/>
        <pt x="1246" y="191" on="0"/>
        <pt x="1341" y="329" on="0"/>
        <pt x="1341" y="466" on="1"/>
        <pt x="1341" y="588" on="0"/>
        <pt x="1246" y="794" on="0"/>
      </contour>
    </TTGlyph>
    <TTGlyph name="glyph00179" xMin="75" yMin="-24" xMax="3665" yMax="1178">
      <contour>
        <pt x="1864" y="513" on="1"/>
        <pt x="1864" y="681" on="0"/>
        <pt x="1806" y="861" on="0"/>
        <pt x="1632" y="970" on="0"/>
        <pt x="1494" y="970" on="1"/>
        <pt x="1447" y="970" on="0"/>
        <pt x="1415" y="966" on="1"/>
        <pt x="1531" y="864" on="0"/>
        <pt x="1645" y="611" on="0"/>
        <pt x="1645" y="469" on="1"/>
        <pt x="1645" y="225" on="0"/>
        <pt x="1396" y="-24" on="0"/>
        <pt x="1156" y="-24" on="1"/>
        <pt x="921" y="-24" on="0"/>
        <pt x="665" y="233" on="0"/>
        <pt x="665" y="471" on="1"/>
        <pt x="665" y="612" on="0"/>
        <pt x="794" y="864" on="0"/>
        <pt x="920" y="965" on="1"/>
        <pt x="878" y="970" on="0"/>
        <pt x="833" y="970" on="1"/>
        <pt x="616" y="970" on="0"/>
        <pt x="383" y="761" on="0"/>
        <pt x="383" y="575" on="1"/>
        <pt x="383" y="441" on="0"/>
        <pt x="480" y="238" on="0"/>
        <pt x="591" y="132" on="1"/>
        <pt x="391" y="-24" on="1"/>
        <pt x="222" y="110" on="0"/>
        <pt x="75" y="395" on="0"/>
        <pt x="75" y="575" on="1"/>
        <pt x="75" y="753" on="0"/>
        <pt x="245" y="1029" on="0"/>
        <pt x="571" y="1178" on="0"/>
        <pt x="805" y="1178" on="1"/>
        <pt x="998" y="1178" on="0"/>
        <pt x="1162" y="1112" on="1"/>
        <pt x="1322" y="1178" on="0"/>
        <pt x="1501" y="1178" on="1"/>
        <pt x="1660" y="1178" on="0"/>
        <pt x="1898" y="1101" on="0"/>
        <pt x="2002" y="1008" on="1"/>
        <pt x="2087" y="1102" on="0"/>
        <pt x="2271" y="1178" on="0"/>
        <pt x="2395" y="1178" on="1"/>
        <pt x="2638" y="1178" on="0"/>
        <pt x="2896" y="919" on="0"/>
        <pt x="2896" y="629" on="1"/>
        <pt x="2896" y="597" on="1"/>
        <pt x="2896" y="407" on="0"/>
        <pt x="2936" y="263" on="0"/>
        <pt x="3032" y="196" on="0"/>
        <pt x="3113" y="196" on="1"/>
        <pt x="3230" y="196" on="0"/>
        <pt x="3360" y="381" on="0"/>
        <pt x="3360" y="556" on="1"/>
        <pt x="3360" y="687" on="0"/>
        <pt x="3264" y="910" on="0"/>
        <pt x="3162" y="1022" on="1"/>
        <pt x="3375" y="1178" on="1"/>
        <pt x="3530" y="1029" on="0"/>
        <pt x="3665" y="725" on="0"/>
        <pt x="3665" y="541" on="1"/>
        <pt x="3665" y="372" on="0"/>
        <pt x="3523" y="115" on="0"/>
        <pt x="3265" y="-23" on="0"/>
        <pt x="3098" y="-23" on="1"/>
        <pt x="2931" y="-23" on="0"/>
        <pt x="2707" y="89" on="0"/>
        <pt x="2588" y="318" on="0"/>
        <pt x="2588" y="525" on="1"/>
        <pt x="2588" y="588" on="1"/>
        <pt x="2588" y="720" on="0"/>
        <pt x="2561" y="872" on="0"/>
        <pt x="2463" y="959" on="0"/>
        <pt x="2379" y="959" on="1"/>
        <pt x="2320" y="959" on="0"/>
        <pt x="2223" y="911" on="0"/>
        <pt x="2166" y="786" on="0"/>
        <pt x="2166" y="639" on="1"/>
        <pt x="2166" y="0" on="1"/>
        <pt x="1864" y="0" on="1"/>
      </contour>
      <contour>
        <pt x="1155" y="868" on="1"/>
        <pt x="1066" y="796" on="0"/>
        <pt x="969" y="591" on="0"/>
        <pt x="969" y="479" on="1"/>
        <pt x="969" y="191" on="0"/>
        <pt x="1156" y="191" on="1"/>
        <pt x="1246" y="191" on="0"/>
        <pt x="1341" y="329" on="0"/>
        <pt x="1341" y="466" on="1"/>
        <pt x="1341" y="588" on="0"/>
        <pt x="1246" y="794" on="0"/>
      </contour>
    </TTGlyph>
    <TTGlyph name="glyph00180" xMin="75" yMin="-24" xMax="3966" yMax="1178">
      <contour>
        <pt x="2016" y="996" on="1"/>
        <pt x="2120" y="1095" on="0"/>
        <pt x="2367" y="1178" on="0"/>
        <pt x="2538" y="1178" on="1"/>
        <pt x="2724" y="1178" on="0"/>
        <pt x="2881" y="1113" on="1"/>
        <pt x="3036" y="1178" on="0"/>
        <pt x="3269" y="1178" on="1"/>
        <pt x="3490" y="1178" on="0"/>
        <pt x="3803" y="1032" on="0"/>
        <pt x="3966" y="754" on="0"/>
        <pt x="3966" y="573" on="1"/>
        <pt x="3966" y="394" on="0"/>
        <pt x="3819" y="110" on="0"/>
        <pt x="3646" y="-24" on="1"/>
        <pt x="3450" y="132" on="1"/>
        <pt x="3570" y="251" on="0"/>
        <pt x="3658" y="449" on="0"/>
        <pt x="3658" y="572" on="1"/>
        <pt x="3658" y="759" on="0"/>
        <pt x="3439" y="970" on="0"/>
        <pt x="3243" y="970" on="1"/>
        <pt x="3183" y="970" on="0"/>
        <pt x="3133" y="964" on="1"/>
        <pt x="3248" y="864" on="0"/>
        <pt x="3365" y="611" on="0"/>
        <pt x="3365" y="469" on="1"/>
        <pt x="3365" y="225" on="0"/>
        <pt x="3116" y="-24" on="0"/>
        <pt x="2876" y="-24" on="1"/>
        <pt x="2640" y="-24" on="0"/>
        <pt x="2385" y="232" on="0"/>
        <pt x="2385" y="471" on="1"/>
        <pt x="2385" y="615" on="0"/>
        <pt x="2510" y="867" on="0"/>
        <pt x="2632" y="965" on="1"/>
        <pt x="2585" y="970" on="0"/>
        <pt x="2537" y="970" on="1"/>
        <pt x="2402" y="970" on="0"/>
        <pt x="2227" y="864" on="0"/>
        <pt x="2166" y="683" on="0"/>
        <pt x="2166" y="513" on="1"/>
        <pt x="2166" y="0" on="1"/>
        <pt x="1864" y="0" on="1"/>
        <pt x="1864" y="513" on="1"/>
        <pt x="1864" y="681" on="0"/>
        <pt x="1806" y="861" on="0"/>
        <pt x="1632" y="970" on="0"/>
        <pt x="1494" y="970" on="1"/>
        <pt x="1447" y="970" on="0"/>
        <pt x="1415" y="966" on="1"/>
        <pt x="1531" y="864" on="0"/>
        <pt x="1645" y="611" on="0"/>
        <pt x="1645" y="469" on="1"/>
        <pt x="1645" y="225" on="0"/>
        <pt x="1396" y="-24" on="0"/>
        <pt x="1156" y="-24" on="1"/>
        <pt x="921" y="-24" on="0"/>
        <pt x="665" y="233" on="0"/>
        <pt x="665" y="471" on="1"/>
        <pt x="665" y="612" on="0"/>
        <pt x="794" y="864" on="0"/>
        <pt x="920" y="965" on="1"/>
        <pt x="878" y="970" on="0"/>
        <pt x="833" y="970" on="1"/>
        <pt x="616" y="970" on="0"/>
        <pt x="383" y="761" on="0"/>
        <pt x="383" y="575" on="1"/>
        <pt x="383" y="441" on="0"/>
        <pt x="480" y="238" on="0"/>
        <pt x="591" y="132" on="1"/>
        <pt x="391" y="-24" on="1"/>
        <pt x="222" y="110" on="0"/>
        <pt x="75" y="395" on="0"/>
        <pt x="75" y="575" on="1"/>
        <pt x="75" y="753" on="0"/>
        <pt x="245" y="1029" on="0"/>
        <pt x="571" y="1178" on="0"/>
        <pt x="805" y="1178" on="1"/>
        <pt x="998" y="1178" on="0"/>
        <pt x="1162" y="1112" on="1"/>
        <pt x="1322" y="1178" on="0"/>
        <pt x="1501" y="1178" on="1"/>
        <pt x="1665" y="1178" on="0"/>
        <pt x="1908" y="1096" on="0"/>
      </contour>
      <contour>
        <pt x="2878" y="869" on="1"/>
        <pt x="2786" y="795" on="0"/>
        <pt x="2689" y="584" on="0"/>
        <pt x="2689" y="466" on="1"/>
        <pt x="2689" y="191" on="0"/>
        <pt x="2876" y="191" on="1"/>
        <pt x="2966" y="191" on="0"/>
        <pt x="3061" y="329" on="0"/>
        <pt x="3061" y="466" on="1"/>
        <pt x="3061" y="587" on="0"/>
        <pt x="2967" y="796" on="0"/>
      </contour>
      <contour>
        <pt x="1155" y="868" on="1"/>
        <pt x="1066" y="796" on="0"/>
        <pt x="969" y="591" on="0"/>
        <pt x="969" y="479" on="1"/>
        <pt x="969" y="191" on="0"/>
        <pt x="1156" y="191" on="1"/>
        <pt x="1246" y="191" on="0"/>
        <pt x="1341" y="329" on="0"/>
        <pt x="1341" y="466" on="1"/>
        <pt x="1341" y="588" on="0"/>
        <pt x="1246" y="794" on="0"/>
      </contour>
    </TTGlyph>
    <TTGlyph name="glyph00181" xMin="75" yMin="-690" xMax="3966" yMax="1178">
      <contour>
        <pt x="2541" y="89" on="1"/>
        <pt x="2463" y="147" on="0"/>
        <pt x="2385" y="338" on="0"/>
        <pt x="2385" y="471" on="1"/>
        <pt x="2385" y="615" on="0"/>
        <pt x="2510" y="867" on="0"/>
        <pt x="2632" y="965" on="1"/>
        <pt x="2585" y="970" on="0"/>
        <pt x="2537" y="970" on="1"/>
        <pt x="2402" y="970" on="0"/>
        <pt x="2227" y="864" on="0"/>
        <pt x="2166" y="683" on="0"/>
        <pt x="2166" y="513" on="1"/>
        <pt x="2166" y="0" on="1"/>
        <pt x="1864" y="0" on="1"/>
        <pt x="1864" y="513" on="1"/>
        <pt x="1864" y="681" on="0"/>
        <pt x="1806" y="861" on="0"/>
        <pt x="1632" y="970" on="0"/>
        <pt x="1494" y="970" on="1"/>
        <pt x="1447" y="970" on="0"/>
        <pt x="1415" y="966" on="1"/>
        <pt x="1531" y="864" on="0"/>
        <pt x="1645" y="611" on="0"/>
        <pt x="1645" y="469" on="1"/>
        <pt x="1645" y="225" on="0"/>
        <pt x="1396" y="-24" on="0"/>
        <pt x="1156" y="-24" on="1"/>
        <pt x="921" y="-24" on="0"/>
        <pt x="665" y="233" on="0"/>
        <pt x="665" y="471" on="1"/>
        <pt x="665" y="612" on="0"/>
        <pt x="794" y="864" on="0"/>
        <pt x="920" y="965" on="1"/>
        <pt x="878" y="970" on="0"/>
        <pt x="833" y="970" on="1"/>
        <pt x="616" y="970" on="0"/>
        <pt x="383" y="761" on="0"/>
        <pt x="383" y="575" on="1"/>
        <pt x="383" y="441" on="0"/>
        <pt x="480" y="238" on="0"/>
        <pt x="591" y="132" on="1"/>
        <pt x="391" y="-24" on="1"/>
        <pt x="222" y="110" on="0"/>
        <pt x="75" y="395" on="0"/>
        <pt x="75" y="575" on="1"/>
        <pt x="75" y="753" on="0"/>
        <pt x="245" y="1029" on="0"/>
        <pt x="571" y="1178" on="0"/>
        <pt x="805" y="1178" on="1"/>
        <pt x="998" y="1178" on="0"/>
        <pt x="1162" y="1112" on="1"/>
        <pt x="1322" y="1178" on="0"/>
        <pt x="1501" y="1178" on="1"/>
        <pt x="1665" y="1178" on="0"/>
        <pt x="1908" y="1096" on="0"/>
        <pt x="2016" y="996" on="1"/>
        <pt x="2120" y="1095" on="0"/>
        <pt x="2367" y="1178" on="0"/>
        <pt x="2538" y="1178" on="1"/>
        <pt x="2724" y="1178" on="0"/>
        <pt x="2881" y="1113" on="1"/>
        <pt x="3036" y="1178" on="0"/>
        <pt x="3269" y="1178" on="1"/>
        <pt x="3490" y="1178" on="0"/>
        <pt x="3803" y="1032" on="0"/>
        <pt x="3966" y="754" on="0"/>
        <pt x="3966" y="573" on="1"/>
        <pt x="3966" y="440" on="0"/>
        <pt x="3926" y="328" on="1"/>
        <pt x="3906" y="272" on="0"/>
        <pt x="3841" y="165" on="0"/>
        <pt x="3797" y="115" on="1"/>
        <pt x="3937" y="-52" on="0"/>
        <pt x="3937" y="-266" on="1"/>
        <pt x="3937" y="-464" on="0"/>
        <pt x="3706" y="-690" on="0"/>
        <pt x="3497" y="-690" on="1"/>
        <pt x="3325" y="-690" on="0"/>
        <pt x="3097" y="-523" on="0"/>
        <pt x="3097" y="-298" on="1"/>
        <pt x="3097" y="-283" on="1"/>
        <pt x="3097" y="-149" on="0"/>
        <pt x="2977" y="-10" on="0"/>
        <pt x="2844" y="-10" on="1"/>
        <pt x="2752" y="-10" on="0"/>
        <pt x="2610" y="-93" on="0"/>
        <pt x="2581" y="-169" on="1"/>
        <pt x="2652" y="-139" on="0"/>
        <pt x="2728" y="-139" on="1"/>
        <pt x="2863" y="-139" on="0"/>
        <pt x="3008" y="-276" on="0"/>
        <pt x="3008" y="-401" on="1"/>
        <pt x="3008" y="-540" on="0"/>
        <pt x="2840" y="-690" on="0"/>
        <pt x="2683" y="-690" on="1"/>
        <pt x="2521" y="-690" on="0"/>
        <pt x="2333" y="-484" on="0"/>
        <pt x="2333" y="-309" on="1"/>
        <pt x="2333" y="-180" on="0"/>
        <pt x="2440" y="24" on="0"/>
      </contour>
      <contour>
        <pt x="3572" y="35" on="1"/>
        <pt x="3450" y="132" on="1"/>
        <pt x="3570" y="251" on="0"/>
        <pt x="3658" y="449" on="0"/>
        <pt x="3658" y="572" on="1"/>
        <pt x="3658" y="759" on="0"/>
        <pt x="3439" y="970" on="0"/>
        <pt x="3243" y="970" on="1"/>
        <pt x="3183" y="970" on="0"/>
        <pt x="3133" y="964" on="1"/>
        <pt x="3248" y="864" on="0"/>
        <pt x="3365" y="611" on="0"/>
        <pt x="3365" y="469" on="1"/>
        <pt x="3365" y="332" on="0"/>
        <pt x="3286" y="139" on="0"/>
        <pt x="3208" y="84" on="1"/>
        <pt x="3280" y="30" on="0"/>
        <pt x="3352" y="-140" on="0"/>
        <pt x="3352" y="-257" on="1"/>
        <pt x="3352" y="-283" on="1"/>
        <pt x="3352" y="-362" on="0"/>
        <pt x="3374" y="-448" on="0"/>
        <pt x="3443" y="-503" on="0"/>
        <pt x="3503" y="-503" on="1"/>
        <pt x="3590" y="-503" on="0"/>
        <pt x="3682" y="-383" on="0"/>
        <pt x="3682" y="-266" on="1"/>
        <pt x="3682" y="-94" on="0"/>
      </contour>
      <contour>
        <pt x="2878" y="869" on="1"/>
        <pt x="2786" y="795" on="0"/>
        <pt x="2689" y="584" on="0"/>
        <pt x="2689" y="466" on="1"/>
        <pt x="2689" y="191" on="0"/>
        <pt x="2876" y="191" on="1"/>
        <pt x="2966" y="191" on="0"/>
        <pt x="3061" y="329" on="0"/>
        <pt x="3061" y="466" on="1"/>
        <pt x="3061" y="587" on="0"/>
        <pt x="2967" y="796" on="0"/>
      </contour>
      <contour>
        <pt x="1155" y="868" on="1"/>
        <pt x="1066" y="796" on="0"/>
        <pt x="969" y="591" on="0"/>
        <pt x="969" y="479" on="1"/>
        <pt x="969" y="191" on="0"/>
        <pt x="1156" y="191" on="1"/>
        <pt x="1246" y="191" on="0"/>
        <pt x="1341" y="329" on="0"/>
        <pt x="1341" y="466" on="1"/>
        <pt x="1341" y="588" on="0"/>
        <pt x="1246" y="794" on="0"/>
      </contour>
      <contour>
        <pt x="2563" y="-340" on="1"/>
        <pt x="2564" y="-428" on="0"/>
        <pt x="2629" y="-520" on="0"/>
        <pt x="2681" y="-520" on="1"/>
        <pt x="2731" y="-520" on="0"/>
        <pt x="2787" y="-467" on="0"/>
        <pt x="2787" y="-416" on="1"/>
        <pt x="2787" y="-364" on="0"/>
        <pt x="2729" y="-309" on="0"/>
        <pt x="2673" y="-309" on="1"/>
        <pt x="2618" y="-309" on="0"/>
      </contour>
    </TTGlyph>
    <TTGlyph name="glyph00182" xMin="75" yMin="-24" xMax="3689" yMax="1178">
      <contour>
        <pt x="3689" y="0" on="1"/>
        <pt x="1835" y="0" on="1"/>
        <pt x="1745" y="124" on="1"/>
        <pt x="1847" y="240" on="0"/>
        <pt x="1938" y="453" on="0"/>
        <pt x="1938" y="572" on="1"/>
        <pt x="1938" y="758" on="0"/>
        <pt x="1721" y="970" on="0"/>
        <pt x="1531" y="970" on="1"/>
        <pt x="1472" y="970" on="0"/>
        <pt x="1417" y="965" on="1"/>
        <pt x="1527" y="869" on="0"/>
        <pt x="1645" y="615" on="0"/>
        <pt x="1645" y="469" on="1"/>
        <pt x="1645" y="225" on="0"/>
        <pt x="1396" y="-24" on="0"/>
        <pt x="1156" y="-24" on="1"/>
        <pt x="920" y="-24" on="0"/>
        <pt x="665" y="232" on="0"/>
        <pt x="665" y="471" on="1"/>
        <pt x="665" y="613" on="0"/>
        <pt x="795" y="864" on="0"/>
        <pt x="920" y="965" on="1"/>
        <pt x="874" y="970" on="0"/>
        <pt x="834" y="970" on="1"/>
        <pt x="617" y="970" on="0"/>
        <pt x="383" y="762" on="0"/>
        <pt x="383" y="575" on="1"/>
        <pt x="383" y="441" on="0"/>
        <pt x="480" y="238" on="0"/>
        <pt x="591" y="132" on="1"/>
        <pt x="391" y="-24" on="1"/>
        <pt x="222" y="110" on="0"/>
        <pt x="75" y="395" on="0"/>
        <pt x="75" y="575" on="1"/>
        <pt x="75" y="753" on="0"/>
        <pt x="245" y="1029" on="0"/>
        <pt x="571" y="1178" on="0"/>
        <pt x="805" y="1178" on="1"/>
        <pt x="1006" y="1178" on="0"/>
        <pt x="1173" y="1107" on="1"/>
        <pt x="1339" y="1178" on="0"/>
        <pt x="1554" y="1178" on="1"/>
        <pt x="1772" y="1178" on="0"/>
        <pt x="2082" y="1032" on="0"/>
        <pt x="2243" y="759" on="0"/>
        <pt x="2243" y="587" on="1"/>
        <pt x="2243" y="481" on="0"/>
        <pt x="2187" y="303" on="0"/>
        <pt x="2130" y="215" on="1"/>
        <pt x="2530" y="215" on="1"/>
        <pt x="2530" y="601" on="1"/>
        <pt x="2530" y="820" on="0"/>
        <pt x="2674" y="1056" on="0"/>
        <pt x="2932" y="1178" on="0"/>
        <pt x="3107" y="1178" on="1"/>
        <pt x="3277" y="1178" on="0"/>
        <pt x="3537" y="1064" on="0"/>
        <pt x="3689" y="826" on="0"/>
        <pt x="3689" y="601" on="1"/>
      </contour>
      <contour>
        <pt x="3387" y="554" on="1"/>
        <pt x="3387" y="704" on="0"/>
        <pt x="3339" y="874" on="0"/>
        <pt x="3210" y="963" on="0"/>
        <pt x="3109" y="963" on="1"/>
        <pt x="3012" y="963" on="0"/>
        <pt x="2879" y="874" on="0"/>
        <pt x="2832" y="706" on="0"/>
        <pt x="2832" y="554" on="1"/>
        <pt x="2832" y="215" on="1"/>
        <pt x="3387" y="215" on="1"/>
      </contour>
      <contour>
        <pt x="1157" y="867" on="1"/>
        <pt x="1067" y="796" on="0"/>
        <pt x="969" y="590" on="0"/>
        <pt x="969" y="479" on="1"/>
        <pt x="969" y="191" on="0"/>
        <pt x="1156" y="191" on="1"/>
        <pt x="1246" y="191" on="0"/>
        <pt x="1341" y="329" on="0"/>
        <pt x="1341" y="466" on="1"/>
        <pt x="1341" y="587" on="0"/>
        <pt x="1247" y="794" on="0"/>
      </contour>
    </TTGlyph>
    <TTGlyph name="glyph00183" xMin="75" yMin="-690" xMax="2246" yMax="1178">
      <contour>
        <pt x="591" y="132" on="1"/>
        <pt x="391" y="-24" on="1"/>
        <pt x="222" y="110" on="0"/>
        <pt x="75" y="395" on="0"/>
        <pt x="75" y="575" on="1"/>
        <pt x="75" y="753" on="0"/>
        <pt x="245" y="1029" on="0"/>
        <pt x="571" y="1178" on="0"/>
        <pt x="805" y="1178" on="1"/>
        <pt x="1006" y="1178" on="0"/>
        <pt x="1173" y="1107" on="1"/>
        <pt x="1339" y="1178" on="0"/>
        <pt x="1554" y="1178" on="1"/>
        <pt x="1774" y="1178" on="0"/>
        <pt x="2086" y="1031" on="0"/>
        <pt x="2246" y="753" on="0"/>
        <pt x="2246" y="573" on="1"/>
        <pt x="2246" y="440" on="0"/>
        <pt x="2166" y="216" on="0"/>
        <pt x="2077" y="115" on="1"/>
        <pt x="2217" y="-52" on="0"/>
        <pt x="2217" y="-266" on="1"/>
        <pt x="2217" y="-464" on="0"/>
        <pt x="1986" y="-690" on="0"/>
        <pt x="1777" y="-690" on="1"/>
        <pt x="1605" y="-690" on="0"/>
        <pt x="1377" y="-523" on="0"/>
        <pt x="1377" y="-298" on="1"/>
        <pt x="1377" y="-283" on="1"/>
        <pt x="1377" y="-149" on="0"/>
        <pt x="1257" y="-10" on="0"/>
        <pt x="1124" y="-10" on="1"/>
        <pt x="1032" y="-10" on="0"/>
        <pt x="890" y="-93" on="0"/>
        <pt x="861" y="-169" on="1"/>
        <pt x="932" y="-139" on="0"/>
        <pt x="1008" y="-139" on="1"/>
        <pt x="1143" y="-139" on="0"/>
        <pt x="1288" y="-276" on="0"/>
        <pt x="1288" y="-401" on="1"/>
        <pt x="1288" y="-540" on="0"/>
        <pt x="1120" y="-690" on="0"/>
        <pt x="963" y="-690" on="1"/>
        <pt x="801" y="-690" on="0"/>
        <pt x="613" y="-484" on="0"/>
        <pt x="613" y="-309" on="1"/>
        <pt x="613" y="-181" on="0"/>
        <pt x="720" y="24" on="0"/>
        <pt x="822" y="90" on="1"/>
        <pt x="743" y="148" on="0"/>
        <pt x="665" y="338" on="0"/>
        <pt x="665" y="471" on="1"/>
        <pt x="665" y="613" on="0"/>
        <pt x="795" y="864" on="0"/>
        <pt x="920" y="965" on="1"/>
        <pt x="874" y="970" on="0"/>
        <pt x="834" y="970" on="1"/>
        <pt x="617" y="970" on="0"/>
        <pt x="383" y="762" on="0"/>
        <pt x="383" y="575" on="1"/>
        <pt x="383" y="441" on="0"/>
        <pt x="480" y="238" on="0"/>
      </contour>
      <contour>
        <pt x="1852" y="35" on="1"/>
        <pt x="1730" y="132" on="1"/>
        <pt x="1850" y="251" on="0"/>
        <pt x="1938" y="449" on="0"/>
        <pt x="1938" y="572" on="1"/>
        <pt x="1938" y="758" on="0"/>
        <pt x="1721" y="970" on="0"/>
        <pt x="1531" y="970" on="1"/>
        <pt x="1472" y="970" on="0"/>
        <pt x="1417" y="965" on="1"/>
        <pt x="1527" y="869" on="0"/>
        <pt x="1645" y="615" on="0"/>
        <pt x="1645" y="469" on="1"/>
        <pt x="1645" y="332" on="0"/>
        <pt x="1566" y="139" on="0"/>
        <pt x="1488" y="84" on="1"/>
        <pt x="1560" y="30" on="0"/>
        <pt x="1632" y="-140" on="0"/>
        <pt x="1632" y="-257" on="1"/>
        <pt x="1632" y="-283" on="1"/>
        <pt x="1632" y="-362" on="0"/>
        <pt x="1654" y="-448" on="0"/>
        <pt x="1723" y="-503" on="0"/>
        <pt x="1783" y="-503" on="1"/>
        <pt x="1870" y="-503" on="0"/>
        <pt x="1962" y="-383" on="0"/>
        <pt x="1962" y="-266" on="1"/>
        <pt x="1962" y="-94" on="0"/>
      </contour>
      <contour>
        <pt x="1157" y="867" on="1"/>
        <pt x="1067" y="796" on="0"/>
        <pt x="969" y="590" on="0"/>
        <pt x="969" y="479" on="1"/>
        <pt x="969" y="191" on="0"/>
        <pt x="1156" y="191" on="1"/>
        <pt x="1246" y="191" on="0"/>
        <pt x="1341" y="329" on="0"/>
        <pt x="1341" y="466" on="1"/>
        <pt x="1341" y="587" on="0"/>
        <pt x="1247" y="794" on="0"/>
      </contour>
      <contour>
        <pt x="843" y="-340" on="1"/>
        <pt x="844" y="-428" on="0"/>
        <pt x="909" y="-520" on="0"/>
        <pt x="961" y="-520" on="1"/>
        <pt x="1011" y="-520" on="0"/>
        <pt x="1067" y="-467" on="0"/>
        <pt x="1067" y="-416" on="1"/>
        <pt x="1067" y="-364" on="0"/>
        <pt x="1009" y="-309" on="0"/>
        <pt x="953" y="-309" on="1"/>
        <pt x="898" y="-309" on="0"/>
      </contour>
    </TTGlyph>
    <TTGlyph name="glyph00184" xMin="93" yMin="-504" xMax="1390" yMax="1178">
      <contour>
        <pt x="450" y="45" on="1"/>
        <pt x="167" y="-9" on="1"/>
        <pt x="135" y="83" on="0"/>
        <pt x="93" y="340" on="0"/>
        <pt x="93" y="455" on="1"/>
        <pt x="93" y="801" on="0"/>
        <pt x="497" y="1178" on="0"/>
        <pt x="870" y="1178" on="1"/>
        <pt x="1103" y="1178" on="0"/>
        <pt x="1368" y="999" on="0"/>
        <pt x="1368" y="852" on="1"/>
        <pt x="1368" y="752" on="0"/>
        <pt x="1281" y="623" on="0"/>
        <pt x="1187" y="575" on="1"/>
        <pt x="1288" y="539" on="0"/>
        <pt x="1390" y="404" on="0"/>
        <pt x="1390" y="306" on="1"/>
        <pt x="1390" y="243" on="0"/>
        <pt x="1340" y="138" on="0"/>
        <pt x="1291" y="97" on="1"/>
        <pt x="1340" y="51" on="0"/>
        <pt x="1390" y="-68" on="0"/>
        <pt x="1390" y="-141" on="1"/>
        <pt x="1390" y="-315" on="0"/>
        <pt x="1118" y="-504" on="0"/>
        <pt x="860" y="-504" on="1"/>
        <pt x="560" y="-504" on="0"/>
        <pt x="324" y="-396" on="1"/>
        <pt x="443" y="-199" on="1"/>
        <pt x="535" y="-243" on="0"/>
        <pt x="724" y="-283" on="0"/>
        <pt x="839" y="-283" on="1"/>
        <pt x="1091" y="-283" on="0"/>
        <pt x="1091" y="-137" on="1"/>
        <pt x="1091" y="-51" on="0"/>
        <pt x="1001" y="1" on="1"/>
        <pt x="985" y="0" on="1"/>
        <pt x="716" y="0" on="1"/>
        <pt x="716" y="215" on="1"/>
        <pt x="872" y="215" on="1"/>
        <pt x="994" y="215" on="0"/>
        <pt x="1088" y="271" on="0"/>
        <pt x="1088" y="340" on="1"/>
        <pt x="1088" y="377" on="0"/>
        <pt x="1049" y="430" on="0"/>
        <pt x="967" y="462" on="0"/>
        <pt x="868" y="462" on="1"/>
        <pt x="742" y="462" on="1"/>
        <pt x="742" y="676" on="1"/>
        <pt x="841" y="676" on="1"/>
        <pt x="962" y="676" on="0"/>
        <pt x="1066" y="751" on="0"/>
        <pt x="1066" y="819" on="1"/>
        <pt x="1066" y="963" on="0"/>
        <pt x="860" y="963" on="1"/>
        <pt x="639" y="963" on="0"/>
        <pt x="399" y="687" on="0"/>
        <pt x="399" y="438" on="1"/>
        <pt x="399" y="217" on="0"/>
      </contour>
    </TTGlyph>
    <TTGlyph name="glyph00185" xMin="93" yMin="-24" xMax="2620" yMax="1184">
      <contour>
        <pt x="760" y="788" on="1"/>
        <pt x="873" y="788" on="1"/>
        <pt x="926" y="788" on="0"/>
        <pt x="977" y="794" on="0"/>
        <pt x="1019" y="816" on="0"/>
        <pt x="1041" y="851" on="0"/>
        <pt x="1041" y="878" on="1"/>
        <pt x="1041" y="969" on="0"/>
        <pt x="856" y="969" on="1"/>
        <pt x="634" y="969" on="0"/>
        <pt x="399" y="693" on="0"/>
        <pt x="399" y="438" on="1"/>
        <pt x="399" y="217" on="0"/>
        <pt x="450" y="45" on="1"/>
        <pt x="167" y="-9" on="1"/>
        <pt x="135" y="83" on="0"/>
        <pt x="93" y="340" on="0"/>
        <pt x="93" y="455" on="1"/>
        <pt x="93" y="805" on="0"/>
        <pt x="489" y="1184" on="0"/>
        <pt x="860" y="1184" on="1"/>
        <pt x="1092" y="1184" on="0"/>
        <pt x="1333" y="1042" on="0"/>
        <pt x="1333" y="913" on="1"/>
        <pt x="1333" y="758" on="0"/>
        <pt x="1158" y="697" on="1"/>
        <pt x="1249" y="673" on="0"/>
        <pt x="1352" y="562" on="0"/>
        <pt x="1352" y="488" on="1"/>
        <pt x="1352" y="376" on="0"/>
        <pt x="1181" y="263" on="0"/>
        <pt x="998" y="258" on="1"/>
        <pt x="960" y="257" on="0"/>
        <pt x="936" y="241" on="0"/>
        <pt x="936" y="227" on="1"/>
        <pt x="936" y="199" on="0"/>
        <pt x="1016" y="166" on="0"/>
        <pt x="1098" y="166" on="1"/>
        <pt x="1260" y="166" on="0"/>
        <pt x="1442" y="278" on="0"/>
        <pt x="1527" y="484" on="0"/>
        <pt x="1527" y="672" on="1"/>
        <pt x="1527" y="1150" on="1"/>
        <pt x="1829" y="1150" on="1"/>
        <pt x="1829" y="491" on="1"/>
        <pt x="1829" y="384" on="0"/>
        <pt x="1860" y="264" on="0"/>
        <pt x="1951" y="194" on="0"/>
        <pt x="2033" y="194" on="1"/>
        <pt x="2154" y="194" on="0"/>
        <pt x="2315" y="384" on="0"/>
        <pt x="2315" y="552" on="1"/>
        <pt x="2315" y="686" on="0"/>
        <pt x="2219" y="910" on="0"/>
        <pt x="2117" y="1022" on="1"/>
        <pt x="2330" y="1178" on="1"/>
        <pt x="2483" y="1032" on="0"/>
        <pt x="2620" y="728" on="0"/>
        <pt x="2620" y="550" on="1"/>
        <pt x="2620" y="383" on="0"/>
        <pt x="2481" y="119" on="0"/>
        <pt x="2222" y="-24" on="0"/>
        <pt x="2049" y="-24" on="1"/>
        <pt x="1927" y="-24" on="0"/>
        <pt x="1739" y="42" on="0"/>
        <pt x="1630" y="144" on="1"/>
        <pt x="1517" y="50" on="0"/>
        <pt x="1273" y="-24" on="0"/>
        <pt x="1102" y="-24" on="1"/>
        <pt x="891" y="-24" on="0"/>
        <pt x="669" y="114" on="0"/>
        <pt x="669" y="237" on="1"/>
        <pt x="669" y="324" on="0"/>
        <pt x="786" y="431" on="0"/>
        <pt x="920" y="445" on="1"/>
        <pt x="939" y="447" on="1"/>
        <pt x="1016" y="455" on="0"/>
        <pt x="1060" y="490" on="0"/>
        <pt x="1060" y="519" on="1"/>
        <pt x="1060" y="548" on="0"/>
        <pt x="1027" y="584" on="0"/>
        <pt x="966" y="594" on="0"/>
        <pt x="891" y="594" on="1"/>
        <pt x="760" y="594" on="1"/>
      </contour>
    </TTGlyph>
    <TTGlyph name="glyph00186" xMin="75" yMin="-24" xMax="2071" yMax="1178">
      <contour>
        <pt x="1867" y="575" on="1"/>
        <pt x="1969" y="537" on="0"/>
        <pt x="2071" y="397" on="0"/>
        <pt x="2071" y="295" on="1"/>
        <pt x="2071" y="142" on="0"/>
        <pt x="1850" y="-24" on="0"/>
        <pt x="1646" y="-24" on="1"/>
        <pt x="1529" y="-24" on="0"/>
        <pt x="1417" y="-1" on="1"/>
        <pt x="1455" y="211" on="1"/>
        <pt x="1527" y="191" on="0"/>
        <pt x="1591" y="191" on="1"/>
        <pt x="1685" y="191" on="0"/>
        <pt x="1769" y="249" on="0"/>
        <pt x="1769" y="319" on="1"/>
        <pt x="1769" y="364" on="0"/>
        <pt x="1717" y="428" on="0"/>
        <pt x="1625" y="462" on="0"/>
        <pt x="1528" y="462" on="1"/>
        <pt x="1453" y="462" on="1"/>
        <pt x="1453" y="676" on="1"/>
        <pt x="1522" y="676" on="1"/>
        <pt x="1643" y="676" on="0"/>
        <pt x="1747" y="751" on="0"/>
        <pt x="1747" y="819" on="1"/>
        <pt x="1747" y="963" on="0"/>
        <pt x="1535" y="963" on="1"/>
        <pt x="1442" y="963" on="0"/>
        <pt x="1304" y="897" on="0"/>
        <pt x="1206" y="764" on="0"/>
        <pt x="1168" y="590" on="0"/>
        <pt x="1168" y="444" on="1"/>
        <pt x="1168" y="0" on="1"/>
        <pt x="866" y="0" on="1"/>
        <pt x="866" y="663" on="1"/>
        <pt x="866" y="768" on="0"/>
        <pt x="836" y="887" on="0"/>
        <pt x="746" y="960" on="0"/>
        <pt x="662" y="960" on="1"/>
        <pt x="541" y="960" on="0"/>
        <pt x="380" y="770" on="0"/>
        <pt x="380" y="602" on="1"/>
        <pt x="380" y="468" on="0"/>
        <pt x="476" y="244" on="0"/>
        <pt x="578" y="132" on="1"/>
        <pt x="365" y="-24" on="1"/>
        <pt x="213" y="121" on="0"/>
        <pt x="75" y="424" on="0"/>
        <pt x="75" y="604" on="1"/>
        <pt x="75" y="771" on="0"/>
        <pt x="214" y="1034" on="0"/>
        <pt x="473" y="1178" on="0"/>
        <pt x="646" y="1178" on="1"/>
        <pt x="777" y="1178" on="0"/>
        <pt x="965" y="1101" on="0"/>
        <pt x="1068" y="998" on="1"/>
        <pt x="1159" y="1088" on="0"/>
        <pt x="1407" y="1178" on="0"/>
        <pt x="1564" y="1178" on="1"/>
        <pt x="1787" y="1178" on="0"/>
        <pt x="2049" y="996" on="0"/>
        <pt x="2049" y="852" on="1"/>
        <pt x="2049" y="752" on="0"/>
        <pt x="1962" y="623" on="0"/>
      </contour>
    </TTGlyph>
    <TTGlyph name="glyph00187" xMin="75" yMin="-24" xMax="3403" yMax="1178">
      <contour>
        <pt x="1030" y="1034" on="1"/>
        <pt x="1110" y="1112" on="0"/>
        <pt x="1284" y="1178" on="0"/>
        <pt x="1397" y="1178" on="1"/>
        <pt x="1639" y="1178" on="0"/>
        <pt x="1898" y="920" on="0"/>
        <pt x="1898" y="624" on="1"/>
        <pt x="1898" y="566" on="1"/>
        <pt x="1898" y="434" on="0"/>
        <pt x="1925" y="282" on="0"/>
        <pt x="2022" y="195" on="0"/>
        <pt x="2107" y="195" on="1"/>
        <pt x="2166" y="195" on="0"/>
        <pt x="2263" y="243" on="0"/>
        <pt x="2320" y="368" on="0"/>
        <pt x="2320" y="515" on="1"/>
        <pt x="2320" y="1150" on="1"/>
        <pt x="2622" y="1150" on="1"/>
        <pt x="2622" y="534" on="1"/>
        <pt x="2622" y="423" on="0"/>
        <pt x="2637" y="315" on="0"/>
        <pt x="2684" y="239" on="0"/>
        <pt x="2771" y="194" on="0"/>
        <pt x="2822" y="194" on="1"/>
        <pt x="2948" y="194" on="0"/>
        <pt x="3098" y="391" on="0"/>
        <pt x="3098" y="563" on="1"/>
        <pt x="3098" y="690" on="0"/>
        <pt x="3000" y="912" on="0"/>
        <pt x="2900" y="1022" on="1"/>
        <pt x="3108" y="1178" on="1"/>
        <pt x="3263" y="1035" on="0"/>
        <pt x="3403" y="729" on="0"/>
        <pt x="3403" y="541" on="1"/>
        <pt x="3403" y="375" on="0"/>
        <pt x="3266" y="116" on="0"/>
        <pt x="3017" y="-24" on="0"/>
        <pt x="2854" y="-24" on="1"/>
        <pt x="2722" y="-24" on="0"/>
        <pt x="2538" y="49" on="0"/>
        <pt x="2462" y="125" on="1"/>
        <pt x="2381" y="45" on="0"/>
        <pt x="2204" y="-24" on="0"/>
        <pt x="2090" y="-24" on="1"/>
        <pt x="1848" y="-24" on="0"/>
        <pt x="1590" y="235" on="0"/>
        <pt x="1590" y="525" on="1"/>
        <pt x="1590" y="588" on="1"/>
        <pt x="1590" y="720" on="0"/>
        <pt x="1563" y="872" on="0"/>
        <pt x="1465" y="959" on="0"/>
        <pt x="1381" y="959" on="1"/>
        <pt x="1306" y="959" on="0"/>
        <pt x="1206" y="889" on="0"/>
        <pt x="1168" y="760" on="0"/>
        <pt x="1168" y="639" on="1"/>
        <pt x="1168" y="0" on="1"/>
        <pt x="866" y="0" on="1"/>
        <pt x="866" y="663" on="1"/>
        <pt x="866" y="768" on="0"/>
        <pt x="836" y="887" on="0"/>
        <pt x="746" y="960" on="0"/>
        <pt x="662" y="960" on="1"/>
        <pt x="541" y="960" on="0"/>
        <pt x="380" y="770" on="0"/>
        <pt x="380" y="602" on="1"/>
        <pt x="380" y="468" on="0"/>
        <pt x="476" y="244" on="0"/>
        <pt x="578" y="132" on="1"/>
        <pt x="365" y="-24" on="1"/>
        <pt x="213" y="121" on="0"/>
        <pt x="75" y="423" on="0"/>
        <pt x="75" y="604" on="1"/>
        <pt x="75" y="771" on="0"/>
        <pt x="214" y="1034" on="0"/>
        <pt x="473" y="1178" on="0"/>
        <pt x="646" y="1178" on="1"/>
        <pt x="767" y="1178" on="0"/>
        <pt x="941" y="1114" on="0"/>
      </contour>
    </TTGlyph>
    <TTGlyph name="glyph00188" xMin="75" yMin="-24" xMax="2684" yMax="1178">
      <contour>
        <pt x="1011" y="1030" on="1"/>
        <pt x="1089" y="1105" on="0"/>
        <pt x="1264" y="1178" on="0"/>
        <pt x="1379" y="1178" on="1"/>
        <pt x="1496" y="1178" on="0"/>
        <pt x="1669" y="1108" on="0"/>
        <pt x="1744" y="1030" on="1"/>
        <pt x="1823" y="1108" on="0"/>
        <pt x="2009" y="1178" on="0"/>
        <pt x="2135" y="1178" on="1"/>
        <pt x="2298" y="1178" on="0"/>
        <pt x="2547" y="1038" on="0"/>
        <pt x="2684" y="779" on="0"/>
        <pt x="2684" y="613" on="1"/>
        <pt x="2684" y="424" on="0"/>
        <pt x="2542" y="114" on="0"/>
        <pt x="2394" y="-24" on="1"/>
        <pt x="2181" y="132" on="1"/>
        <pt x="2281" y="242" on="0"/>
        <pt x="2379" y="464" on="0"/>
        <pt x="2379" y="591" on="1"/>
        <pt x="2379" y="763" on="0"/>
        <pt x="2229" y="960" on="0"/>
        <pt x="2103" y="960" on="1"/>
        <pt x="2051" y="960" on="0"/>
        <pt x="1966" y="917" on="0"/>
        <pt x="1918" y="841" on="0"/>
        <pt x="1903" y="733" on="0"/>
        <pt x="1903" y="620" on="1"/>
        <pt x="1903" y="0" on="1"/>
        <pt x="1601" y="0" on="1"/>
        <pt x="1601" y="639" on="1"/>
        <pt x="1601" y="752" on="0"/>
        <pt x="1566" y="887" on="0"/>
        <pt x="1464" y="960" on="0"/>
        <pt x="1379" y="960" on="1"/>
        <pt x="1308" y="960" on="0"/>
        <pt x="1209" y="896" on="0"/>
        <pt x="1158" y="771" on="0"/>
        <pt x="1158" y="619" on="1"/>
        <pt x="1158" y="0" on="1"/>
        <pt x="856" y="0" on="1"/>
        <pt x="856" y="663" on="1"/>
        <pt x="856" y="772" on="0"/>
        <pt x="825" y="891" on="0"/>
        <pt x="736" y="960" on="0"/>
        <pt x="656" y="960" on="1"/>
        <pt x="538" y="960" on="0"/>
        <pt x="380" y="770" on="0"/>
        <pt x="380" y="602" on="1"/>
        <pt x="380" y="468" on="0"/>
        <pt x="476" y="244" on="0"/>
        <pt x="578" y="132" on="1"/>
        <pt x="365" y="-24" on="1"/>
        <pt x="213" y="121" on="0"/>
        <pt x="75" y="424" on="0"/>
        <pt x="75" y="604" on="1"/>
        <pt x="75" y="772" on="0"/>
        <pt x="214" y="1035" on="0"/>
        <pt x="470" y="1178" on="0"/>
        <pt x="640" y="1178" on="1"/>
        <pt x="757" y="1178" on="0"/>
        <pt x="920" y="1117" on="0"/>
      </contour>
    </TTGlyph>
</ttFont>
